<svg width="64" height="64" viewBox="0 0 64 64" fill="none" xmlns="http://www.w3.org/2000/svg">
<rect width="64" height="64" rx="32" fill="#FBFBFB"/>
<path d="M28.718 40.7184H27.518V35.4246H23.7742V40.7184H22.5742V34.8246C22.5742 34.4934 22.843 34.2246 23.1742 34.2246H28.118C28.4492 34.2246 28.718 34.4934 28.718 34.8246V40.7184Z" fill="#FA6B71"/>
<path d="M45.0891 41.7069V21.6944C45.0891 21.5131 45.0078 21.3381 44.8641 21.2256C44.7203 21.1131 44.5328 21.0694 44.3578 21.1069L28.6641 24.5881L28.9266 25.7631L43.8891 22.4444V41.7069H41.3641V29.4006C41.3641 29.1131 41.1578 28.8631 40.8766 28.8131L19.7266 24.7881C19.5516 24.7569 19.3703 24.8006 19.2328 24.9131C19.0953 25.0256 19.0141 25.1944 19.0141 25.3756V30.8381H20.2141V26.1006L40.1641 29.9006V41.7069H20.2078V32.8631H19.0078V41.7069H15.9453V42.9069H49.0516V41.7069H45.0828H45.0891Z" fill="#FA6B71"/>
<path d="M26.9773 37.4258H25.7773V38.7383H26.9773V37.4258Z" fill="#FA6B71"/>
<path d="M37.4969 36.0949C37.8281 36.0949 38.0969 35.8262 38.0969 35.4949V31.7699C38.0969 31.4387 37.8281 31.1699 37.4969 31.1699H31.4906C31.1594 31.1699 30.8906 31.4387 30.8906 31.7699V35.4949C30.8906 35.8262 31.1594 36.0949 31.4906 36.0949H37.4969ZM32.0906 32.3699H36.8969V34.8949H32.0906V32.3699Z" fill="#FA6B71"/>
</svg>
