<svg width="40" height="40" viewBox="0 0 40 40" fill="none" xmlns="http://www.w3.org/2000/svg">
<rect width="40" height="40" rx="20" fill="white"/>
<path d="M30 27V30H10V27C10 26.45 10.45 26 11 26H29C29.55 26 30 26.45 30 27Z" fill="#E44E56" stroke="#E44E56" stroke-width="1.5" stroke-miterlimit="10" stroke-linecap="round" stroke-linejoin="round"/>
<path d="M15 19H13V26H15V19Z" fill="#E44E56"/>
<path d="M19 19H17V26H19V19Z" fill="#E44E56"/>
<path d="M23 19H21V26H23V19Z" fill="#E44E56"/>
<path d="M27 19H25V26H27V19Z" fill="#E44E56"/>
<path d="M31 30.75H9C8.59 30.75 8.25 30.41 8.25 30C8.25 29.59 8.59 29.25 9 29.25H31C31.41 29.25 31.75 29.59 31.75 30C31.75 30.41 31.41 30.75 31 30.75Z" fill="#E44E56"/>
<path d="M29.37 13.75L20.37 10.15C20.17 10.07 19.83 10.07 19.63 10.15L10.63 13.75C10.28 13.89 10 14.3 10 14.68V18C10 18.55 10.45 19 11 19H29C29.55 19 30 18.55 30 18V14.68C30 14.3 29.72 13.89 29.37 13.75ZM20 16.5C19.17 16.5 18.5 15.83 18.5 15C18.5 14.17 19.17 13.5 20 13.5C20.83 13.5 21.5 14.17 21.5 15C21.5 15.83 20.83 16.5 20 16.5Z" fill="#E44E56"/>
</svg>
