<svg width="1440" height="1024" viewBox="0 0 1440 1024" fill="none" xmlns="http://www.w3.org/2000/svg">
<path d="M-156.711 767.969C-89.5747 766.481 -22.8517 778.839 39.2978 804.273C131.338 842.595 150.347 885.865 224.737 896.208C297.022 906.231 374.324 878.608 425.029 833.513C494.207 771.966 469.758 717.1 527.226 579.265C561.045 498.248 624.407 346.219 761.675 285.008C831.027 254.089 913.507 248.907 990.167 244.072C1084.13 238.147 1104.33 249.966 1149.55 236.397C1203.26 220.295 1274.79 173.646 1337.26 30.2616" stroke="#4A0305" stroke-width="1.0516" stroke-miterlimit="10"/>
<path d="M-153.039 778.499C-92.8611 776.557 -32.8395 785.706 24.0273 805.488C29.4924 807.43 35.0126 809.477 40.614 811.615C132.096 847.497 150.92 888.463 224.121 898.201C256.064 902.51 288.544 900.425 319.674 892.068C341.961 886.064 363.363 877.154 383.327 865.568C398.251 856.895 412.152 846.57 424.766 834.786C438.941 821.88 450.885 806.72 460.114 789.918C477.061 758.93 483.006 726.062 495.641 682.08C505.169 648.969 517.547 616.746 532.637 585.772C540.559 569.236 549.621 549.561 560.901 528.344C591.038 471.493 632.868 404.913 698.763 354.678C721.061 337.515 745.227 322.928 770.802 311.195C774.716 309.389 778.659 307.702 782.577 306.094C821.356 290.13 861.507 280.978 904.054 274.526C935.824 269.578 967.349 267.695 998.293 265.219C1011.3 264.269 1022.96 263.496 1033.58 262.945C1097.74 259.694 1117.91 265.487 1156.04 252.505C1185 242.638 1219.15 223.591 1254.93 185.161C1284.29 153.672 1314.98 108.702 1345.18 45.2159" stroke="#4A0305" stroke-width="1.0516" stroke-miterlimit="10"/>
<path d="M-149.234 789.025C-90.0191 786.462 -30.8309 794.679 25.4473 813.274C30.852 815.082 36.3027 816.976 41.7994 818.958C132.867 852.358 151.53 890.941 223.533 900.179C255.646 904.675 288.33 902.774 319.705 894.586C342.125 888.549 363.624 879.499 383.612 867.684C398.466 858.822 412.192 848.194 424.49 836.032C438.318 822.667 450.031 807.276 459.227 790.387C476.94 758.325 484.275 725.689 497.618 683.8C507.922 651.914 521.411 621.147 537.884 591.966C546.385 576.524 555.715 558.174 567.627 538.591C599.362 486.397 640.54 427.467 707.044 380.145C729.947 363.659 754.324 349.322 779.863 337.317C783.829 335.484 787.77 333.73 791.701 332.082C830.953 315.501 869.501 305.463 912.047 297.244C944.104 291.076 975.284 289.109 1006.35 286.366C1019.25 285.208 1030.92 284.197 1041.65 283.354C1105.13 278.457 1125.23 282.959 1162.45 268.588C1190.81 257.64 1224.17 237.741 1260.1 199.005C1289.42 167.332 1320.88 122.489 1353.12 60.221" stroke="#4A0305" stroke-width="1.0516" stroke-miterlimit="10"/>
<path d="M-145.766 799.532C-87.3881 796.322 -28.9086 803.623 26.8883 821.085C32.2292 822.793 37.6237 824.54 43.0335 826.379C133.726 857.242 152.125 893.563 222.901 902.184C256.41 906.255 287.031 905.751 319.679 897.17C342.253 891.099 363.868 881.9 383.893 869.839C398.678 860.778 412.226 849.837 424.196 837.29C437.688 823.467 449.19 807.834 458.373 790.841C476.801 757.734 485.527 725.395 499.618 685.612C510.71 654.929 525.353 625.648 543.248 598.367C552.458 583.95 561.953 566.981 574.47 549.046C607.901 501.123 648.289 450.151 715.373 405.69C738.889 389.889 763.507 375.795 789.038 363.514C793.017 361.641 797.075 359.793 800.887 358.174C839.291 341.699 879.192 328.96 920.037 320.133C952.369 312.719 983.286 310.758 1014.52 307.563C1027.33 306.249 1038.97 304.988 1049.84 303.838C1112.61 297.283 1132.62 300.429 1168.95 284.76C1196.76 272.77 1229.37 251.9 1265.36 212.898C1294.76 181.184 1326.77 136.249 1360.99 75.0689" stroke="#4A0305" stroke-width="1.0516" stroke-miterlimit="10"/>
<path d="M-142.133 810.05C-84.6541 806.239 -26.9541 812.611 28.308 828.872C33.5937 830.476 38.9315 832.052 44.2463 833.775C134.488 862.275 152.681 896.003 222.3 904.203C256.453 908.166 286.446 908.429 319.697 899.728C342.412 893.641 364.123 884.291 384.152 871.969C398.927 862.719 412.338 851.452 423.999 838.495C437.14 824.274 448.444 808.461 457.647 791.425C476.774 757.247 487.064 725.214 501.675 687.357C511.997 660.678 526.914 634.233 548.669 604.702C558.535 591.272 568.31 575.589 581.369 559.368C616.7 515.476 656.12 472.755 723.655 431.224C747.736 416.106 772.585 402.247 798.101 389.703C802.117 387.776 806.109 385.929 809.972 384.217C848.127 367.109 887.666 353.27 928.161 342.849C960.819 334.161 991.33 332.315 1022.63 328.618C1035.23 327.216 1047.06 325.687 1058.01 324.192C1120.11 316.123 1139.97 317.783 1175.46 300.762C1202.7 287.704 1234.54 265.942 1270.62 226.687C1299.93 194.791 1332.67 149.971 1368.86 89.9446" stroke="#4A0305" stroke-width="1.0516" stroke-miterlimit="10"/>
<path d="M-138.477 820.554C-81.8999 816.162 -24.9902 821.611 29.725 836.659C34.9418 838.133 40.1968 839.554 45.4288 841.119C135.174 866.981 153.278 898.588 221.617 906.198C256.428 910.08 285.792 911.109 319.621 902.302C342.492 896.184 364.316 886.674 384.368 874.088C399.061 864.675 412.271 853.127 423.564 839.825C436.355 825.176 447.451 809.129 456.641 791.99C476.522 756.779 488.442 725.117 503.521 689.214C514.692 662.752 531.097 637.921 553.865 611.122C564.439 598.651 574.522 584.307 587.975 569.712C625.489 529.501 663.737 495.338 731.826 456.616C755.485 443.154 781.6 428.158 807.091 415.761C811.146 413.781 815.072 411.936 818.986 410.13C856.834 392.418 895.932 377.512 935.965 365.533C968.898 355.6 999.184 353.772 1030.66 349.715C1043.31 348.088 1054.93 346.3 1066.05 344.55C1127.56 335.098 1147.64 335.803 1181.87 316.978C1208.33 302.435 1239.63 280.158 1275.74 240.586C1304.95 208.441 1338.47 163.774 1376.66 104.928" stroke="#4A0305" stroke-width="1.0516" stroke-miterlimit="10"/>
<path d="M-134.859 831.046C-79.1656 826.088 -23.0344 830.62 31.1429 844.447C36.2906 845.79 41.5027 847.066 46.626 848.49C135.997 871.881 153.86 901.081 220.975 908.205C256.337 911.995 285.139 913.789 319.612 904.874C342.584 898.717 364.475 889.071 384.521 876.274C399.171 866.657 412.217 854.796 423.182 841.127C435.574 826.041 446.457 809.777 455.675 792.567C476.256 756.285 489.856 724.834 505.327 691.059C517.319 664.696 535.321 641.621 559.036 617.556C570.371 606.017 583.869 595.667 594.68 580.303C641.63 552.874 669.431 514.037 740.005 482.338C764.944 471.167 790.786 454.648 816.049 442.071C820.156 440.064 824.132 438.125 827.98 436.321C869.158 416.951 901.071 402.888 943.799 388.335C976.992 377.13 1006.99 375.388 1038.59 370.866C1051.02 369.152 1062.76 367.071 1074.01 365.015C1134.7 353.96 1154.34 352.499 1188.12 332.947C1214.26 317.739 1244.59 294.14 1280.79 254.355C1310.06 222.182 1344.14 177.449 1384.37 119.755" stroke="#4A0305" stroke-width="1.0516" stroke-miterlimit="10"/>
<path d="M-131.219 841.562C-76.4138 836.04 -21.0726 839.637 32.5566 852.206C37.6752 853.432 42.8046 854.552 47.819 855.832C136.918 876.632 154.542 903.49 220.446 910.154C256.557 913.782 284.626 916.397 319.69 907.403C342.871 901.21 364.919 891.371 385.009 878.253C401.418 867.73 412.781 855.109 423.109 842.235C435.122 826.72 445.813 810.225 455.07 792.923C476.365 755.596 491.818 724.432 507.587 692.666C520.468 666.599 540.102 645.095 564.515 623.796C576.702 613.174 590.786 604.748 601.665 590.583C651.636 568.859 679.505 540.859 748.45 507.721C773.188 495.856 800.212 480.813 825.355 468.2C829.419 466.048 833.475 464.134 837.269 462.291C878.932 442.199 909.2 427.172 952.066 411.178C985.507 398.741 1015.23 397.045 1046.96 392.085C1059.31 390.214 1071.02 387.884 1082.41 385.521C1142.49 372.99 1161.99 370.069 1194.85 349.1C1220.43 332.851 1249.99 308.359 1286.28 268.296C1315.57 236.109 1350.29 191.309 1392.54 134.781" stroke="#4A0305" stroke-width="1.0516" stroke-miterlimit="10"/>
<path d="M-127.57 852.04C-73.6599 845.993 -19.1281 848.652 33.9383 859.915C39.0017 861.036 44.0882 862.012 49.1363 863.041C137.73 881.373 155.179 905.823 219.78 912.043C256.534 915.563 283.989 918.971 319.643 909.831C342.951 903.638 365.088 893.674 385.178 880.333C401.739 869.529 412.646 856.616 422.717 843.444C435.155 827.185 443.985 811.169 454.121 793.46C476.171 755.1 499.469 726.719 509.503 694.455C528.075 671.512 540.159 640.096 569.873 630.133C585.339 624.946 597.607 613.846 608.514 600.933C661.519 584.874 687.487 563.552 756.799 533.188C782.083 522.101 809.633 506.98 834.485 494.321C838.627 492.127 842.587 490.031 846.462 488.279C888.557 467.49 917.165 451.407 960.115 433.935C993.881 420.158 1023.26 418.576 1055.1 413.191C1067.37 411.164 1079.09 408.597 1090.58 405.915C1149.92 392.003 1169.34 387.357 1201.38 365.154C1226.41 347.797 1255.23 322.4 1291.55 282.085C1320.81 249.715 1356.11 205.072 1400.48 149.655" stroke="#4A0305" stroke-width="1.0516" stroke-miterlimit="10"/>
<path d="M-123.953 862.53C-70.8921 855.982 -17.1346 857.744 35.3837 867.753C40.3782 868.744 45.3267 869.459 50.3732 870.423C138.747 886.136 155.735 908.328 219.178 914.061C256.588 917.434 283.402 921.647 319.648 912.428C343.098 906.188 365.339 896.068 385.449 882.489C402.162 871.404 412.573 858.12 422.453 844.716C434.44 828.362 442.894 812.011 453.246 793.954C475.982 754.497 501.629 726.774 511.53 696.148C531.529 673.883 545.682 642.974 575.265 636.415C591.44 632.82 604.462 622.956 615.333 611.296C671.371 600.903 695.491 586.296 765.118 558.667C790.933 548.333 818.802 533.31 843.609 520.441L855.515 514.137C898.08 492.599 925.122 475.511 968.076 456.535C1002.13 441.473 1031.21 440.016 1063.17 434.167C1075.36 431.984 1087.04 429.166 1098.65 426.152C1157.29 410.912 1176.62 404.579 1207.82 381.091C1232.27 362.64 1260.34 336.337 1296.73 295.783C1325.95 263.269 1362.05 218.633 1408.33 164.412" stroke="#4A0305" stroke-width="1.0516" stroke-miterlimit="10"/>
<path d="M-120.344 872.995C-68.1703 866 -15.2434 866.859 36.6757 875.542C41.5721 876.285 46.5206 877 51.443 877.729C139.349 890.921 156.188 910.691 218.488 916.028C256.54 919.228 282.858 924.205 319.577 914.935C343.177 908.695 365.523 898.431 385.633 884.594C402.523 873.215 412.494 859.73 422.076 845.951C433.53 829.345 441.729 812.829 452.311 794.451C475.787 753.934 503.73 726.83 513.355 697.951C534.793 676.326 557.086 660.852 580.44 642.782C596.675 637.788 611.088 632.124 622.04 621.688C681.14 617.079 703.319 609.137 773.271 584.138C799.701 574.713 828.141 559.886 852.582 546.578C856.802 544.343 860.84 542.205 864.566 540.232C907.104 517.007 932.919 499.869 976.01 479.387C1010.37 463.025 1039.12 461.681 1071.24 455.38C1083.33 453.015 1095.06 449.972 1106.64 446.642C1164.57 430.073 1183.68 422.058 1214.1 397.243C1238.02 377.709 1265.31 350.515 1301.82 309.668C1331.01 277.036 1367.69 232.493 1416.05 179.369" stroke="#4A0305" stroke-width="1.0516" stroke-miterlimit="10"/>
<path d="M-116.703 883.474C-65.3437 875.983 -13.1749 875.902 38.2074 883.235C43.0778 883.991 47.9557 884.51 52.7954 885.083C140.377 895.646 156.924 913.101 217.907 917.968C256.643 921.073 282.176 926.899 319.617 917.48C343.428 911.203 365.933 900.743 386.082 886.589C403.228 874.875 412.784 861.109 421.9 847.143C432.992 830.295 440.817 813.577 451.508 794.774C475.672 753.226 505.963 726.713 515.364 699.553C538.229 678.607 561.922 664.894 585.786 648.922C602.921 645.186 617.883 641.065 628.877 631.842C690.943 632.833 711.331 631.777 781.582 609.422C808.585 600.827 837.433 585.952 861.713 572.528C865.986 570.266 870.023 568.128 873.775 566.141C916.718 542.168 940.886 523.934 984.088 502.025C1018.71 484.391 1047.18 483.16 1079.42 476.395C1091.44 473.899 1103.02 470.569 1114.95 466.955C1172.21 449.109 1191.29 439.275 1220.76 413.229C1244.09 392.602 1270.66 364.527 1307.22 323.415C1336.38 290.665 1373.86 246.103 1424.13 194.202" stroke="#4A0305" stroke-width="1.0516" stroke-miterlimit="10"/>
<path d="M-113.094 893.939C-62.5616 886.007 -11.1828 885.017 39.6175 890.995C44.5138 891.738 49.2401 891.97 54.0108 892.413C141.279 900.306 157.536 915.447 217.283 919.934C256.661 922.865 281.554 929.498 319.612 919.985C343.517 913.698 366.08 903.118 386.201 888.762C403.251 876.865 412.678 862.667 421.522 848.378C432.019 831.412 439.574 814.436 450.642 795.4C475.532 752.767 508.132 726.9 517.322 701.42C541.626 681.112 566.531 669.059 591.136 655.43C609.13 652.94 624.683 650.374 635.692 642.377C700.805 649.06 719.321 654.799 789.897 635.073C817.488 627.335 846.536 612.02 870.81 598.9C875.135 596.61 879.199 594.458 882.95 592.472C926.35 567.723 949.478 549.606 992.172 525.098C1026.6 505.332 1055.24 505.046 1087.64 497.894C1099.67 495.159 1111.54 491.77 1123.19 487.742C1179.79 468.646 1198.72 457.022 1227.34 429.69C1250.12 407.955 1275.93 379.015 1312.56 337.638C1341.81 304.7 1379.84 260.218 1432.12 209.483" stroke="#4A0305" stroke-width="1.0516" stroke-miterlimit="10"/>
<path d="M-112.438 898.827C-62.6957 890.512 -12.089 888.648 38.1296 893.282C42.888 893.765 47.6403 893.984 52.3542 894.256C139.284 899.493 155.301 912.293 213.747 916.401C253.795 919.212 278.047 926.65 316.684 917.032C340.743 910.726 363.419 899.997 383.553 885.393C400.871 873.121 409.818 858.71 418.391 844.097C428.221 826.818 435.416 809.666 446.805 790.292C472.451 746.692 507.344 721.312 516.324 697.577C542.041 677.923 568.226 667.593 593.488 656.151C612.356 654.933 628.46 653.911 639.524 647.152C707.67 659.499 724.45 672.228 795.12 654.821C823.323 647.926 852.752 632.51 876.877 619.235L888.945 612.545C933.34 588.037 953.734 566.897 997.063 541.953C1032.25 521.655 1060.11 520.741 1092.6 513.047C1104.66 510.104 1116.55 506.472 1128.2 502.168C1184.01 481.89 1202.89 468.355 1230.65 439.778C1252.88 416.935 1277.95 387.115 1314.64 345.473C1343.84 312.431 1382.58 267.972 1436.88 218.402" stroke="#4A0305" stroke-width="1.0516" stroke-miterlimit="10"/>
<path d="M-113.125 901.296C-64.2356 892.517 -14.4638 889.682 35.1063 892.853C39.8356 893.217 44.5051 893.28 49.1364 893.396C135.885 895.96 151.562 906.605 208.796 910.188C249.511 912.812 273.111 921.096 312.365 911.384C336.566 905.013 359.332 894.09 379.446 879.2C396.875 866.635 405.528 852.047 413.671 837.061C423.171 819.789 430.095 802.314 441.57 782.662C467.915 737.925 505.145 713.241 513.928 691.212C541.083 672.196 567.308 659.044 594.482 654.362C613.959 651.019 630.972 655.053 641.835 649.301C712.989 667.328 728.007 687.06 798.961 672.205C827.753 666.232 857.6 650.661 881.512 637.299C885.941 634.954 889.946 632.566 893.616 630.489C938.468 605.205 957.19 583.05 1000.62 556.587C1036.05 534.991 1063.65 534.215 1096.22 525.978C1108.32 522.869 1120.22 518.997 1131.84 514.387C1186.99 492.924 1205.71 477.508 1232.64 447.671C1254.27 423.707 1278.61 393.008 1315.37 351.127C1344.52 317.981 1383.97 273.545 1440.21 224.985" stroke="#4A0305" stroke-width="1.0516" stroke-miterlimit="10"/>
<path d="M-113.727 903.646C-65.629 894.474 -16.6558 890.718 32.2778 892.445C36.9642 892.665 41.577 892.558 46.1132 892.557C132.454 892.336 147.786 900.629 203.828 903.976C245.159 906.44 268.132 915.556 308.12 905.656C332.513 899.375 355.436 888.37 375.592 873.265C393.185 860.379 401.407 845.419 409.27 830.282C418.318 812.849 424.892 795.091 436.728 775.048C463.76 729.28 503.326 705.227 511.923 684.865C540.424 666.437 568.398 655.327 595.789 652.631C616.366 650.608 633.633 655.941 644.782 651.672C718.956 675.405 732.199 702.115 803.407 689.693C832.813 684.629 862.961 668.932 886.819 655.532L898.947 648.576C944.242 622.557 961.305 599.346 1004.85 571.416C1040.57 548.469 1067.95 548.015 1100.62 539.222C1112.78 535.966 1124.7 531.881 1136.3 526.996C1190.78 504.388 1209.35 487.05 1235.44 455.954C1256.5 430.896 1280.08 399.331 1316.93 357.17C1355.54 311.803 1398.12 269.968 1444.16 232.159" stroke="#4A0305" stroke-width="1.0516" stroke-miterlimit="10"/>
<path d="M-114.953 904.965C-67.6059 895.46 -19.4114 890.818 28.8795 891.112C33.523 891.188 38.0668 890.951 42.5202 890.794C128.573 887.823 143.63 893.96 198.395 896.849C240.421 899.112 262.715 909.088 303.19 899.163C327.732 892.833 350.746 881.622 370.86 866.2C388.565 853.023 396.438 837.78 403.977 822.347C412.546 804.767 418.785 786.754 430.798 766.417C458.571 719.589 500.368 696.223 508.832 677.498C538.828 659.814 568.363 650.646 596.049 649.828C617.726 649.191 635.37 655.992 646.52 652.923C723.728 682.321 735.183 716.048 806.619 706.074C836.641 701.918 867.153 686.029 890.797 672.475C895.221 669.932 899.305 667.503 902.947 665.374C948.778 638.538 964.104 614.378 1007.71 584.983C1043.67 560.738 1070.73 560.317 1103.58 551.164C1115.77 547.704 1127.69 543.353 1139.25 538.147C1193.09 514.408 1211.46 495.109 1236.73 462.779C1257.19 436.601 1280.06 404.183 1316.95 361.731C1355.94 316.03 1399.6 274.525 1447.21 237.889" stroke="#4A0305" stroke-width="1.0516" stroke-miterlimit="10"/>
<path d="M-117.258 904.282C-70.6588 894.429 -23.2531 888.878 24.3617 887.699C28.9362 887.645 33.4371 887.263 37.8215 886.976C123.57 881.164 138.374 884.933 191.843 887.641C234.537 889.717 256.192 900.565 297.258 890.495C321.951 884.161 345.074 872.803 365.181 857.131C383.011 843.62 390.548 828.121 397.737 812.407C405.896 794.744 411.758 776.397 424.001 755.738C452.488 707.865 496.645 685.05 504.873 668.085C536.282 651.053 567.396 643.985 595.454 645.005C618.181 645.846 636.225 653.97 647.417 652.113C727.646 687.216 737.273 727.949 808.976 720.368C839.574 717.175 870.504 701.13 893.973 687.435C898.41 684.853 902.506 682.384 906.135 680.229C952.357 652.685 966.01 627.443 1009.72 596.595C1045.94 571.012 1072.75 570.756 1105.67 561.166C1117.9 557.503 1129.85 552.909 1141.38 547.423C1194.61 522.577 1212.73 501.306 1237.18 467.742C1257.09 440.522 1279.21 407.132 1316.17 364.441C1355.42 318.353 1400.04 277.131 1449.09 241.658" stroke="#4A0305" stroke-width="1.0516" stroke-miterlimit="10"/>
<path d="M-119.523 903.582C-73.6509 893.429 -27.0358 886.983 19.8707 884.307C24.4023 884.109 28.8066 883.545 33.1221 883.128C118.635 874.539 132.849 876.185 185.304 878.429C228.627 880.306 249.669 892.013 291.326 881.863C316.188 875.537 339.429 864.015 359.516 848.057C377.456 834.188 384.685 818.485 391.537 802.449C399.203 784.547 404.744 766.036 417.217 745.055C446.485 696.201 492.935 673.874 500.914 658.642C529.853 643.756 562.411 637.351 594.833 640.165C618.597 642.524 637.08 651.917 648.301 651.312C731.563 692.081 739.35 739.859 811.346 734.658C842.534 732.453 873.827 716.149 897.137 702.406C901.638 699.756 905.72 697.26 909.347 695.039C955.947 666.695 968.128 640.565 1011.86 608.134C1048.3 581.267 1074.91 581.121 1107.95 571.066C1119.43 567.555 1130.59 562.046 1143.65 556.598C1197.81 534.025 1214.17 507.415 1237.79 472.592C1257.07 444.174 1278.5 410.008 1315.53 367.052C1355.08 320.551 1400.69 279.57 1451.15 245.208" stroke="#4A0305" stroke-width="1.0516" stroke-miterlimit="10"/>
<path d="M-121.82 902.898C-76.6476 892.449 -30.814 885.096 15.3607 880.893C19.8355 880.525 24.1847 879.856 28.4435 879.269C113.462 867.606 127.656 867.261 178.76 869.221C222.777 870.897 243.036 883.518 285.415 873.219C310.479 866.875 333.87 855.172 353.976 838.917C372 824.703 378.907 808.771 385.436 792.438C392.571 774.417 397.829 755.622 410.532 734.32C440.485 684.303 489.297 662.593 497.067 649.172C527.414 635.086 561.257 630.317 594.315 635.47C619.025 639.364 638.012 650.024 649.248 650.645C735.543 697.079 741.465 751.915 813.767 749.12C845.557 747.864 877.202 731.342 900.417 717.481C904.93 714.791 909.037 712.217 912.638 710.01C959.68 680.864 970.134 653.614 1014.05 619.82C1050.77 591.601 1077.03 591.74 1110.29 581.101C1122.47 576.673 1134.4 571.601 1146.04 565.906C1199.53 541.885 1215.7 513.644 1238.53 477.574C1257.18 448.049 1277.93 413.016 1314.91 369.85C1354.75 322.996 1401.35 282.337 1453.16 249.211" stroke="#4A0305" stroke-width="1.0516" stroke-miterlimit="10"/>
<path d="M-124.117 902.212C-79.6125 891.483 -34.5509 883.212 10.8629 877.436C15.2688 876.938 19.5628 876.165 23.725 875.395C108.468 860.943 122.332 858.338 172.376 860.058C216.873 861.446 236.507 874.966 279.464 864.562C304.662 858.246 328.141 846.406 348.201 829.899C366.335 815.326 372.947 799.15 379.1 782.55C385.875 764.353 390.706 745.317 403.664 723.679C434.306 672.631 485.558 651.563 492.956 639.707C524.763 626.316 559.935 623.095 593.645 630.487C619.276 635.994 638.766 647.855 650.044 649.689C739.36 701.828 743.498 763.88 816.063 763.281C848.443 763.013 880.439 746.271 903.48 732.336C908.031 729.592 912.151 726.978 915.724 724.718C963.235 694.757 972.005 666.531 1016.04 631.271C1053.01 601.688 1079.03 602.057 1112.34 590.954C1124.58 586.385 1136.52 581.073 1148.11 575.047C1200.94 549.578 1216.91 519.707 1238.9 482.377C1257.01 451.744 1277.04 415.817 1314.14 372.491C1354.29 325.243 1401.89 284.865 1455.05 252.95" stroke="#4A0305" stroke-width="1.0516" stroke-miterlimit="10"/>
<path d="M-126.367 901.502C-75.7407 889.204 -29.5889 879.543 6.38754 874.035C10.7766 873.379 14.974 872.424 19.0687 871.59C103.451 854.126 117.056 849.457 165.638 850.684C210.949 851.908 230.048 866.244 273.518 855.801C298.875 849.488 322.462 837.488 342.496 820.711C360.727 805.754 367.07 789.387 372.86 772.478C379.157 754.134 383.652 734.842 396.841 712.882C428.222 660.775 481.822 640.298 489.026 630.28C522.288 617.624 558.73 615.956 593.01 625.519C619.536 632.654 640.163 644.08 650.914 648.761C750.739 692.4 745.512 775.821 818.393 777.457C851.351 778.217 883.762 761.189 906.63 747.178C911.22 744.381 915.311 741.714 918.897 739.415C966.773 708.694 973.885 679.478 1018.09 642.764C1055.3 611.817 1081.06 612.39 1114.49 600.757C1126.92 596.363 1138.91 590.807 1150.3 584.163C1201.18 554.954 1218.22 525.718 1239.43 487.166C1256.9 455.401 1276.19 418.635 1313.41 374.91C1353.91 327.262 1402.52 287.15 1456.98 256.428" stroke="#4A0305" stroke-width="1.0516" stroke-miterlimit="10"/>
<path d="M-128.688 900.83C-77.7454 887.932 -32.4472 877.288 1.85409 870.632C6.18638 869.806 10.3148 868.721 14.3406 867.757C98.4147 847.254 111.722 840.575 159.112 841.565C205.103 842.562 223.565 857.837 267.613 847.288C293.147 840.973 316.863 828.804 336.883 811.743C355.171 796.389 361.22 779.844 366.647 762.627C372.518 744.108 376.547 724.63 390.069 702.293C422.151 649.114 477.957 629.337 485.105 620.916C523.658 607.172 561.671 610.927 592.441 620.785C619.838 629.626 641.039 642.516 651.81 648.054C753.737 700.386 747.579 787.97 820.764 791.88C854.285 793.642 887.112 776.327 909.807 762.242C914.421 759.365 918.564 756.671 922.111 754.359C970.415 722.811 975.867 692.539 1020.19 654.424C1057.64 622.153 1083.15 622.955 1116.68 610.806C1129.16 606.218 1141.16 600.413 1152.5 593.474C1202.86 563.235 1219.59 531.962 1240 492.137C1256.85 459.265 1275.45 421.632 1312.78 377.614C1341.72 343.511 1386.65 299.342 1459 260.165" stroke="#4A0305" stroke-width="1.0516" stroke-miterlimit="10"/>
<path d="M-130.984 900.145C-79.7112 886.737 -35.3357 874.981 -2.64212 867.242C1.61967 866.22 5.67915 865.004 9.70494 864.04C93.2179 840.399 106.398 831.652 152.568 832.355C198.737 833.058 217.036 849.285 261.688 838.617C287.392 832.335 311.227 820.012 331.213 802.67C349.543 786.893 355.378 770.195 360.455 752.696C365.888 734.042 369.645 714.241 383.294 691.637C416.184 637.53 474.243 618.228 481.168 611.526C521.16 598.421 560.357 604.351 591.854 615.958C619.999 626.339 641.74 640.877 652.634 647.15C756.293 708.172 749.534 799.976 823.073 806.067C857.161 808.898 890.362 791.283 912.936 777.095C917.563 774.179 921.705 771.418 925.341 769.026C974.008 736.585 977.896 705.44 1022.31 665.846C1060.02 632.237 1085.3 633.256 1118.92 620.59C1131.46 615.817 1143.47 609.77 1154.77 602.545C1204.61 571.251 1220.97 537.968 1240.61 496.882C1256.84 462.904 1274.75 424.404 1312.19 380.093C1341.13 345.858 1386.7 301.714 1461.1 263.754" stroke="#4A0305" stroke-width="1.0516" stroke-miterlimit="10"/>
<path d="M-133.258 899.446C-81.7073 885.491 -38.2269 872.675 -7.12714 863.879C-2.92207 862.686 1.08223 861.366 4.95628 860.115C88.0567 833.491 101.071 822.73 146.035 823.171C193.332 823.61 210.479 840.748 255.748 829.986C281.634 823.736 305.595 811.243 325.54 793.598C343.899 777.372 349.519 760.52 354.261 742.766C359.228 723.925 362.637 703.907 376.528 680.942C410.037 625.673 468.89 603.083 477.214 602.11C520.15 597.021 558.987 597.736 591.264 611.132C620.173 623.143 642.555 639.143 653.604 646.468C758.678 716.081 751.599 812.257 825.518 820.514C860.157 824.387 893.746 806.435 916.161 792.198C920.852 789.213 924.98 786.427 928.525 784.05C977.675 750.886 979.824 718.66 1024.36 677.6C1062.29 642.641 1087.34 643.915 1121.08 630.719C1133.67 625.755 1145.69 619.467 1156.95 611.962C1206.28 579.638 1222.29 544.306 1241.11 501.987C1256.8 466.993 1273.95 427.494 1311.48 382.905C1340.39 348.552 1386.68 304.457 1463.06 267.651" stroke="#4A0305" stroke-width="1.0516" stroke-miterlimit="10"/>
<path d="M-135.555 898.76C-83.6319 884.375 -41.1829 870.304 -11.6648 860.411C-7.5302 859.022 -3.58106 857.598 0.250064 856.203C82.8706 826.53 95.7732 813.794 139.477 813.935C187.613 814.13 203.858 832.212 249.782 821.238C275.839 814.992 299.922 802.332 319.84 784.408C338.163 767.734 343.622 750.768 348.015 732.797C352.529 713.73 355.604 693.522 369.738 670.261C403.988 613.933 466.44 595.307 473.249 592.669C514.795 576.64 557.581 591.109 590.559 606.335C613.153 617.176 634.54 630.37 654.365 645.698C760.729 723.733 753.479 824.437 827.882 834.806C863.047 839.735 897.092 821.508 919.346 807.156C924.049 804.132 928.201 801.266 931.654 798.904C981.14 764.862 981.671 731.659 1026.4 689.196C1064.5 652.874 1089.42 654.455 1123.23 640.691C1135.87 635.534 1147.9 628.995 1159.1 621.195C1207.95 587.827 1223.49 550.41 1241.61 506.893C1256.57 470.65 1273.11 430.441 1310.79 385.571C1339.69 351.086 1386.61 307.03 1465.03 271.376" stroke="#4A0305" stroke-width="1.0516" stroke-miterlimit="10"/>
<path d="M-137.852 898.076C-85.7725 883.041 -44.1925 867.895 -16.1748 856.995C76.5291 820.916 88.5242 804.891 132.933 804.725C181.548 804.567 197.422 823.646 243.886 812.685C270.124 806.471 294.338 793.649 314.225 775.44C351.593 740.309 334.831 705.756 362.949 659.58C397.899 602.181 462.992 584.825 469.298 583.253C553.252 562.147 631.091 625.367 655.347 644.845C762.826 731.095 755.515 836.534 830.221 849.112C873.577 856.407 915.113 827.509 934.887 813.703C984.818 778.925 983.703 744.692 1028.51 700.751C1079 651.204 1105.78 669.845 1161.38 630.399C1250.01 567.356 1227.27 487.435 1310.01 388.253C1338.88 353.65 1386.49 309.63 1466.93 275.143" stroke="#4A0305" stroke-width="1.0516" stroke-miterlimit="10"/>
<path d="M-134.719 900.589C-83.4733 885.995 -42.2963 871.663 -14.1958 860.92C76.493 826.642 89.3356 810.768 133.55 810.739C181.365 810.77 197.376 828.977 242.866 818.632C268.605 812.641 292.47 800.394 312.345 782.976C350.092 749.946 334.241 715.978 362.23 671.071C396.693 615.397 459.406 597.767 466.484 595.387C532.646 572.995 598.048 615.248 631.558 638.531C638.407 643.277 643.836 647.607 647.968 650.623C753.512 730.26 747.139 831.233 819.862 841.958C863.249 848.303 904.957 818.847 925.686 804.702C944.708 791.79 961.053 775.32 973.819 756.199C987.213 737.399 998.814 718.047 1023.24 696.339C1030.74 689.703 1037.79 684.501 1044.14 679.869C1082.64 651.78 1106.56 658.092 1152.06 622.561C1169.68 608.861 1184.85 592.268 1196.92 573.489C1229.78 522.731 1234.13 460.389 1288.24 387.906C1291.42 383.647 1294.8 379.34 1298.41 374.983C1327.42 339.81 1375.49 294.645 1456.88 259.12" stroke="#4A0305" stroke-width="1.0516" stroke-miterlimit="10"/>
<path d="M-131.586 903.098C-81.2783 889.002 -40.5243 875.194 -12.2046 864.801C76.4032 832.325 90.0427 816.697 134.18 816.775C181.097 816.748 197.455 834.538 241.728 824.603C266.995 818.842 290.538 807.176 310.427 790.561C348.406 759.544 333.719 726.327 361.471 682.546C395.569 628.766 455.114 608.744 463.618 607.544C530.684 597.882 591.4 624.104 624.425 645.276C631.146 649.589 636.398 653.713 640.366 656.482C743.966 729.676 738.616 825.905 809.348 834.882C852.595 840.335 894.618 810.278 916.288 795.768C935.537 782.9 952.413 766.797 966.17 748.174C980.32 730.108 992.912 711.999 1017.83 692.033C1025.57 685.8 1032.95 681.091 1039.3 676.46C1077.67 648.439 1099.23 651.998 1142.54 614.79C1159.4 600.193 1173.87 583.035 1185.4 563.945C1216.52 514.112 1221.45 449.356 1276.42 374.954C1279.64 370.645 1283.05 366.241 1286.66 361.792C1315.77 326.062 1364.3 279.753 1446.66 243.15" stroke="#4A0305" stroke-width="1.0516" stroke-miterlimit="10"/>
<path d="M-128.461 905.611C-79.105 891.985 -38.7309 878.845 -10.2304 868.857C76.2811 838.091 90.811 822.759 134.792 822.92C180.84 822.953 197.46 840.103 240.768 830.613C265.532 825.052 288.704 813.923 308.526 798.07C346.552 769.095 333.161 736.56 360.73 694.01C394.408 642.021 451.063 620.76 460.768 619.624C515.033 613.862 569.744 625.165 617.283 651.958C623.874 655.839 628.976 659.742 632.768 662.304C734.263 728.875 730.14 820.618 798.8 827.89C842.026 832.42 884.259 801.751 906.898 786.929C926.357 774.061 943.752 758.316 958.489 740.231C973.446 722.871 987.07 706.017 1012.37 687.783C1020.44 681.978 1028.11 677.75 1034.46 673.119C1072.76 645.1 1091.88 646.052 1132.94 607.129C1148.99 591.631 1162.75 573.922 1173.8 554.537C1203.08 505.446 1208.88 438.468 1264.48 362.126C1267.7 357.752 1271.14 353.276 1274.78 348.699C1304.02 312.439 1353.03 264.971 1436.34 227.331" stroke="#4A0305" stroke-width="1.0516" stroke-miterlimit="10"/>
<path d="M-125.344 908.097C-76.9118 894.994 -36.9055 882.482 -8.20114 872.753C76.214 843.698 91.6604 828.648 135.395 828.972C180.562 829.105 197.52 845.509 239.668 836.6C263.994 831.31 286.877 820.786 306.727 805.761C345.051 778.797 332.705 746.976 360.104 705.616C393.252 655.209 449.33 638.59 457.966 631.782C518.955 613.731 578.061 641.573 610.214 658.704C616.663 662.127 621.575 665.797 625.386 668.081C724.868 728.08 721.876 815.154 788.412 820.683C831.669 824.262 874.048 793.05 897.653 777.849C917.346 764.982 935.269 749.593 950.966 732.074C966.758 715.406 981.349 699.875 1007.1 683.305C1015.45 677.915 1023.42 674.195 1029.83 669.535C1068.07 641.545 1084.69 639.785 1123.72 599.17C1140.25 581.945 1151.67 563.758 1162.57 544.779C1190.12 496.532 1196.47 427.128 1252.94 348.959C1256.15 344.524 1259.61 339.968 1263.32 335.293C1292.67 298.437 1342.14 249.824 1426.4 211.146" stroke="#4A0305" stroke-width="1.0516" stroke-miterlimit="10"/>
<path d="M-122.234 910.621C-74.8323 898.03 -35.1155 886.105 -6.19814 876.464C76.0548 849.121 92.3563 834.551 136.036 834.772C180.349 835.056 197.45 850.784 238.658 842.306C262.49 837.273 285.01 827.326 304.78 813.098C343.04 787.902 332.1 757.037 359.317 716.908C392.144 668.539 445.888 651.988 455.179 643.833C513.989 625.634 571.372 650.286 603.134 665.356C609.454 668.347 614.216 671.796 617.955 673.818C715.371 727.206 713.601 809.597 778.003 813.488C821.29 816.117 863.827 784.321 888.374 768.82C913.377 753.046 928.888 737.928 943.437 723.954C960.061 707.979 973.993 690.195 1001.78 678.853C1010.02 675.562 1017.83 671.261 1025.02 666.047C1063.24 638.07 1077.36 633.758 1114.26 591.306C1129.71 573.553 1140.41 554.71 1151.19 535.061C1177.06 487.737 1184 415.985 1241.23 335.847C1244.47 331.332 1247.95 326.688 1251.67 321.915C1281.14 284.529 1331.08 234.772 1416.3 195.016" stroke="#4A0305" stroke-width="1.0516" stroke-miterlimit="10"/>
<path d="M-119.094 913.159C-72.5253 901.009 -33.2805 889.768 -4.31559 880.468C75.864 854.69 93.1234 840.481 136.674 840.836C180.224 841.191 197.48 856.204 237.634 848.317C272.615 841.435 296.72 826.17 303.04 820.655C336.689 791.163 331.663 767.307 358.723 728.395C391.104 681.829 442.61 665.396 452.491 655.962C509.109 637.656 564.688 659.027 596.165 672.046C602.331 674.619 606.942 677.847 610.597 679.647C705.946 726.424 705.436 804.012 767.758 806.369C811.128 808.02 853.744 775.681 879.273 759.829C904.801 743.976 920.782 729.243 936.043 715.859C953.476 700.591 968.599 683.544 996.62 674.477C1005.11 671.811 1013.13 667.804 1020.36 662.609C1058.52 634.659 1070.19 627.78 1104.94 583.533C1119.33 565.237 1129.23 545.754 1139.78 525.622C1164.1 479.389 1171.54 405.068 1229.51 322.974C1232.75 318.388 1236.25 313.665 1240.02 308.803C1269.62 270.847 1320.02 219.945 1406.18 179.126" stroke="#4A0305" stroke-width="1.0516" stroke-miterlimit="10"/>
<path d="M-116 915.594C-70.328 904.019 -31.4632 893.446 -2.37569 884.315C75.6248 860.09 93.8574 846.333 137.251 846.771C179.855 847.228 197.464 861.586 236.588 854.211C270.736 847.77 294.579 833.711 301.045 828.22C334.325 799.857 330.958 777.624 357.889 739.914C389.81 695.126 439 678.919 449.52 668.046C503.959 649.593 557.559 667.542 588.901 678.731C593.701 680.71 598.396 682.933 602.968 685.392C696.199 725.585 697.012 798.303 757.112 799.234C800.577 799.868 843.259 766.961 869.77 750.822C895.252 735.26 912.25 720.556 928.263 707.774C946.529 693.198 962.94 677.071 991.062 670.085C999.835 668.049 1008.12 664.316 1015.46 659.098C1053.59 631.136 1062.8 621.757 1095.39 575.647C1108.76 556.795 1117.83 536.751 1128.21 515.977C1150.88 470.614 1158.93 393.97 1217.63 309.921C1220.88 305.265 1224.41 300.462 1228.21 295.511C1257.87 257.027 1308.78 204.951 1395.92 163.081" stroke="#4A0305" stroke-width="1.0516" stroke-miterlimit="10"/>
<path d="M-112.898 918.054C-68.1919 906.923 -29.7623 896.914 -0.401924 888.172C75.421 865.568 94.6129 852.237 137.981 852.688C179.729 853.23 197.559 866.871 235.614 859.997C269.084 853.914 292.535 841.13 299.25 835.606C332.229 808.437 330.584 787.694 357.241 751.23C388.716 708.246 435.734 692.156 446.819 680.082C499.052 661.496 550.76 676.311 581.892 685.277C586.563 686.95 591.138 688.882 595.596 691.063C686.746 724.618 688.856 792.414 746.761 791.973C790.334 791.615 833.084 758.205 860.549 741.727C886.349 726.198 904.038 711.728 920.778 699.562C940.731 685.207 962.624 673.76 985.799 665.566C995.59 661.883 1004.51 660.092 1010.86 655.632C1048.92 627.672 1055.7 615.843 1086.12 567.846C1098.37 548.519 1106.7 527.767 1116.96 506.389C1138.16 462.076 1146.61 382.917 1206.14 296.857C1209.39 292.166 1212.96 287.243 1216.81 282.169C1246.59 243.048 1298.02 189.866 1386.03 147" stroke="#4A0305" stroke-width="1.0516" stroke-miterlimit="10"/>
<path d="M-108.987 921.719C-65.2321 911.059 -27.1426 901.73 2.34188 893.223C75.8678 872.202 96.019 859.297 139.116 859.992C180.035 860.606 198.073 873.57 235.098 867.207C267.631 861.622 290.884 849.976 297.863 844.446C330.633 818.521 330.474 799.259 357.052 763.972C388.056 722.805 432.848 706.859 444.523 693.505C494.629 674.745 544.125 686.328 575.33 693.354C579.873 694.716 584.331 696.342 588.683 698.225C677.546 725.254 681.198 787.963 736.87 786.202C780.604 784.826 823.369 750.94 851.815 734.11C877.894 718.666 896.3 704.417 913.766 692.867C933.674 679.691 954.163 671.076 981.088 662.523C991.285 659.292 1000.42 657.958 1006.67 653.381C1044.68 625.448 1049.05 611.158 1077.28 561.221C1088.46 541.391 1095.99 520.024 1106.08 498.005C1125.86 454.779 1134.71 373.106 1194.86 285.119C1198.12 280.322 1201.7 275.36 1205.59 270.166C1235.52 230.567 1287.3 176.23 1376.35 132.245" stroke="#4A0305" stroke-width="1.0516" stroke-miterlimit="10"/>
<path d="M-101.742 932.324C-58.9254 922.16 -21.2712 913.396 8.43252 905.239C79.882 885.651 101.062 873.302 143.933 873.95C183.997 874.65 202.284 886.949 238.265 881.072C269.964 875.928 292.915 865.476 300.184 859.926C332.773 835.298 334.097 817.452 360.52 783.381C390.983 743.902 433.632 728.256 445.896 713.557C493.827 694.848 540.801 708.534 572.45 708.019C577.635 709.81 582.018 711.158 585.386 711.977C672.024 732.411 677.247 790.086 730.634 787.034C774.528 784.572 817.307 750.212 846.722 733.069C873.08 717.711 892.203 703.683 910.368 692.696C931.11 680.213 952.874 673.125 979.834 666.087C990.437 663.307 999.779 662.43 1005.99 657.841C1043.97 629.922 1045.99 613.313 1071.94 561.346C1082.11 541.052 1088.83 519.045 1098.73 496.357C1117.12 454.232 1126.33 370.005 1187.21 280.063C1190.5 275.23 1194.1 270.166 1198.01 264.871C1228.14 224.832 1280.46 169.309 1370.44 124.432" stroke="#4A0305" stroke-width="1.0516" stroke-miterlimit="10"/>
<path d="M-95.0345 941.78C-53.0772 932.071 -15.8443 923.897 14.0509 916.039C83.306 897.914 105.632 886.092 148.272 886.996C187.467 887.756 206.002 899.389 240.927 894.038C271.779 889.309 294.373 879.947 302.012 874.467C334.475 851.174 337.243 834.732 363.613 801.822C393.724 764.197 434.015 748.633 446.894 732.641C492.552 713.668 537.764 724.784 569.142 721.678C573.272 722.943 577.475 723.959 581.727 724.721C666.09 738.655 672.823 790.994 724.01 786.872C768.089 783.311 810.832 748.503 841.229 731.073C867.878 715.762 887.718 701.954 906.611 691.65C928.186 679.858 951.279 674.335 978.326 668.719C989.323 666.432 998.885 665.971 1005.03 661.252C1042.92 633.349 1042.57 614.289 1066.3 560.396C1075.35 539.693 1081.39 517.016 1091.02 493.701C1108.05 452.729 1117.55 365.911 1179.15 273.987C1182.36 268.954 1186.06 263.923 1190.03 258.556C1220.18 217.804 1272.94 161.282 1363.87 115.104" stroke="#4A0305" stroke-width="1.0516" stroke-miterlimit="10"/>
<path d="M-88.1891 951.168C-47.1956 941.969 -10.3581 934.371 19.7042 926.892C86.7235 910.15 109.922 898.967 152.549 899.911C190.889 900.757 209.673 911.725 243.554 906.86C273.624 902.545 294.761 892.32 303.793 888.905C340.368 875.142 340.327 851.881 366.45 820.27C396.078 784.568 434.155 769.043 447.636 751.731C491.115 732.611 534.459 741.081 565.695 735.314C569.712 736.301 573.791 737.016 577.903 737.456C659.952 744.877 668.262 791.878 717.338 786.605C761.562 781.934 804.322 746.717 835.7 728.934C862.654 713.695 883.199 700.147 902.805 690.433C925.214 679.334 949.611 675.455 976.783 671.274C988.2 669.465 997.918 669.423 1004.14 664.86C1041.99 636.944 1039.32 615.512 1060.74 559.642C1068.88 538.42 1074.03 515.144 1083.53 491.133C1099.17 451.367 1109.03 361.89 1171.29 267.881C1174.6 262.924 1178.23 257.666 1182.18 252.106C1212.44 210.798 1265.64 153.013 1357.55 105.875" stroke="#4A0305" stroke-width="1.0516" stroke-miterlimit="10"/>
<path d="M-81.3924 960.607C-41.2816 952.01 -4.96049 944.886 25.3333 937.717C90.1167 922.36 114.345 911.799 156.83 912.851C194.301 913.757 213.277 923.956 246.227 919.851C275.49 915.963 296.24 906.71 305.621 903.511C341.777 891.037 343.457 869.2 369.45 838.792C398.523 804.751 434.484 789.513 448.541 770.895C489.828 751.668 531.433 757.356 562.229 749.121C566.136 749.835 570.091 750.25 574.06 750.362C653.756 751.324 663.799 792.904 710.426 786.66C754.898 780.756 797.571 745.185 829.905 727.13C857.15 711.936 878.426 698.636 898.759 689.537C922.001 679.131 947.73 676.948 974.918 673.993C986.756 672.728 996.681 673.076 1002.86 668.501C1040.67 640.613 1035.73 616.808 1054.9 558.894C1062.03 537.207 1066.39 513.316 1075.66 488.626C1090.15 449.967 1100.12 357.93 1163.21 262.147C1166.51 257.086 1170.2 251.8 1174.26 246.289C1204.67 204.438 1258.3 145.521 1351.19 97.3325" stroke="#4A0305" stroke-width="1.0516" stroke-miterlimit="10"/>
<path d="M-74.601 970.023C-35.5752 961.833 0.45784 955.362 30.9708 948.544C93.569 934.477 118.79 924.658 161.105 925.767C197.747 926.745 217.015 936.423 248.852 932.673C277.281 929.228 297.645 920.946 307.4 917.949C343.181 906.908 346.525 886.325 372.376 857.159C400.963 824.91 434.712 809.842 449.372 789.904C488.48 770.53 528.138 773.614 558.793 762.718C562.591 763.146 566.418 763.251 570.233 763.032C647.475 757.721 659.229 793.526 703.634 786.424C748.039 779.321 790.983 743.507 824.27 725.047C851.78 709.913 873.774 696.833 894.885 688.323C918.935 678.623 945.913 677.98 973.28 676.498C985.54 675.777 995.644 676.464 1001.81 671.929C1039.55 644.042 1032.41 617.901 1049.09 558.001C1055.28 535.848 1058.84 511.344 1067.88 485.946C1081.15 448.53 1091.31 353.824 1155.04 255.969C1158.35 250.881 1162.1 245.558 1166.12 239.794C1196.53 197.31 1250.64 137.235 1344.55 88.1126" stroke="#4A0305" stroke-width="1.0516" stroke-miterlimit="10"/>
<path d="M-67.8307 979.413C-29.6646 971.678 5.88119 965.798 36.5995 959.306C96.8562 946.612 123.187 937.439 165.36 938.657C201.146 939.721 220.7 948.68 251.374 945.38C279.022 942.348 299 935.038 309.102 932.257C344.465 922.504 349.504 903.359 375.251 875.382C403.313 844.913 434.878 830.066 450.088 808.837C486.977 789.304 524.793 789.727 555.203 776.227C558.913 776.357 562.628 776.165 566.305 775.651C641.381 763.983 654.637 794.055 696.807 786.135C741.669 777.69 784.249 741.568 818.6 722.912C846.362 707.811 869.086 694.978 890.872 687.111C915.755 678.104 944.082 679.316 971.489 678.98C984.226 678.907 994.441 679.868 1000.6 675.307C1038.32 647.46 1028.97 618.958 1043.24 557.031C1048.45 534.426 1051.36 509.369 1059.99 483.217C1072.11 447.014 1082.41 349.668 1146.85 249.831C1150.19 244.664 1153.9 239.184 1157.99 233.391C1188.64 190.479 1243.2 129.233 1338.01 78.9295" stroke="#4A0305" stroke-width="1.0516" stroke-miterlimit="10"/>
<path d="M-61.016 988.877C-23.7877 981.639 11.3091 976.297 42.2604 970.182C100.252 958.754 127.668 950.308 169.686 951.674C204.59 952.772 224.354 961.119 254.036 958.277C273.293 956.087 292.325 952.237 310.919 946.77C345.85 938.28 352.583 920.572 378.214 893.825C405.751 865.134 435.219 850.297 451.008 827.894C485.719 808.28 521.691 805.977 551.87 789.897C555.479 789.728 559.065 789.224 562.582 788.394C635.113 770.535 650.141 794.632 690.039 785.948C735.106 776.127 777.987 740.445 812.949 720.865C840.74 705.316 864.445 693.264 886.969 685.974C912.608 677.701 942.32 680.647 969.809 681.535C982.899 681.942 993.376 683.332 999.507 678.785C1037.16 650.939 1025.67 620.101 1037.5 556.133C1041.75 533.103 1043.81 507.394 1052.24 480.547C1063.19 445.597 1073.61 345.585 1138.77 243.767C1142.16 238.637 1145.84 232.987 1149.96 227.102C1180.71 183.567 1235.75 121.203 1331.51 69.8611" stroke="#4A0305" stroke-width="1.0516" stroke-miterlimit="10"/>
<path d="M-54.2155 998.319C-17.7948 991.509 16.735 986.734 47.8656 980.957C103.565 970.743 132.053 963.063 173.955 964.525C207.938 965.71 227.99 973.405 256.603 971.062C275.542 969.254 294.317 966.004 312.762 961.339C347.285 954.032 355.676 937.814 381.217 912.349C408.201 885.385 435.463 870.916 451.917 847.06C484.435 827.273 518.565 822.31 548.472 803.639C551.983 803.155 555.442 802.35 558.806 801.235C629.019 777.232 645.698 795.251 683.325 785.868C728.582 774.579 771.394 738.767 807.378 718.913C835.474 703.435 859.87 691.618 883.12 684.943C909.646 677.336 940.561 682.113 968.209 684.184C981.657 685.202 992.365 686.904 998.47 682.37C1036.09 654.513 1022.46 621.337 1031.78 555.358C1035.11 531.848 1036.44 505.562 1044.54 478.024C1054.43 444.3 1064.9 341.622 1130.8 237.783C1134.15 232.509 1137.92 226.843 1142.08 220.838C1172.97 176.76 1228.52 113.223 1325.17 60.8455" stroke="#4A0305" stroke-width="1.0516" stroke-miterlimit="10"/>
<path d="M-47.4458 1007.78C-12.081 1001.49 22.1561 997.172 53.5351 991.864C106.877 982.932 136.543 975.963 178.276 977.547C211.456 978.79 231.745 985.926 259.273 983.991C277.832 982.446 296.269 979.682 314.464 975.714C348.592 969.551 358.667 954.876 384.014 930.681C410.498 905.483 435.576 891.237 452.619 866.035C482.945 846.141 515.219 838.491 544.893 817.175C548.308 816.387 551.642 815.281 554.85 813.87C622.771 783.776 640.928 795.576 676.39 785.57C721.823 772.787 764.58 736.872 801.614 716.794C829.975 701.377 855.088 689.78 879.065 683.722C906.424 676.806 938.595 683.388 966.376 686.656C980.221 688.297 991.093 690.246 997.225 685.764C1034.79 657.934 1019.09 622.354 1025.89 554.377C1028.28 530.427 1028.99 503.536 1036.62 475.31C1045.56 442.795 1056.04 337.611 1122.61 231.646C1125.95 226.307 1129.75 220.561 1133.96 214.463C1164.97 169.855 1220.92 105.174 1318.64 51.796" stroke="#4A0305" stroke-width="1.0516" stroke-miterlimit="10"/>
<path d="M-40.6389 1017.22C-6.1981 1011.45 27.6268 1007.55 59.2019 1002.74C110.354 994.901 141.004 988.845 182.58 990.512C214.918 991.802 235.415 998.259 261.901 996.877C280.137 995.691 298.291 993.462 316.272 990.201C350.005 985.181 361.698 972.051 387.047 949.056C412.978 925.585 435.912 911.573 453.571 885.078C481.718 865.037 512.136 854.701 541.591 830.832C544.865 829.621 548.06 828.207 551.158 826.6C618.888 794.505 636.459 795.942 669.734 785.394C715.26 770.96 757.794 734.562 796.075 714.759C824.883 699.871 850.571 688.037 875.274 682.595C903.467 676.372 936.855 684.81 964.808 689.222C979.049 691.487 990.152 693.747 996.245 689.253C1033.78 661.437 1016.03 623.504 1020.26 553.557C1021.73 529.127 1021.71 501.686 1028.98 472.651C1036.8 441.427 1047.35 333.407 1114.56 225.634C1117.94 220.202 1121.74 214.394 1125.99 208.212C1157.08 162.995 1213.53 97.1822 1312.16 42.6881" stroke="#4A0305" stroke-width="1.0516" stroke-miterlimit="10"/>
<path d="M-33.8518 1026.63C-0.362594 1021.34 33.0118 1017.91 64.8214 1013.54C113.692 1006.81 145.404 1001.63 186.852 1003.43C218.32 1004.78 239.053 1010.61 264.522 1009.7C288.107 1008.89 305.976 1006.09 318.074 1004.69C351.41 1000.75 364.736 989.19 390.01 967.501C412.821 947.788 434.338 926.623 454.425 904.14C476.727 879.989 500.255 855.256 538.153 844.495C541.472 843.288 544.575 841.555 547.343 839.362C610.895 797.238 631.839 796.287 662.979 785.236C708.569 769.034 751.161 732.805 790.463 712.728C819.627 697.819 845.955 686.313 871.371 681.46C900.441 676.074 935.016 686.252 963.141 691.806C977.754 694.709 989.1 697.24 995.179 692.72C1032.63 664.919 1012.87 624.581 1014.44 552.704C1014.99 527.795 1014.35 499.815 1021.14 470.066C1027.94 440.316 1038.67 329.496 1106.39 219.588C1109.79 214.156 1113.7 208.183 1117.89 201.927C1149.13 156.166 1206.01 89.2222 1305.63 33.6369" stroke="#4A0305" stroke-width="1.0516" stroke-miterlimit="10"/>
<path d="M-27.0582 1036.07C5.49313 1031.28 38.3465 1028.13 70.5148 1024.43C117.078 1018.83 149.891 1014.53 191.17 1016.45C221.9 1017.79 242.765 1023.05 267.164 1022.64C289.955 1022.28 307.565 1020.26 319.869 1019.18C352.835 1016.3 367.727 1006.32 392.952 985.922C417.736 965.893 432.435 949.305 455.285 923.229C475.862 899.725 502.313 883.284 534.733 858.145C537.712 855.834 540.891 854.217 543.559 852.137C604.993 803.997 627.185 796.582 656.217 785.079C701.776 766.992 744.559 731.062 784.818 710.712C814.273 695.849 841.333 684.589 867.448 680.301C897.296 675.503 933.103 687.63 961.44 694.34C976.423 697.88 988.118 700.627 994.067 696.176C1031.46 668.403 1009.71 625.619 1008.68 551.68C1008.34 526.277 1007.13 497.796 1013.38 467.268C1019.28 438.529 1029.92 325.259 1098.33 213.383C1101.75 207.87 1105.58 201.873 1109.88 195.456C1141.24 149.165 1198.61 81.0625 1299.14 24.4274" stroke="#4A0305" stroke-width="1.0516" stroke-miterlimit="10"/>
<path d="M-20.1433 1045.42C11.4701 1041.12 43.9389 1038.44 76.2344 1035.11C120.528 1030.57 154.35 1027.11 195.542 1029.25C225.298 1030.7 246.53 1035.27 269.899 1035.37C291.842 1035.42 309.075 1034.2 321.744 1033.5C354.365 1031.67 370.823 1023.26 396.013 1004.18C420.191 985.841 433.231 969.963 456.281 942.248C475.21 919.349 499.676 900.357 531.435 871.766C534.264 869.234 537.315 867.184 539.911 864.843C599.292 810.684 625.267 801.533 649.59 784.852C691.137 756.649 734.487 731.199 779.362 708.664C809.094 693.821 836.859 682.822 863.806 679.16C894.488 675.055 931.46 689.067 959.942 696.934C975.27 701.125 987.117 704.159 993.158 699.693C1030.51 671.907 1006.75 626.717 1003.19 550.951C1001.97 525.081 1000.25 496.072 1005.89 464.767C1010.85 437.289 1021.36 321.318 1090.5 207.487C1093.92 201.908 1097.69 195.873 1102.13 189.321C1133.61 142.434 1191.41 73.2005 1292.93 15.5401" stroke="#4A0305" stroke-width="1.0516" stroke-miterlimit="10"/>
<path d="M-14.9852 1052.06C15.6904 1048.26 47.7055 1045.92 80.3428 1043.11C122.365 1039.57 157.267 1037.2 198.392 1039.28C227.251 1040.67 248.787 1044.75 271.099 1045.31C292.223 1045.83 309.104 1045.4 322.045 1045.02C354.385 1044.17 372.331 1037.37 397.486 1019.61C421.084 1002.95 432.613 987.869 455.604 958.217C472.924 935.87 495.565 914.375 526.491 882.322C529.182 879.529 532.04 877.116 534.576 874.472C591.985 814.32 618.467 797.496 641.304 781.6C683.019 752.482 726.764 726.386 772.205 703.514C802.203 688.731 830.698 677.978 858.268 674.988C889.837 671.614 927.907 687.446 956.662 696.269C972.309 701.126 984.361 704.484 990.466 699.95C1027.76 672.166 1002.06 624.53 995.807 546.822C993.675 520.433 991.548 490.905 996.497 458.865C1000.57 432.594 1010.93 313.963 1080.79 198.15C1084.21 192.506 1088.11 186.336 1092.5 179.746C1124.08 132.302 1182.37 61.91 1284.83 3.18596" stroke="#4A0305" stroke-width="1.0516" stroke-miterlimit="10"/>
<path d="M-11.5772 1055.3C18.1605 1051.99 49.7328 1049.88 82.479 1047.79C122.23 1045.25 158.26 1043.75 199.062 1046.09C227.119 1047.62 248.838 1051.03 270.092 1052.05C290.422 1053.02 306.925 1053.32 320.246 1053.41C352.306 1053.54 371.726 1048.33 396.834 1031.93C419.837 1016.92 430.056 1002.77 452.857 971.18C468.649 949.475 489.501 925.358 519.451 889.886C522.044 886.846 524.735 884.053 527.159 881.135C582.671 814.883 609.41 790.418 630.934 775.318C672.855 745.949 719.693 716.544 762.966 695.398C793.227 680.609 822.442 670.143 850.764 667.754C883.113 665.035 922.335 682.792 951.449 692.859C967.455 698.393 979.827 701.916 985.828 697.437C1023.1 669.693 995.43 619.571 986.531 539.96C983.504 513.077 981.036 483.03 985.189 450.243C988.403 425.193 998.601 303.915 1069.18 186.121C1072.64 180.423 1076.53 174.161 1080.95 167.451C1112.67 119.463 1171.4 47.9404 1274.8 -11.9132" stroke="#4A0305" stroke-width="1.0516" stroke-miterlimit="10"/>
<path d="M-8.12653 1058.27C20.6857 1055.42 51.8411 1053.54 84.8019 1052.16C123.194 1050.29 161.659 1050.43 200.036 1052.58C227.264 1054.18 249.102 1057.06 269.416 1058.44C288.928 1059.95 305.065 1060.94 318.724 1061.42C350.543 1062.55 371.399 1058.91 396.472 1043.9C418.893 1030.49 427.963 1017.38 450.401 983.787C464.659 962.462 483.845 935.891 512.728 897.082C515.183 893.781 517.707 890.61 520.059 887.43C573.649 815.09 599.679 781.727 620.855 768.679C665.135 741.497 709.722 708.281 754.044 686.913C784.569 672.118 814.53 661.99 843.564 660.192C876.747 658.165 917.138 677.938 946.513 689.068C962.812 695.281 975.48 699.047 981.495 694.594C1018.69 666.826 988.996 614.271 977.507 532.73C972.671 502.466 971.538 471.726 974.131 441.189C976.488 417.292 986.507 293.408 1057.78 173.646C1061.23 167.882 1065.15 161.54 1069.62 154.737C1101.45 106.193 1160.66 33.5109 1265.04 -27.3281" stroke="#4A0305" stroke-width="1.0516" stroke-miterlimit="10"/>
<path d="M-4.81595 1061.12C63.5921 1055.37 132.331 1054.64 200.845 1058.96C311.076 1065.94 348.413 1081.45 395.931 1055.73C430.53 1036.97 430.901 1017.83 505.799 904.155C562.128 818.657 590.341 775.999 610.61 761.931C683.585 711.649 762.658 655.369 836.185 652.493C889.186 650.412 960.125 703.877 976.871 691.407C1026.49 654.395 953.724 568.574 962.905 431.957C964.431 409.201 974.258 282.75 1046.25 161.006C1074.2 113.753 1134.93 27.6251 1255.11 -42.9849" stroke="#4A0305" stroke-width="1.0516" stroke-miterlimit="10"/>
</svg>
