<svg width="40" height="40" viewBox="0 0 40 40" fill="none" xmlns="http://www.w3.org/2000/svg">
<rect width="40" height="40" rx="8" fill="#630307"/>
<path d="M20.1625 19.62C20.1325 19.62 20.1125 19.62 20.0825 19.62C20.0325 19.61 19.9625 19.61 19.9025 19.62C17.0025 19.53 14.8125 17.25 14.8125 14.44C14.8125 11.58 17.1425 9.25 20.0025 9.25C22.8625 9.25 25.1925 11.58 25.1925 14.44C25.1825 17.25 22.9825 19.53 20.1925 19.62C20.1825 19.62 20.1725 19.62 20.1625 19.62ZM20.0025 10.75C17.9725 10.75 16.3125 12.41 16.3125 14.44C16.3125 16.44 17.8725 18.05 19.8625 18.12C19.9125 18.11 20.0525 18.11 20.1825 18.12C22.1425 18.03 23.6825 16.42 23.6925 14.44C23.6925 12.41 22.0325 10.75 20.0025 10.75Z" fill="#CFBFBF"/>
<path d="M20.1716 30.55C18.2116 30.55 16.2416 30.05 14.7516 29.05C13.3616 28.13 12.6016 26.87 12.6016 25.5C12.6016 24.13 13.3616 22.86 14.7516 21.93C17.7516 19.94 22.6116 19.94 25.5916 21.93C26.9716 22.85 27.7416 24.11 27.7416 25.48C27.7416 26.85 26.9816 28.12 25.5916 29.05C24.0916 30.05 22.1316 30.55 20.1716 30.55ZM15.5816 23.19C14.6216 23.83 14.1016 24.65 14.1016 25.51C14.1016 26.36 14.6316 27.18 15.5816 27.81C18.0716 29.48 22.2716 29.48 24.7616 27.81C25.7216 27.17 26.2416 26.35 26.2416 25.49C26.2416 24.64 25.7116 23.82 24.7616 23.19C22.2716 21.53 18.0716 21.53 15.5816 23.19Z" fill="#CFBFBF"/>
</svg>
