<svg width="40" height="40" viewBox="0 0 40 40" fill="none" xmlns="http://www.w3.org/2000/svg">
<rect width="40" height="40" rx="20" fill="white"/>
<path d="M23.22 14.55H13.78C13.5 14.55 13.24 14.56 13 14.57C10.63 14.71 10 15.58 10 18.28V18.86C10 19.41 10.45 19.86 11 19.86H26C26.55 19.86 27 19.41 27 18.86V18.28C27 15.3 26.24 14.55 23.22 14.55Z" fill="#AF060D"/>
<path d="M11 21.36C10.45 21.36 10 21.81 10 22.36V25.27C10 28.25 10.76 29 13.78 29H23.22C26.19 29 26.97 28.28 27 25.43V22.36C27 21.81 26.55 21.36 26 21.36H11ZM14.96 26.56H13.25C12.84 26.56 12.5 26.22 12.5 25.81C12.5 25.4 12.84 25.06 13.25 25.06H14.97C15.38 25.06 15.72 25.4 15.72 25.81C15.72 26.22 15.38 26.56 14.96 26.56ZM20.55 26.56H17.11C16.7 26.56 16.36 26.22 16.36 25.81C16.36 25.4 16.7 25.06 17.11 25.06H20.55C20.96 25.06 21.3 25.4 21.3 25.81C21.3 26.22 20.97 26.56 20.55 26.56Z" fill="#AF060D"/>
<path d="M30.0016 21.33V16.09C30.0016 12.96 28.2116 11.6 25.5116 11.6H16.5816C15.8216 11.6 15.1416 11.71 14.5416 11.94C14.0716 12.11 13.6516 12.36 13.3116 12.69C13.1316 12.86 13.2716 13.14 13.5316 13.14H24.4016C26.6516 13.14 28.4716 14.96 28.4716 17.21V24.38C28.4716 24.63 28.7416 24.77 28.9216 24.59C29.6116 23.86 30.0016 22.79 30.0016 21.33Z" fill="#AF060D"/>
</svg>
