<svg width="24" height="25" viewBox="0 0 24 25" fill="none" xmlns="http://www.w3.org/2000/svg">
<path d="M14.5319 9.96992L9.47188 15.0299C8.82188 14.3799 8.42188 13.4899 8.42188 12.4999C8.42188 10.5199 10.0219 8.91992 12.0019 8.91992C12.9919 8.91992 13.8819 9.31992 14.5319 9.96992Z" stroke="#292D32" stroke-width="1.5" stroke-linecap="round" stroke-linejoin="round"/>
<path d="M17.8237 6.27047C16.0737 4.95047 14.0737 4.23047 12.0037 4.23047C8.47375 4.23047 5.18375 6.31047 2.89375 9.91047C1.99375 11.3205 1.99375 13.6905 2.89375 15.1005C3.68375 16.3405 4.60375 17.4105 5.60375 18.2705" stroke="#292D32" stroke-width="1.5" stroke-linecap="round" stroke-linejoin="round"/>
<path d="M8.42188 20.0297C9.56187 20.5097 10.7719 20.7697 12.0019 20.7697C15.5319 20.7697 18.8219 18.6897 21.1119 15.0897C22.0119 13.6797 22.0119 11.3097 21.1119 9.89969C20.7819 9.37969 20.4219 8.88969 20.0519 8.42969" stroke="#292D32" stroke-width="1.5" stroke-linecap="round" stroke-linejoin="round"/>
<path d="M15.5075 13.2002C15.2475 14.6102 14.0975 15.7602 12.6875 16.0202" stroke="#292D32" stroke-width="1.5" stroke-linecap="round" stroke-linejoin="round"/>
<path d="M9.47 15.0303L2 22.5003" stroke="#292D32" stroke-width="1.5" stroke-linecap="round" stroke-linejoin="round"/>
<path d="M22.0013 2.5L14.5312 9.97" stroke="#292D32" stroke-width="1.5" stroke-linecap="round" stroke-linejoin="round"/>
</svg>
