<svg width="48" height="49" viewBox="0 0 48 49" fill="none" xmlns="http://www.w3.org/2000/svg">
<rect y="0.5" width="48" height="48" rx="24" fill="#F8F7F7"/>
<path d="M32.5843 23.8676C32.0663 22.7033 31.3153 21.6573 30.3776 20.7943L29.5976 20.0876C29.5716 20.0635 29.54 20.0462 29.5056 20.0374C29.4713 20.0286 29.4352 20.0285 29.4008 20.0371C29.3664 20.0457 29.3347 20.0627 29.3085 20.0867C29.2823 20.1106 29.2626 20.1408 29.251 20.1743L28.9043 21.1676C28.6425 21.8682 28.2436 22.5096 27.731 23.0543C27.7036 23.0851 27.6654 23.1042 27.6243 23.1076C27.6025 23.1114 27.5802 23.1097 27.5592 23.1028C27.5383 23.0958 27.5194 23.0837 27.5043 23.0676C27.4705 23.0341 27.4513 22.9886 27.451 22.9409C27.4703 21.046 26.9675 19.1823 25.9976 17.5543C25.1795 15.9765 23.9373 14.6582 22.411 13.7476L21.331 13.1009C21.2979 13.0818 21.2603 13.0719 21.2221 13.0723C21.1839 13.0726 21.1465 13.0832 21.1138 13.103C21.0811 13.1228 21.0543 13.1509 21.0362 13.1846C21.0181 13.2182 21.0094 13.2561 21.011 13.2943L21.071 14.5743C21.1247 15.3511 21.0227 16.1308 20.771 16.8676C20.265 18.2141 19.392 19.3919 18.251 20.2676C17.1302 21.1339 16.2188 22.2412 15.5843 23.5076C14.9498 24.7861 14.619 26.1937 14.6176 27.6209C14.6054 28.8659 14.8481 30.1001 15.331 31.2476C16.3212 33.5269 18.1692 35.3245 20.4749 36.2515C22.7806 37.1785 25.3586 37.1604 27.651 36.2009C29.8996 35.2635 31.6968 33.4902 32.6643 31.2543C33.1625 30.085 33.4143 28.8256 33.404 27.5547C33.3936 26.2838 33.1214 25.0286 32.6043 23.8676H32.5843ZM29.331 32.9143C27.9034 34.3246 25.9776 35.1154 23.971 35.1154C21.9643 35.1154 20.0385 34.3246 18.611 32.9143C17.5045 31.8136 16.7725 30.3925 16.5188 28.8525C16.2651 27.3125 16.5026 25.7317 17.1976 24.3343C17.7035 23.3103 18.4325 22.4127 19.331 21.7076C19.9084 21.2659 20.4319 20.758 20.891 20.1943C21.5499 19.3955 22.0746 18.4949 22.4443 17.5276C22.5916 17.1258 22.6987 16.7105 22.7643 16.2876C23.4256 16.9063 23.9777 17.632 24.3976 18.4343C25.201 19.7658 25.623 21.2925 25.6176 22.8476C25.6035 23.1248 25.6473 23.402 25.7462 23.6613C25.845 23.9207 25.9968 24.1567 26.1918 24.3542C26.3869 24.5517 26.6209 24.7065 26.879 24.8087C27.137 24.9108 27.4136 24.9581 27.691 24.9476C27.9463 24.9303 28.1956 24.8624 28.4245 24.748C28.6533 24.6335 28.8572 24.4748 29.0243 24.2809C29.3881 23.9049 29.7141 23.494 29.9976 23.0543C30.3732 23.5305 30.6868 24.0525 30.931 24.6076C31.5413 25.9905 31.7151 27.5267 31.4292 29.011C31.1433 30.4953 30.4113 31.857 29.331 32.9143Z" fill="black"/>
<path d="M25.7115 30.9399C25.6073 30.71 25.4576 30.5036 25.2715 30.3333L25.1181 30.1933C25.1145 30.1878 25.1095 30.1832 25.1037 30.1801C25.0979 30.177 25.0914 30.1754 25.0848 30.1754C25.0782 30.1754 25.0717 30.177 25.0659 30.1801C25.0601 30.1832 25.0551 30.1878 25.0515 30.1933L24.9781 30.3933C24.9293 30.5336 24.8495 30.6612 24.7448 30.7666C24.7417 30.3745 24.6235 29.992 24.4048 29.6666C24.2436 29.3527 23.9961 29.0913 23.6915 28.9133L23.4781 28.7799C23.4712 28.7766 23.4635 28.7751 23.4558 28.7754C23.4481 28.7758 23.4407 28.7781 23.4341 28.782C23.4275 28.786 23.422 28.7915 23.418 28.7981C23.4141 28.8047 23.4118 28.8122 23.4115 28.8199V29.0733C23.4206 29.229 23.4002 29.3851 23.3515 29.5332C23.2906 29.6882 23.2051 29.8323 23.0981 29.9599C23.0262 30.0518 22.9434 30.1347 22.8515 30.2066C22.6224 30.3824 22.4394 30.6112 22.3181 30.8733C22.1995 31.1113 22.1339 31.3723 22.1258 31.6381C22.1178 31.904 22.1675 32.1684 22.2715 32.4132C22.3662 32.6325 22.5019 32.8316 22.6715 32.9999C22.8436 33.1661 23.0447 33.2995 23.2648 33.3933C23.4948 33.4901 23.7419 33.5399 23.9915 33.5399C24.241 33.5399 24.4881 33.4901 24.7181 33.3933C24.949 33.305 25.1599 33.1712 25.3381 32.9999C25.5076 32.8316 25.6434 32.6325 25.7381 32.4132C25.8349 32.1766 25.8803 31.9221 25.8715 31.6666C25.8719 31.407 25.8173 31.1503 25.7115 30.9132V30.9399Z" fill="black"/>
</svg>
