<svg width="32" height="32" viewBox="0 0 32 32" fill="none" xmlns="http://www.w3.org/2000/svg">
<rect x="0.5" y="0.499512" width="31" height="31.001" rx="3.5" fill="#FCFCFC"/>
<rect x="0.5" y="0.499512" width="31" height="31.001" rx="3.5" stroke="#E9E7E7"/>
<path d="M23.6936 8.41317L18.6196 16.2652C18.4295 16.559 18.3297 16.9022 18.3326 17.2522V22.0402C18.331 22.2667 18.2669 22.4884 18.1472 22.6807C18.0276 22.8731 17.8571 23.0286 17.6546 23.1302L13.9926 24.9562C13.9376 24.9865 13.8756 25.0018 13.8128 25.0005C13.75 24.9991 13.6887 24.9812 13.6351 24.9485C13.5815 24.9158 13.5375 24.8695 13.5075 24.8143C13.4776 24.7591 13.4628 24.6969 13.4646 24.6342V17.2522C13.4667 16.9023 13.367 16.5594 13.1776 16.2652L8.10361 8.41317C8.02765 8.26175 7.99241 8.09316 8.00136 7.92399C8.01031 7.75482 8.06314 7.5909 8.15465 7.44833C8.24616 7.30577 8.3732 7.18948 8.52328 7.1109C8.67336 7.03232 8.84131 6.99416 9.01061 7.00017H22.7866C22.9559 6.99396 23.1238 7.03195 23.2739 7.1104C23.4241 7.18885 23.5511 7.30506 23.6427 7.44757C23.7342 7.59008 23.7871 7.75398 23.796 7.92312C23.8049 8.09226 23.7696 8.26181 23.6936 8.41317Z" stroke="#685C5C" stroke-width="1.5" stroke-miterlimit="10" stroke-linecap="round"/>
</svg>
