<svg width="64" height="64" viewBox="0 0 64 64" fill="none" xmlns="http://www.w3.org/2000/svg">
<rect width="64" height="64" rx="32" fill="#FBFBFB"/>
<path d="M45.8359 31.0842L46.3859 31.5842L48.6026 29.1009L45.8359 26.6176L45.5026 26.3342L45.2693 26.1342L42.5026 23.6676V15.3342H39.1693V20.7009L32.5026 14.7676L19.7359 26.1176L19.5026 26.3342L19.1693 26.6176L16.3859 29.0842L18.6026 31.5676L19.1526 31.0676V45.3342H15.8359V48.6676H49.1693V45.3342H45.8359V31.0842ZM30.8359 45.3342V40.3342H34.1693V45.3342H30.8359ZM37.5026 45.3342V37.0009H27.5026V45.3342H22.5026V28.1176L32.5026 19.2342L42.5026 28.1176V45.3342H37.5026Z" fill="#FA6B71"/>
<path d="M32.5 23.668C31.5111 23.668 30.5444 23.9612 29.7222 24.5106C28.8999 25.06 28.259 25.8409 27.8806 26.7546C27.5022 27.6682 27.4031 28.6735 27.5961 29.6434C27.789 30.6133 28.2652 31.5042 28.9645 32.2035C29.6637 32.9028 30.5546 33.379 31.5246 33.5719C32.4945 33.7648 33.4998 33.6658 34.4134 33.2874C35.327 32.9089 36.1079 32.2681 36.6573 31.4458C37.2068 30.6236 37.5 29.6569 37.5 28.668C37.5 27.3419 36.9732 26.0701 36.0355 25.1324C35.0979 24.1948 33.8261 23.668 32.5 23.668ZM32.5 30.3346C32.1704 30.3346 31.8481 30.2369 31.5741 30.0538C31.3 29.8706 31.0863 29.6103 30.9602 29.3058C30.8341 29.0012 30.8011 28.6661 30.8654 28.3428C30.9297 28.0195 31.0884 27.7225 31.3215 27.4895C31.5546 27.2564 31.8516 27.0976 32.1749 27.0333C32.4982 26.969 32.8333 27.002 33.1378 27.1282C33.4424 27.2543 33.7026 27.4679 33.8858 27.742C34.0689 28.0161 34.1667 28.3383 34.1667 28.668C34.1667 29.11 33.9911 29.5339 33.6785 29.8465C33.366 30.159 32.942 30.3346 32.5 30.3346Z" fill="#FA6B71"/>
</svg>
