<svg width="41" height="40" viewBox="0 0 41 40" fill="none" xmlns="http://www.w3.org/2000/svg">
<rect x="0.5" width="40" height="40" rx="20" fill="#FBFBFB"/>
<path d="M26.2511 12.125C26.2511 9.22962 23.8965 6.875 21.0011 6.875C18.1058 6.875 15.7511 9.22962 15.7511 12.125C15.7511 15.0204 18.1058 17.375 21.0011 17.375C23.8965 17.375 26.2511 15.0204 26.2511 12.125ZM17.5011 12.125C17.5011 10.1947 19.0709 8.625 21.0011 8.625C22.9314 8.625 24.5011 10.1947 24.5011 12.125C24.5011 14.0553 22.9314 15.625 21.0011 15.625C19.0709 15.625 17.5011 14.0553 17.5011 12.125ZM11.5625 27.9949V30.5C11.5625 31.9473 12.7403 33.125 14.1875 33.125H27.8148C29.262 33.125 30.4398 31.9473 30.4398 30.5V27.9949C30.4398 22.7895 26.2056 18.5563 21.0011 18.5563C15.7966 18.5563 11.5625 22.7895 11.5625 27.9949ZM21.0011 20.3063C25.2414 20.3063 28.6898 23.7546 28.6898 27.9949V30.5C28.6898 30.9821 28.2978 31.375 27.8148 31.375H14.1875C13.7045 31.375 13.3125 30.9821 13.3125 30.5V27.9949C13.3125 23.7546 16.7609 20.3063 21.0011 20.3063Z" fill="#FA6B71"/>
</svg>
