<svg width="196" height="77" viewBox="0 0 196 77" fill="none" xmlns="http://www.w3.org/2000/svg">
<path d="M106.865 31.8091C107.086 31.8108 107.086 31.8108 107.311 31.8125C110.007 31.8682 112.24 32.8383 114.168 34.7388C115.32 35.9625 116.002 37.2657 116.537 38.8509C116.571 38.9498 116.604 39.0486 116.639 39.1505C117.28 41.4628 116.742 44.1066 115.609 46.1614C115.254 46.7739 114.86 47.3244 114.382 47.8484C114.25 47.9985 114.25 47.9985 114.116 48.1516C112.85 49.508 111.299 50.2815 109.534 50.8028C109.367 50.8524 109.367 50.8524 109.196 50.903C106.628 51.5324 103.754 50.9024 101.512 49.5858C99.465 48.2123 97.937 46.1508 97.3971 43.7331C96.9159 41.1836 97.153 38.3523 98.6245 36.1651C100.562 33.4178 103.48 31.7758 106.865 31.8091Z" fill="white"/>
<path d="M76.5352 25.4251C78.0908 25.4251 79.6463 25.4251 81.2491 25.4251C81.2935 29.0147 81.338 32.6043 81.3838 36.3026C82.407 35.1255 83.4278 33.9487 84.4341 32.7576C84.6206 32.5372 84.8077 32.3174 84.995 32.0977C85.5794 31.4116 86.1599 30.7234 86.729 30.0246C87.1764 29.4763 87.6396 28.9467 88.1137 28.4215C88.5119 27.9695 88.8894 27.5015 89.267 27.0324C89.3767 26.9008 89.4864 26.7693 89.5995 26.6337C89.6568 26.5306 89.7141 26.4274 89.7731 26.3211C90.0913 25.8345 90.3786 25.4888 90.9705 25.3625C91.8591 25.272 92.7492 25.3154 93.64 25.3496C93.9141 25.3556 94.1882 25.3612 94.4623 25.3661C95.1313 25.3794 95.7997 25.4002 96.4683 25.4251C96.3419 25.5946 96.2153 25.764 96.0887 25.9333C96.0182 26.0276 95.9477 26.1219 95.8751 26.2191C95.5587 26.6319 95.2199 27.0231 94.8774 27.4143C94.3922 27.9732 93.9127 28.5349 93.4464 29.1097C92.894 29.788 92.322 30.4477 91.7466 31.1067C91.2073 31.7246 90.6725 32.346 90.1444 32.9734C89.8278 33.3493 89.5082 33.7217 89.1828 34.09C89.1145 34.1681 89.0462 34.2463 88.9758 34.3268C88.8453 34.476 88.7138 34.6244 88.5811 34.7717C88.2182 35.1893 88.0343 35.4834 87.9833 36.034C88.0814 36.3209 88.0814 36.3209 88.2621 36.588C88.3264 36.6925 88.3908 36.7969 88.457 36.9046C88.5285 37.0161 88.5999 37.1277 88.6735 37.2427C88.7467 37.3605 88.8199 37.4783 88.8953 37.5996C89.1283 37.9741 89.3639 38.347 89.5995 38.7199C89.8194 39.0728 90.0385 39.4262 90.2576 39.7796C90.4033 40.0144 90.5492 40.2491 90.6954 40.4836C91.2652 41.3985 91.8229 42.3202 92.3771 43.2446C93.2099 44.6329 94.0559 46.0131 94.9111 47.3879C94.9895 47.5139 95.0679 47.6399 95.1486 47.7698C95.3004 48.0135 95.4523 48.2572 95.6044 48.5007C96.7377 50.3195 96.7377 50.3195 96.7377 50.6717C95.9928 50.7218 95.2488 50.7582 94.5026 50.7823C94.2494 50.7924 93.9963 50.8061 93.7435 50.8237C91.7097 50.9609 91.7097 50.9609 91.1262 50.4913C90.7314 50.0182 90.4868 49.4807 90.2509 48.9159C90.0926 48.5526 89.8868 48.2271 89.6737 47.8936C89.6022 47.7766 89.5307 47.6596 89.4571 47.5391C89.3846 47.4207 89.3122 47.3022 89.2375 47.1801C89.1581 47.0502 89.0787 46.9202 88.9969 46.7863C88.6679 46.2479 88.3388 45.7096 88.0096 45.1714C86.9161 43.3833 85.8287 41.5917 84.7509 39.7942C84.1749 40.0515 83.8422 40.4506 83.4461 40.9273C83.3816 41.0033 83.3171 41.0794 83.2507 41.1578C83.1103 41.324 82.973 41.4928 82.8382 41.6635C82.5959 41.9428 82.5959 41.9428 82.2776 42.2051C81.4592 42.963 81.3101 43.5859 81.2488 44.673C81.2267 45.4952 81.2311 46.3158 81.2407 47.1382C81.2403 47.4808 81.2393 47.8234 81.2378 48.1661C81.2342 49.0016 81.2419 49.8359 81.2491 50.6717C79.6935 50.6717 78.1379 50.6717 76.5352 50.6717C76.5352 42.3403 76.5352 34.009 76.5352 25.4251Z" fill="white"/>
<path d="M135.165 31.8093C135.325 31.8103 135.485 31.8114 135.651 31.8124C137.904 31.8545 139.765 32.533 141.422 34.0938C142.526 35.2924 142.999 36.628 142.98 38.2285C142.98 38.4311 142.98 38.4311 142.98 38.6378C142.98 39.081 142.977 39.5242 142.974 39.9675C142.973 40.276 142.973 40.5846 142.972 40.8932C142.971 41.703 142.967 42.5127 142.962 43.3225C142.958 44.1498 142.956 44.9771 142.954 45.8044C142.95 47.4258 142.943 49.0473 142.934 50.6687C141.557 50.6687 140.179 50.6687 138.759 50.6687C138.715 50.0926 138.67 49.5165 138.625 48.9229C138.483 49.0614 138.341 49.1999 138.195 49.3426C136.463 50.8445 134.14 51.2334 131.914 51.1C130.165 50.9306 128.66 50.1792 127.539 48.838C126.605 47.5353 126.504 46.0536 126.638 44.4914C126.991 43.0422 127.907 41.8964 129.155 41.0921C131.932 39.5887 135.391 39.3147 138.49 38.9855C138.486 38.0605 138.404 37.3758 137.792 36.6564C136.864 35.8145 135.765 35.7018 134.557 35.7252C133.877 35.7748 133.405 35.9398 132.833 36.2997C132.69 36.3851 132.69 36.3851 132.544 36.4722C131.815 36.9565 131.446 37.5283 131.082 38.314C130.313 38.1848 129.663 37.8688 128.961 37.5418C128.83 37.484 128.699 37.4262 128.565 37.3666C128.441 37.3088 128.317 37.251 128.189 37.1914C128.075 37.1395 127.962 37.0876 127.845 37.0342C127.58 36.8368 127.58 36.8368 127.465 36.5012C127.42 35.7192 128.138 34.9968 128.61 34.4164C129.243 33.7389 130.015 33.2712 130.813 32.8081C130.953 32.7268 130.953 32.7268 131.095 32.6439C132.385 31.9494 133.718 31.7965 135.165 31.8093Z" fill="white"/>
<path d="M155.849 31.8092C155.991 31.8106 156.134 31.8119 156.281 31.8132C158.251 31.8578 159.635 32.5672 161.105 33.8351C162.969 35.7824 162.908 38.3444 162.895 40.846C162.895 41.1299 162.894 41.4139 162.894 41.6978C162.893 42.4407 162.89 43.1835 162.887 43.9264C162.885 44.6862 162.883 45.446 162.882 46.2058C162.879 47.6934 162.874 49.181 162.869 50.6686C161.358 50.6686 159.847 50.6686 158.29 50.6686C158.288 50.3074 158.286 49.9462 158.284 49.5741C158.277 48.3793 158.268 47.1846 158.258 45.9898C158.252 45.2656 158.247 44.5414 158.243 43.8172C158.239 43.118 158.234 42.4188 158.227 41.7196C158.225 41.4531 158.223 41.1867 158.223 40.9202C158.221 40.5463 158.218 40.1725 158.213 39.7987C158.213 39.6891 158.214 39.5794 158.214 39.4665C158.196 38.3792 157.824 37.606 157.076 36.81C156.183 36.0044 155.226 35.9451 154.051 35.9791C153.426 36.0473 153.004 36.203 152.498 36.5682C152.357 36.6623 152.215 36.7565 152.069 36.8535C151.277 37.5812 150.988 38.4462 150.937 39.4982C150.921 40.1181 150.92 40.7375 150.922 41.3575C150.92 41.6265 150.918 41.8956 150.915 42.1647C150.91 42.8689 150.909 43.5731 150.908 44.2774C150.907 44.9976 150.902 45.7178 150.897 46.438C150.888 47.8482 150.884 49.2584 150.882 50.6686C149.415 50.6686 147.949 50.6686 146.438 50.6686C146.438 44.5974 146.438 38.5261 146.438 32.2709C147.815 32.2709 149.193 32.2709 150.613 32.2709C150.679 33.2015 150.679 33.2015 150.747 34.1509C150.878 33.9903 151.008 33.8296 151.143 33.6641C152.433 32.2051 153.943 31.7898 155.849 31.8092Z" fill="white"/>
<path d="M177.55 32.1367C179.016 32.1367 180.483 32.1367 181.994 32.1367C181.994 38.2523 181.994 44.3679 181.994 50.6688C180.572 50.6688 179.15 50.6688 177.684 50.6688C177.64 50.0484 177.596 49.4279 177.55 48.7887C177.433 48.9466 177.316 49.1045 177.196 49.2671C176.271 50.3202 174.764 50.966 173.375 51.0716C171.265 51.2019 169.503 50.87 167.827 49.4853C166.451 48.196 165.634 46.3767 165.551 44.4878C165.546 44.1658 165.546 43.8441 165.548 43.5221C165.548 43.4002 165.548 43.2782 165.548 43.1526C165.548 42.7515 165.549 42.3504 165.55 41.9494C165.55 41.6705 165.55 41.3916 165.55 41.1128C165.551 40.3803 165.552 39.6478 165.554 38.9153C165.555 38.1672 165.556 37.4192 165.556 36.6711C165.558 35.2044 165.56 33.7377 165.563 32.271C167.03 32.271 168.496 32.271 170.007 32.271C170.009 32.6172 170.01 32.9634 170.011 33.3201C170.016 34.4682 170.023 35.6163 170.032 36.7644C170.038 37.46 170.042 38.1556 170.044 38.8512C170.046 39.5234 170.051 40.1956 170.057 40.8678C170.059 41.1233 170.06 41.3789 170.06 41.6344C170.034 43.8661 170.034 43.8661 171.001 45.8259C172.134 46.7139 173.006 47.074 174.452 46.9086C175.654 46.5849 176.395 46.1051 177.024 45.0489C177.603 43.8473 177.497 42.5397 177.497 41.238C177.499 40.975 177.501 40.712 177.504 40.4489C177.51 39.7606 177.512 39.0723 177.515 38.3839C177.517 37.6799 177.523 36.9759 177.528 36.2719C177.538 34.8935 177.545 33.5151 177.55 32.1367Z" fill="white"/>
<path d="M187.246 27.9766C188.713 27.9766 190.18 27.9766 191.691 27.9766C191.691 29.3947 191.691 30.8128 191.691 32.2739C193.113 32.2739 194.535 32.2739 196.001 32.2739C196.001 33.559 196.001 34.8442 196.001 36.1683C194.578 36.1683 193.156 36.1683 191.691 36.1683C191.699 37.6935 191.699 37.6935 191.712 39.2187C191.719 39.8413 191.725 40.464 191.727 41.0867C191.729 41.5892 191.734 42.0915 191.74 42.5939C191.742 42.785 191.743 42.976 191.744 43.167C191.745 44.4259 191.808 45.2918 192.625 46.2904C193.301 46.8212 194.005 46.8298 194.831 46.8611C195.217 46.8777 195.603 46.8944 196.001 46.9115C196.001 48.1523 196.001 49.3932 196.001 50.6716C193.899 51.0209 191.698 51.037 189.83 49.9078C188.648 49.0403 187.969 48.0294 187.516 46.6429C187.469 46.5017 187.422 46.3604 187.374 46.2149C187.149 45.2995 187.213 44.3436 187.22 43.4074C187.22 43.1981 187.221 42.9889 187.221 42.7797C187.222 42.2322 187.225 41.6847 187.228 41.1372C187.23 40.5772 187.232 40.0173 187.233 39.4573C187.236 38.361 187.241 37.2646 187.246 36.1683C186.224 36.1683 185.202 36.1683 184.148 36.1683C184.148 34.8831 184.148 33.598 184.148 32.2739C184.593 32.1852 185.037 32.0966 185.495 32.0053C186.204 31.7385 186.54 31.3942 186.977 30.7967C187.096 30.4396 187.136 30.195 187.154 29.8257C187.159 29.7285 187.164 29.6314 187.17 29.5313C187.178 29.3475 187.178 29.3475 187.187 29.16C187.207 28.7695 187.226 28.3789 187.246 27.9766Z" fill="white"/>
<path d="M119.5 25.0195C120.967 25.0195 122.433 25.0195 123.945 25.0195C123.945 33.4838 123.945 41.9482 123.945 50.669C122.478 50.669 121.011 50.669 119.5 50.669C119.5 42.2047 119.5 33.7403 119.5 25.0195Z" fill="white"/>
<path d="M109.111 36.2658C110.513 37.091 111.609 38.2298 112.042 39.8355C112.302 41.6879 112.122 43.5685 110.99 45.1053C110.213 46.0614 109.262 46.7899 108.004 46.9504C107.666 46.9686 107.331 46.9727 106.992 46.9686C106.873 46.9673 106.753 46.966 106.631 46.9646C105.205 46.926 104.29 46.5221 103.249 45.5365C101.913 43.9549 101.733 42.1825 101.857 40.1953C102.064 38.8143 102.917 37.5606 104.012 36.7038C105.539 35.8077 107.455 35.4668 109.111 36.2658Z" fill="#AF060D"/>
<path d="M138.489 42.4783C138.574 43.9715 138.423 45.0357 137.462 46.2133C136.506 47.2164 135.218 47.7014 133.843 47.7576C133.019 47.735 132.4 47.5165 131.772 46.9854C131.279 46.3926 131.155 45.9581 131.174 45.1972C131.261 44.5804 131.626 44.2151 132.058 43.7961C133.032 43.1562 134.13 43.013 135.262 42.8325C135.535 42.7889 135.807 42.7432 136.08 42.6973C136.894 42.5643 137.662 42.4617 138.489 42.4783Z" fill="#AF060D"/>
<path d="M165.562 55.3739C166.082 55.3628 166.601 55.3517 167.137 55.3403C167.381 55.333 167.381 55.333 167.629 55.3255C168.687 55.3146 168.687 55.3146 169.226 55.6121C169.589 56.0602 169.659 56.4167 169.603 56.9854C169.384 57.447 169.384 57.447 169.064 57.7911C168.708 57.8798 168.708 57.8798 168.391 57.9254C168.475 58.0371 168.56 58.1487 168.647 58.2638C168.758 58.4112 168.869 58.5586 168.98 58.706C169.036 58.7795 169.091 58.8529 169.148 58.9287C169.872 59.8891 169.872 59.8891 169.872 60.3426C169.503 60.3909 169.503 60.3909 169.064 60.3426C168.769 60.009 168.769 60.009 168.509 59.5705C168 58.6351 168 58.6351 167.13 58.1122C167.024 58.1059 166.918 58.0997 166.808 58.0933C166.619 58.0822 166.431 58.0711 166.236 58.0597C166.236 58.8131 166.236 59.5664 166.236 60.3426C166.014 60.3426 165.791 60.3426 165.562 60.3426C165.562 58.703 165.562 57.0633 165.562 55.3739Z" fill="white"/>
<path d="M193.171 55.3711C193.482 55.3711 193.793 55.3711 194.114 55.3711C194.304 55.8355 194.495 56.2999 194.686 56.7644C194.739 56.894 194.793 57.0237 194.847 57.1573C194.955 57.4182 195.061 57.6792 195.168 57.9403C195.272 58.1935 195.376 58.4465 195.481 58.6991C195.529 58.8157 195.577 58.9324 195.627 59.0525C195.691 59.2067 195.691 59.2067 195.756 59.3639C195.871 59.6867 195.94 60.0028 195.999 60.3398C195.732 60.3398 195.466 60.3398 195.191 60.3398C195.013 59.8967 194.835 59.4535 194.652 58.9969C193.941 58.9526 193.23 58.9083 192.497 58.8626C192.456 59.0814 192.414 59.3003 192.371 59.5257C192.245 60.1888 192.245 60.1888 192.093 60.3398C191.824 60.3453 191.554 60.3455 191.285 60.3398C191.365 59.8934 191.474 59.4919 191.645 59.0719C191.69 58.961 191.735 58.8501 191.781 58.7358C191.852 58.5618 191.852 58.5618 191.925 58.3842C191.973 58.2653 192.021 58.1463 192.071 58.0237C192.432 57.137 192.797 56.2524 193.171 55.3711Z" fill="white"/>
<path d="M148.321 55.3711C148.632 55.3711 148.943 55.3711 149.264 55.3711C149.393 55.6604 149.522 55.9498 149.651 56.2393C149.742 56.4427 149.833 56.646 149.925 56.8488C150.246 57.5563 150.548 58.2717 150.847 58.9885C150.889 59.0904 150.932 59.1923 150.976 59.2972C151.284 60.0399 151.284 60.0399 151.284 60.3398C150.905 60.3818 150.905 60.3818 150.476 60.3398C150.06 59.8531 150.048 59.5216 149.937 58.8626C149.226 58.8626 148.515 58.8626 147.782 58.8626C147.649 59.3501 147.516 59.8376 147.378 60.3398C147.112 60.3398 146.845 60.3398 146.57 60.3398C146.667 59.6995 146.902 59.1323 147.143 58.5353C147.558 57.4879 147.949 56.4347 148.321 55.3711Z" fill="white"/>
<path d="M185.408 55.4555C185.799 55.8085 186.033 56.1293 186.3 56.5801C186.255 56.6688 186.211 56.7574 186.165 56.8487C185.854 56.8907 185.854 56.8907 185.492 56.8487C185.265 56.5214 185.265 56.5214 185.088 56.1773C184.619 55.9437 184.117 55.9638 183.606 56.043C183.124 56.4034 182.907 56.6697 182.798 57.2516C182.726 58.0143 182.752 58.6161 183.202 59.2659C183.614 59.6198 183.808 59.67 184.355 59.6604C184.858 59.5239 185.045 59.4048 185.357 58.9974C185.402 58.8644 185.446 58.7315 185.492 58.5945C185.759 58.5945 186.025 58.5945 186.3 58.5945C186.263 59.126 186.2 59.3599 185.845 59.7695C185.13 60.3806 184.684 60.3995 183.764 60.3812C183.2 60.3271 182.926 60.209 182.529 59.8031C181.925 59.0475 181.909 58.2282 181.938 57.2899C182.029 56.5162 182.298 56.1221 182.874 55.5898C183.641 55.08 184.589 55.0624 185.408 55.4555Z" fill="white"/>
<path d="M156.539 55.3711C157.65 55.3711 158.761 55.3711 159.906 55.3711C159.906 55.5484 159.906 55.7256 159.906 55.9083C159.017 55.9083 158.128 55.9083 157.212 55.9083C157.212 56.3957 157.212 56.8832 157.212 57.3854C158.013 57.3854 158.813 57.3854 159.637 57.3854C159.637 57.607 159.637 57.8286 159.637 58.0569C158.881 58.0569 158.126 58.0569 157.347 58.0569C157.347 58.8103 157.347 59.5636 157.347 60.3398C157.08 60.3398 156.814 60.3398 156.539 60.3398C156.539 58.7001 156.539 57.0605 156.539 55.3711Z" fill="white"/>
<path d="M166.234 55.9076C166.56 55.8967 166.885 55.8888 167.211 55.8825C167.303 55.8791 167.395 55.8757 167.489 55.8722C167.93 55.8658 168.208 55.8793 168.589 56.1106C168.657 56.1766 168.724 56.2426 168.793 56.3105C168.76 56.7637 168.76 56.7637 168.659 57.2505C168.197 57.6026 167.704 57.5463 167.143 57.5359C166.973 57.5335 166.803 57.5311 166.628 57.5286C166.498 57.5254 166.368 57.5223 166.234 57.5191C166.234 56.9873 166.234 56.4555 166.234 55.9076Z" fill="#AF060D"/>
<path d="M175.527 55.3711C175.75 55.3711 175.972 55.3711 176.201 55.3711C176.201 57.0108 176.201 58.6505 176.201 60.3398C175.979 60.3398 175.756 60.3398 175.527 60.3398C175.527 58.7001 175.527 57.0605 175.527 55.3711Z" fill="white"/>
<path d="M193.576 56.1797C193.818 56.5423 193.971 56.8601 194.131 57.2624C194.179 57.3803 194.226 57.4982 194.275 57.6196C194.384 57.9255 194.384 57.9255 194.384 58.194C193.895 58.194 193.406 58.194 192.902 58.194C193.049 57.4541 193.201 56.8429 193.576 56.1797Z" fill="#EDEDED"/>
<path d="M148.726 56.043C149.117 56.2377 149.137 56.4868 149.282 56.8907C149.329 57.0203 149.377 57.15 149.426 57.2836C149.534 57.6545 149.534 57.6545 149.534 58.1916C149.09 58.1916 148.645 58.1916 148.188 58.1916C148.344 57.4663 148.514 56.7539 148.726 56.043Z" fill="#EBEBEB"/>
<path d="M33.3789 17.7127C33.9881 18.0694 34.4452 18.578 34.9262 19.0874C35.1294 19.2984 35.333 19.5091 35.537 19.7195C35.6361 19.8219 35.7353 19.9244 35.8375 20.0299C36.1907 20.3818 36.5633 20.7045 36.9424 21.0282C37.5079 21.5257 38.0264 22.0728 38.5542 22.6094C38.9906 23.0496 39.4306 23.4759 39.901 23.8799C40.5657 24.4507 41.1728 25.0741 41.7866 25.6981C42.2216 26.1369 42.6601 26.5619 43.1292 26.9644C43.8262 27.5629 44.4618 28.2194 45.1058 28.8733C45.6447 29.4165 46.1957 29.9312 46.7765 30.4294C47.31 30.9007 47.8009 31.4157 48.2993 31.9232C48.7183 32.3462 49.1422 32.7536 49.5941 33.1417C50.2599 33.7142 50.8686 34.3387 51.4838 34.9641C52.593 36.0841 52.593 36.0841 53.8576 37.0178C54.4272 37.41 54.8426 37.8083 55.1203 38.4504C55.5168 40.7234 55.2499 43.3401 54.7163 45.5678C54.6761 45.7408 54.6761 45.7408 54.6352 45.9174C53.6196 50.1983 51.5559 54.0514 48.5208 57.251C48.3629 57.4322 48.2057 57.614 48.0494 57.7966C47.1542 58.8161 46.1849 59.7121 45.12 60.5531C44.932 60.7043 44.7461 60.858 44.5609 61.0126C43.6968 61.7306 42.8094 62.3828 41.8708 63.0003C41.7303 63.0929 41.5898 63.1855 41.4451 63.2809C34.2466 67.9786 34.2466 67.9786 31.7506 67.9979C31.0873 67.8029 30.4645 67.5446 29.8334 67.2641C29.6968 67.2039 29.5602 67.1437 29.4195 67.0817C24.863 65.0476 20.6053 62.3193 17.0048 58.8625C16.9343 58.7951 16.8638 58.7278 16.7911 58.6583C15.8462 57.7512 14.9773 56.8124 14.1765 55.7738C14.119 55.7 14.0616 55.6261 14.0025 55.55C12.5735 53.7021 11.3969 51.7719 10.54 49.5965C10.4771 49.4464 10.4771 49.4464 10.4129 49.2933C9.4601 46.9985 8.9917 44.543 8.78912 42.0762C8.77466 41.9236 8.76021 41.7709 8.74532 41.6136C8.49682 38.728 8.49682 38.728 9.11425 37.929C9.46712 37.5737 9.86654 37.2987 10.2836 37.0236C10.7484 36.6888 11.1297 36.2689 11.5249 35.8569C11.986 35.3851 12.4525 34.93 12.9533 34.4998C13.5241 34.0082 14.0525 33.4812 14.5805 32.9445C15.1893 32.3257 15.8074 31.7345 16.4661 31.1688C16.9361 30.7524 17.3728 30.3032 17.8129 29.8558C18.3359 29.3242 18.8585 28.8016 19.4249 28.3157C20.018 27.8064 20.5645 27.2565 21.1127 26.7C21.7461 26.0569 22.3868 25.4386 23.0722 24.8506C23.5169 24.4578 23.9293 24.0341 24.3451 23.6113C24.9242 23.0277 25.5038 22.4617 26.1339 21.9327C26.6818 21.4402 27.1925 20.909 27.7114 20.3865C28.2247 19.8716 28.7442 19.3756 29.3026 18.9091C29.555 18.6882 29.7803 18.45 30.0102 18.2061C31.0132 17.1992 32.1479 17.1466 33.3789 17.7127Z" fill="white"/>
<path d="M42.5444 2.06698C42.6677 2.10608 42.7911 2.14517 42.9181 2.18546C45.5732 3.02971 48.1932 3.95488 50.7986 4.94068C51.1914 5.08924 51.5843 5.23723 51.9773 5.38515C56.0198 6.90925 56.0198 6.90925 57.9564 7.84133C58.1356 7.92759 58.3151 8.01334 58.4948 8.09863C60.6385 9.118 62.5646 10.194 63.4746 12.5128C63.8965 13.8761 63.9121 15.1509 63.906 16.5635C63.9059 16.8105 63.9059 17.0574 63.906 17.3044C63.9059 17.9766 63.9039 18.6487 63.9016 19.3209C63.9002 19.7439 63.8993 20.1668 63.8986 20.5897C63.8947 22.7387 63.8858 24.8876 63.875 27.0366C63.8741 27.2003 63.8733 27.3641 63.8725 27.5328C63.861 29.8717 63.846 32.2106 63.828 34.5495C63.8245 35.032 63.8213 35.5145 63.8182 35.997C63.8133 36.764 63.807 37.5309 63.7998 38.2979C63.7974 38.5782 63.7953 38.8584 63.7937 39.1387C63.7336 49.2046 60.0072 57.4475 52.8682 64.4883C52.4102 64.9121 51.9263 65.3008 51.4383 65.6896C51.1244 65.9447 50.8287 66.209 50.5328 66.4843C48.9811 67.8738 47.1721 69.0168 45.4233 70.1437C45.291 70.2296 45.1587 70.3155 45.0224 70.4039C43.5423 71.3385 41.9873 72.1468 40.44 72.9638C40.3394 73.0172 40.2388 73.0706 40.1352 73.1256C33.1281 76.8212 33.1281 76.8212 31.0353 76.2098C30.5969 76.0518 30.1647 75.8829 29.7326 75.7084C29.5765 75.6468 29.4204 75.5851 29.2596 75.5216C28.0807 75.0532 26.9113 74.5691 25.7595 74.0382C25.6522 73.9891 25.5448 73.94 25.4343 73.8894C22.0473 72.3336 18.7762 70.5037 15.7929 68.2637C15.718 68.2074 15.643 68.1512 15.5659 68.0933C15.054 67.7073 14.5475 67.3149 14.042 66.9208C13.9305 66.836 13.8191 66.7511 13.7042 66.6637C11.4615 64.9294 9.31195 62.8479 7.57717 60.6091C7.43868 60.4346 7.30013 60.2601 7.16154 60.0856C5.01507 57.3615 3.23827 54.3402 2.05514 51.0745C2.01367 50.9673 1.97219 50.8601 1.92946 50.7497C1.57277 49.812 1.31648 48.8712 1.09552 47.8935C1.06059 47.7404 1.02566 47.5872 0.98967 47.4294C0.732596 46.2745 0.535935 45.1364 0.438933 43.9571C0.428243 43.8363 0.417555 43.7155 0.406541 43.591C0.290855 42.1668 0.27676 40.747 0.26637 39.3189C0.263968 39.0515 0.261503 38.7842 0.258984 38.5169C0.253753 37.9528 0.248843 37.3887 0.244204 36.8246C0.232104 35.3584 0.217998 33.8922 0.203763 32.426C0.202384 32.2823 0.201008 32.1387 0.199587 31.9906C0.178082 29.7681 0.143839 27.5464 0.0938065 25.3244C0.0468764 23.1687 0.0175276 21.0135 0.0111459 18.8573C0.0101541 18.5528 0.00873335 18.2483 0.00683017 17.9438C-0.0243984 12.5201 -0.0243984 12.5201 1.78577 10.3846C2.64147 9.60826 3.5596 9.03079 4.58887 8.51291C4.78942 8.41044 4.78942 8.41044 4.99401 8.3059C6.74905 7.42116 8.55533 6.65849 10.4018 5.9851C11.1309 5.71906 11.8496 5.43015 12.5689 5.13887C13.5054 4.76157 14.4428 4.41896 15.4041 4.10913C16.0171 3.91153 16.6245 3.69845 17.2323 3.48542C17.3457 3.44579 17.4592 3.40616 17.576 3.36532C18.1551 3.16279 18.7336 2.95885 19.3115 2.75312C20.6247 2.28721 21.9405 1.8589 23.2814 1.47946C23.6468 1.37507 24.0113 1.26796 24.3758 1.16052C31.1889 -0.845338 35.8373 -0.0616764 42.5444 2.06698ZM20.3477 6.09321C19.9068 6.24127 19.4657 6.38861 19.0241 6.53442C18.1245 6.83151 17.2277 7.13264 16.34 7.46377C16.2343 7.50304 16.1285 7.54231 16.0195 7.58278C15.7923 7.66718 15.5652 7.7517 15.3381 7.83634C14.9759 7.97066 14.6129 8.1029 14.2498 8.23489C11.4388 9.26256 8.62131 10.3514 5.95255 11.7107C5.84053 11.7665 5.72852 11.8223 5.61311 11.8798C4.79483 12.312 4.21411 12.8457 3.76394 13.6579C3.49082 14.6977 3.51678 15.7795 3.51877 16.8462C3.51864 17.0033 3.51851 17.1603 3.51838 17.3221C3.51829 17.6556 3.51854 17.989 3.5191 18.3224C3.5198 18.8144 3.51911 19.3065 3.51824 19.7985C3.51778 21.4366 3.5381 23.072 3.59214 24.7092C3.66453 26.9049 3.69022 29.0998 3.70449 31.2966C3.70561 31.4613 3.70673 31.6259 3.70788 31.7955C3.71834 33.3363 3.72787 34.8771 3.73556 36.4179C3.73987 37.2706 3.74543 38.1232 3.75175 38.9758C3.75388 39.2958 3.75555 39.6158 3.75672 39.9357C3.76588 42.4013 3.8739 44.7649 4.49628 47.1633C4.53735 47.3237 4.57842 47.484 4.62074 47.6492C5.2045 49.8499 6.10052 51.8907 7.17312 53.8946C7.25576 54.0515 7.3384 54.2083 7.42354 54.3699C8.12269 55.646 8.96813 56.7817 9.86679 57.9233C9.96645 58.0516 10.0661 58.1799 10.1688 58.312C13.0342 61.9076 16.614 64.8642 20.5077 67.2905C20.6757 67.3953 20.8434 67.5007 21.0105 67.607C23.6702 69.2981 26.5681 70.6975 29.4819 71.8921C29.7676 72.0104 30.0504 72.1336 30.3329 72.2593C30.4821 72.3229 30.6312 72.3864 30.7849 72.4519C30.9038 72.5036 31.0227 72.5554 31.1452 72.6087C32.4828 72.8941 33.6501 72.2946 34.8422 71.7552C35.0233 71.6748 35.2045 71.5944 35.3857 71.5142C35.9044 71.2837 36.4213 71.0496 36.9382 70.8152C37.0658 70.7582 37.1934 70.7013 37.3249 70.6426C40.1877 69.3646 42.8476 67.7588 45.4233 65.9807C45.5148 65.9183 45.6062 65.8558 45.7005 65.7914C46.8826 64.9824 47.9795 64.0998 49.0597 63.1606C49.1608 63.075 49.2618 62.9893 49.3659 62.901C50.0629 62.3063 50.7066 61.664 51.3494 61.012C52.0228 60.3406 52.0228 60.3406 52.2506 60.1276C53.631 58.8096 54.7416 57.2231 55.7939 55.6404C55.8806 55.5121 55.9672 55.3838 56.0565 55.2517C57.5093 53.0098 58.5492 50.542 59.2957 47.9859C59.3236 47.8917 59.3515 47.7975 59.3802 47.7004C60.1421 45.0746 60.2988 42.4263 60.3027 39.7076C60.3046 39.3929 60.3067 39.0781 60.309 38.7634C60.3146 37.9387 60.318 37.114 60.3208 36.2892C60.3256 34.9877 60.3339 33.6862 60.3419 32.3847C60.3438 32.0629 60.3456 31.7411 60.3474 31.4193C60.3621 28.7496 60.4085 26.0814 60.4693 23.4124C60.4735 23.2252 60.4735 23.2252 60.4779 23.0343C60.482 22.8527 60.482 22.8527 60.4862 22.6674C60.5154 21.3666 60.5329 20.066 60.5328 18.7648C60.5331 18.4162 60.5357 18.0675 60.5381 17.7189C60.6376 15.1273 60.6376 15.1273 59.7282 12.805C56.4974 9.85683 50.3644 8.38411 46.2889 7.00477C45.9067 6.87411 45.5267 6.73798 45.1467 6.60108C35.7544 3.22889 29.841 2.90424 20.3477 6.09321Z" fill="white"/>
<path d="M35.3205 30.2586C35.5174 30.3203 35.5174 30.3203 35.7183 30.3832C37.363 30.9031 38.9914 31.4568 40.59 32.1051C40.7071 32.1524 40.8241 32.1997 40.9447 32.2484C42.4383 32.8694 43.7938 33.4942 44.4708 35.0347C44.7559 35.955 44.7099 36.9077 44.7032 37.8618C44.7036 38.0908 44.7043 38.3198 44.7051 38.5487C44.7061 39.0276 44.7047 39.5063 44.7015 39.9851C44.6977 40.5903 44.6999 41.1952 44.7038 41.8004C44.7301 46.6055 44.0118 50.4359 40.6069 54.0532C38.6183 55.9431 34.9908 58.5837 32.1497 58.5372C30.5861 58.2765 28.9841 57.3947 27.6436 56.5795C27.4545 56.4648 27.4545 56.4648 27.2616 56.3477C24.6132 54.6634 22.483 52.4538 21.1956 49.5797C21.1587 49.498 21.1218 49.4164 21.0837 49.3323C20.3651 47.6443 20.3067 46.0144 20.3075 44.2107C20.3066 43.9509 20.3055 43.6912 20.3044 43.4314C20.3026 42.8898 20.3024 42.3481 20.3032 41.8065C20.304 41.1147 20.2998 40.4231 20.2944 39.7313C20.2909 39.1959 20.2905 38.6606 20.291 38.1252C20.2908 37.8702 20.2895 37.6152 20.2871 37.3602C20.2652 34.7521 20.2652 34.7521 21.0441 33.8845C24.1754 30.927 31.319 28.9952 35.3205 30.2586Z" fill="#AF060D"/>
<path d="M38.9588 9.85053C39.2727 9.95374 39.5866 10.0569 39.9005 10.16C40.7999 10.4563 41.698 10.7563 42.5953 11.0591C42.707 11.0969 42.8188 11.1346 42.934 11.1734C44.292 11.6343 45.6236 12.1509 46.953 12.6879C47.4538 12.8901 47.9569 13.0847 48.4624 13.2749C50.023 13.8714 51.5681 14.5088 53.0669 15.2473C53.1519 15.2887 53.2368 15.3302 53.3243 15.3729C53.7451 15.5847 54.1537 15.8144 54.5505 16.0683C54.6245 16.1151 54.6985 16.1619 54.7748 16.2101C55.5531 17.0227 55.4451 18.0656 55.4344 19.115C55.4342 19.2864 55.434 19.4578 55.4338 19.6344C55.4331 20.0967 55.4299 20.5588 55.426 21.021C55.4232 21.4029 55.4218 21.7848 55.4205 22.1667C55.4091 25.2691 55.3555 28.3705 55.2555 31.4713C54.6594 30.9666 54.071 30.4556 53.4962 29.9269C53.4223 29.859 53.3484 29.7911 53.2723 29.7212C52.6149 29.1124 51.9799 28.4827 51.3526 27.8433C50.9655 27.4514 50.571 27.078 50.1528 26.7192C49.4528 26.1163 48.8129 25.4569 48.1652 24.7992C47.6263 24.2561 47.0753 23.7413 46.4945 23.2431C45.961 22.7719 45.4701 22.2568 44.9717 21.7494C44.5541 21.3278 44.1318 20.9216 43.6811 20.535C42.983 19.9348 42.3458 19.2772 41.7003 18.6219C41.161 18.0782 40.6093 17.5632 40.0279 17.0646C39.5914 16.6784 39.1892 16.2597 38.782 15.8432C36.8605 13.9116 34.8709 12.381 32.031 12.3517C29.4018 12.3845 27.5637 13.5629 25.7598 15.3564C25.6502 15.4653 25.5407 15.5742 25.4278 15.6864C25.2377 15.8766 25.0486 16.0679 24.8612 16.2608C24.5958 16.5183 24.3252 16.7587 24.0447 16.9994C23.4424 17.5207 22.884 18.0794 22.3254 18.6465C21.78 19.2003 21.2366 19.7477 20.646 20.2538C20.0288 20.7833 19.4615 21.358 18.8909 21.9367C18.2328 22.6041 17.5695 23.2496 16.8575 23.8597C16.4382 24.2289 16.0494 24.6267 15.6585 25.0253C15.1833 25.5099 14.7051 25.9806 14.1896 26.4228C13.5941 26.9353 13.0444 27.4875 12.4934 28.0469C11.8546 28.6955 11.2084 29.3201 10.5171 29.9131C10.174 30.2134 9.85764 30.5327 9.53883 30.8586C9.33648 31.0652 9.13238 31.2703 8.92433 31.4713C8.87989 31.4713 8.83544 31.4713 8.78965 31.4713C8.66569 28.617 8.62571 25.7661 8.62261 22.9094C8.62185 22.3215 8.61858 21.7335 8.6148 21.1455C8.6123 20.6867 8.61159 20.2278 8.61139 19.7689C8.61098 19.5518 8.60991 19.3347 8.60813 19.1176C8.60583 18.8169 8.60608 18.5162 8.60696 18.2154C8.60647 18.0452 8.60597 17.8751 8.60547 17.6997C8.66947 17.1007 8.84538 16.6335 9.28787 16.2136C12.1939 14.3806 15.512 13.2572 18.7074 12.038C19.0605 11.903 19.4131 11.767 19.7653 11.6299C21.4437 10.9854 23.1568 10.4354 24.8654 9.87663C25.1721 9.77632 25.4786 9.67573 25.785 9.57473C30.8255 7.91564 33.9341 8.18347 38.9588 9.85053Z" fill="white"/>
<path d="M34.1094 43.8242C36.4205 43.8242 38.7317 43.8242 41.1129 43.8242C41.1129 46.976 40.6363 48.8652 38.5539 51.2102C38.481 51.2941 38.4081 51.3781 38.333 51.4646C37.2714 52.6059 35.7628 53.5975 34.3787 54.2989C34.2899 54.2989 34.201 54.2989 34.1094 54.2989C34.1094 50.8422 34.1094 47.3856 34.1094 43.8242Z" fill="white"/>
<path d="M23.7383 43.8242C26.0495 43.8242 28.3606 43.8242 30.7418 43.8242C30.7418 47.2365 30.7418 50.6488 30.7418 54.1646C28.497 53.7169 26.4147 51.6371 25.1693 49.8085C23.9046 47.8825 23.7383 46.1393 23.7383 43.8242Z" fill="white"/>
<path d="M30.7418 33.6172C30.7418 35.8773 30.7418 38.1374 30.7418 40.466C28.4307 40.466 26.1195 40.466 23.7383 40.466C23.7383 39.0036 23.7383 37.5411 23.7383 36.0344C26.6721 34.7593 26.6721 34.7593 27.7998 34.4103C28.4238 34.2121 29.0345 33.9759 29.647 33.7452C30.0684 33.6172 30.0684 33.6172 30.7418 33.6172Z" fill="white"/>
<path d="M34.1094 33.6172C35.1719 33.7685 35.1719 33.7685 35.6824 33.9372C35.7954 33.9744 35.9083 34.0115 36.0246 34.0498C36.1426 34.0899 36.2606 34.1299 36.3822 34.1711C36.5055 34.2126 36.6289 34.254 36.756 34.2966C37.9157 34.6921 39.0449 35.1483 40.1701 35.6315C40.4813 35.7645 40.7924 35.8974 41.1129 36.0344C41.1129 37.4968 41.1129 38.9593 41.1129 40.466C38.8018 40.466 36.4906 40.466 34.1094 40.466C34.1094 38.2059 34.1094 35.9458 34.1094 33.6172Z" fill="white"/>
<path d="M38.8232 50.8047C38.8677 50.9376 38.9121 51.0706 38.9579 51.2076C38.4641 51.7 37.9702 52.1924 37.4764 52.6848C37.3875 52.5518 37.2986 52.4189 37.207 52.2819C37.3011 52.1977 37.3952 52.1136 37.4922 52.0269C37.6148 51.9172 37.7373 51.8074 37.8636 51.6944C38.0464 51.5308 38.0464 51.5308 38.2329 51.3639C38.4339 51.1819 38.6313 50.996 38.8232 50.8047Z" fill="#FCE7E5"/>
<path d="M52.9644 50.5352C53.0088 50.5352 53.0532 50.5352 53.099 50.5352C53.099 50.7567 53.099 50.9783 53.099 51.2066C52.9657 51.2509 52.8324 51.2952 52.695 51.3409C52.695 51.6068 52.695 51.8727 52.695 52.1466C52.5172 52.191 52.3394 52.2353 52.1562 52.2809C52.3834 51.6769 52.6703 51.1087 52.9644 50.5352Z" fill="#F9D7D9"/>
</svg>
