<svg width="107" height="42" viewBox="0 0 107 42" fill="none" xmlns="http://www.w3.org/2000/svg">
<path d="M58.3388 17.4173C58.4593 17.4182 58.4593 17.4182 58.5823 17.4191C60.0538 17.4496 61.2728 17.9808 62.3253 19.0214C62.9544 19.6913 63.3267 20.4049 63.6189 21.2728C63.6372 21.3269 63.6555 21.3811 63.6744 21.4368C64.0245 22.7029 63.7305 24.1504 63.112 25.2754C62.9182 25.6108 62.7031 25.9122 62.4425 26.1991C62.3704 26.2813 62.3704 26.2813 62.2969 26.3651C61.6058 27.1078 60.7591 27.5313 59.7955 27.8167C59.7043 27.8438 59.7043 27.8438 59.6112 27.8715C58.209 28.2161 56.6404 27.8712 55.4161 27.1503C54.2987 26.3983 53.4646 25.2696 53.1698 23.9459C52.9071 22.55 53.0366 20.9998 53.8399 19.8023C54.8974 18.298 56.4907 17.399 58.3388 17.4173Z" fill="#AD080F"/>
<path d="M41.7812 13.9212C42.6305 13.9212 43.4797 13.9212 44.3547 13.9212C44.3789 15.8866 44.4032 17.852 44.4282 19.8769C44.9868 19.2323 45.5441 18.5881 46.0935 17.9359C46.1953 17.8152 46.2974 17.6949 46.3996 17.5746C46.7187 17.1989 47.0356 16.8221 47.3463 16.4395C47.5905 16.1393 47.8434 15.8494 48.1022 15.5618C48.3196 15.3143 48.5257 15.0581 48.7318 14.8012C48.7917 14.7292 48.8516 14.6572 48.9133 14.583C48.9446 14.5265 48.9759 14.47 49.0081 14.4118C49.1818 14.1454 49.3387 13.9561 49.6618 13.8869C50.1469 13.8374 50.6328 13.8611 51.1191 13.8799C51.2688 13.8832 51.4184 13.8862 51.568 13.8889C51.9333 13.8962 52.2981 13.9076 52.6632 13.9212C52.5942 14.014 52.5251 14.1068 52.4559 14.1994C52.4174 14.2511 52.379 14.3027 52.3393 14.3559C52.1666 14.5819 51.9816 14.7961 51.7947 15.0103C51.5298 15.3164 51.268 15.6239 51.0134 15.9386C50.7119 16.31 50.3996 16.6712 50.0855 17.032C49.7911 17.3703 49.4991 17.7105 49.2108 18.054C49.038 18.2598 48.8635 18.4637 48.6859 18.6654C48.6486 18.7082 48.6113 18.751 48.5729 18.7951C48.5016 18.8767 48.4298 18.958 48.3574 19.0387C48.1592 19.2673 48.0589 19.4284 48.031 19.7298C48.0846 19.8869 48.0846 19.8869 48.1832 20.0331C48.2183 20.0903 48.2535 20.1475 48.2896 20.2065C48.3286 20.2675 48.3676 20.3286 48.4078 20.3916C48.4478 20.4561 48.4877 20.5206 48.5289 20.587C48.6561 20.792 48.7847 20.9962 48.9133 21.2004C49.0334 21.3936 49.153 21.5871 49.2726 21.7806C49.3521 21.9092 49.4318 22.0376 49.5116 22.1661C49.8227 22.667 50.1271 23.1716 50.4297 23.6777C50.8843 24.4379 51.3462 25.1936 51.813 25.9463C51.8558 26.0153 51.8986 26.0843 51.9427 26.1554C52.0256 26.2888 52.1085 26.4222 52.1916 26.5556C52.8102 27.5514 52.8102 27.5514 52.8102 27.7442C52.4036 27.7717 51.9974 27.7916 51.59 27.8048C51.4518 27.8103 51.3137 27.8178 51.1757 27.8274C50.0653 27.9026 50.0653 27.9026 49.7468 27.6454C49.5313 27.3864 49.3977 27.0921 49.2689 26.7829C49.1825 26.584 49.0702 26.4058 48.9538 26.2231C48.9148 26.1591 48.8758 26.0951 48.8356 26.0291C48.796 25.9642 48.7565 25.8994 48.7157 25.8325C48.6724 25.7614 48.629 25.6902 48.5844 25.6169C48.4048 25.3221 48.2251 25.0274 48.0454 24.7327C47.4484 23.7537 46.8548 22.7728 46.2664 21.7886C45.952 21.9294 45.7703 22.148 45.5541 22.4089C45.5189 22.4506 45.4837 22.4923 45.4474 22.5352C45.3708 22.6262 45.2958 22.7186 45.2222 22.8121C45.0899 22.965 45.0899 22.965 44.9162 23.1086C44.4694 23.5236 44.388 23.8646 44.3545 24.4598C44.3424 24.91 44.3449 25.3593 44.3501 25.8096C44.3499 25.9971 44.3493 26.1847 44.3485 26.3723C44.3466 26.8298 44.3508 27.2866 44.3547 27.7442C43.5054 27.7442 42.6562 27.7442 41.7812 27.7442C41.7812 23.1826 41.7812 18.621 41.7812 13.9212Z" fill="#AE070E"/>
<path d="M73.7867 17.4174C73.8742 17.4179 73.9618 17.4185 74.052 17.4191C75.2821 17.4421 76.298 17.8136 77.2028 18.6682C77.8052 19.3244 78.0634 20.0557 78.0533 20.932C78.0534 21.0429 78.0534 21.0429 78.0534 21.1561C78.0533 21.3988 78.0516 21.6414 78.0498 21.8841C78.0494 22.0531 78.0491 22.222 78.0489 22.391C78.048 22.8344 78.0459 23.2777 78.0434 23.7211C78.0412 24.174 78.0402 24.627 78.0391 25.08C78.0367 25.9677 78.0328 26.8555 78.0283 27.7433C77.2761 27.7433 76.5239 27.7433 75.749 27.7433C75.7247 27.4278 75.7004 27.1124 75.6754 26.7874C75.5981 26.8633 75.5208 26.9391 75.4411 27.0172C74.4955 27.8395 73.227 28.0525 72.0121 27.9794C71.0574 27.8867 70.2355 27.4753 69.6236 26.7409C69.114 26.0277 69.0585 25.2164 69.1316 24.3611C69.3245 23.5676 69.8244 22.9403 70.5056 22.4999C72.0221 21.6767 73.9104 21.5267 75.6019 21.3465C75.6 20.84 75.5552 20.4652 75.2211 20.0712C74.7145 19.6103 74.1145 19.5486 73.455 19.5614C73.0835 19.5885 72.8262 19.6789 72.5138 19.8759C72.4357 19.9227 72.4357 19.9227 72.3561 19.9704C71.958 20.2356 71.7568 20.5486 71.5579 20.9788C71.1382 20.9081 70.7833 20.7351 70.3999 20.5561C70.3285 20.5244 70.2572 20.4927 70.1836 20.4601C70.1159 20.4285 70.0481 20.3968 69.9783 20.3642C69.9163 20.3358 69.8543 20.3074 69.7905 20.2781C69.6463 20.17 69.6463 20.17 69.5833 19.9863C69.5587 19.5581 69.9504 19.1626 70.208 18.8448C70.5538 18.4739 70.9752 18.2178 71.4109 17.9642C71.4872 17.9197 71.4872 17.9197 71.5651 17.8743C72.2692 17.4941 72.9968 17.4104 73.7867 17.4174Z" fill="#AD080F"/>
<path d="M85.0791 17.4173C85.1571 17.4181 85.235 17.4188 85.3154 17.4195C86.3906 17.4439 87.1461 17.8323 87.9489 18.5266C88.9664 19.5927 88.9331 20.9955 88.926 22.3652C88.9257 22.5206 88.9255 22.6761 88.9254 22.8315C88.9248 23.2383 88.9234 23.645 88.9217 24.0517C88.9202 24.4677 88.9196 24.8838 88.9188 25.2998C88.9173 26.1143 88.9147 26.9287 88.9116 27.7432C88.0867 27.7432 87.2617 27.7432 86.4117 27.7432C86.4107 27.5455 86.4096 27.3477 86.4085 27.1439C86.4048 26.4898 86.3999 25.8356 86.3944 25.1815C86.3911 24.785 86.3882 24.3885 86.3863 23.9919C86.3844 23.6091 86.3814 23.2263 86.3777 22.8435C86.3765 22.6976 86.3756 22.5517 86.3752 22.4058C86.3744 22.2011 86.3724 21.9964 86.37 21.7917C86.3701 21.7317 86.3702 21.6717 86.3703 21.6098C86.3606 21.0146 86.1574 20.5912 85.7494 20.1554C85.2615 19.7143 84.7391 19.6818 84.098 19.7004C83.7567 19.7378 83.5259 19.823 83.2501 20.0229C83.1728 20.0745 83.0954 20.1261 83.0157 20.1792C82.5832 20.5776 82.4256 21.0512 82.3977 21.6272C82.389 21.9666 82.3885 22.3057 82.3893 22.6452C82.3884 22.7925 82.3872 22.9398 82.386 23.0871C82.383 23.4727 82.3823 23.8583 82.382 24.2439C82.3813 24.6382 82.3785 25.0325 82.376 25.4269C82.3712 26.199 82.369 26.9711 82.3678 27.7432C81.5671 27.7432 80.7664 27.7432 79.9414 27.7432C79.9414 24.4191 79.9414 21.095 79.9414 17.6701C80.6936 17.6701 81.4458 17.6701 82.2207 17.6701C82.2571 18.1796 82.2571 18.1796 82.2943 18.6995C82.3655 18.6115 82.4368 18.5236 82.5102 18.4329C83.2144 17.6341 84.0389 17.4067 85.0791 17.4173Z" fill="#AE0A11"/>
<path d="M96.9276 17.5977C97.7283 17.5977 98.529 17.5977 99.354 17.5977C99.354 20.9461 99.354 24.2945 99.354 27.7443C98.5776 27.7443 97.8011 27.7443 97.0012 27.7443C96.9769 27.4046 96.9526 27.0649 96.9276 26.715C96.8639 26.8014 96.8002 26.8878 96.7346 26.9769C96.2297 27.5535 95.4067 27.9071 94.6483 27.9649C93.4966 28.0362 92.5349 27.8545 91.6199 27.0964C90.8684 26.3904 90.4227 25.3943 90.3772 24.3601C90.3747 24.1838 90.3747 24.0077 90.3754 23.8314C90.3754 23.7646 90.3754 23.6978 90.3754 23.6291C90.3754 23.4095 90.376 23.1899 90.3766 22.9703C90.3767 22.8176 90.3768 22.6649 90.3769 22.5122C90.3772 22.1112 90.3779 21.7101 90.3787 21.309C90.3795 20.8995 90.3798 20.4899 90.3802 20.0803C90.381 19.2773 90.3823 18.4742 90.3838 17.6712C91.1845 17.6712 91.9852 17.6712 92.8101 17.6712C92.8108 17.8607 92.8115 18.0503 92.8122 18.2456C92.8147 18.8742 92.8188 19.5028 92.8237 20.1314C92.8266 20.5123 92.8289 20.8931 92.8301 21.274C92.8312 21.642 92.8337 22.0101 92.8372 22.3781C92.8383 22.518 92.8389 22.6579 92.839 22.7978C92.8246 24.0197 92.8246 24.0197 93.3524 25.0928C93.9711 25.5789 94.447 25.7761 95.2365 25.6856C95.8925 25.5083 96.2973 25.2456 96.6407 24.6673C96.9566 24.0094 96.8986 23.2935 96.8989 22.5808C96.9 22.4368 96.9012 22.2928 96.9026 22.1488C96.9058 21.7719 96.9073 21.395 96.9084 21.0181C96.9098 20.6326 96.9129 20.2472 96.9159 19.8618C96.9214 19.1071 96.9249 18.3524 96.9276 17.5977Z" fill="#AD0910"/>
<path d="M102.222 15.3174C103.023 15.3174 103.824 15.3174 104.649 15.3174C104.649 16.0938 104.649 16.8703 104.649 17.6702C105.425 17.6702 106.202 17.6702 107.002 17.6702C107.002 18.3739 107.002 19.0775 107.002 19.8025C106.225 19.8025 105.449 19.8025 104.649 19.8025C104.653 20.6376 104.653 20.6376 104.661 21.4726C104.664 21.8136 104.667 22.1545 104.669 22.4955C104.67 22.7706 104.672 23.0456 104.676 23.3207C104.677 23.4253 104.677 23.5299 104.678 23.6344C104.678 24.3237 104.713 24.7978 105.159 25.3446C105.528 25.6352 105.912 25.6399 106.363 25.6571C106.574 25.6662 106.784 25.6753 107.002 25.6846C107.002 26.364 107.002 27.0434 107.002 27.7434C105.854 27.9346 104.653 27.9435 103.633 27.3252C102.988 26.8502 102.617 26.2967 102.369 25.5376C102.344 25.4602 102.318 25.3829 102.292 25.3032C102.169 24.802 102.204 24.2787 102.208 23.766C102.208 23.6515 102.208 23.5369 102.209 23.4224C102.209 23.1226 102.211 22.8229 102.212 22.5231C102.214 22.2165 102.214 21.9099 102.215 21.6033C102.217 21.0031 102.219 20.4028 102.222 19.8025C101.664 19.8025 101.106 19.8025 100.531 19.8025C100.531 19.0989 100.531 18.3952 100.531 17.6702C100.774 17.6217 101.017 17.5732 101.267 17.5232C101.654 17.3771 101.837 17.1886 102.075 16.8614C102.14 16.6659 102.162 16.532 102.172 16.3298C102.175 16.2766 102.178 16.2234 102.181 16.1686C102.185 16.068 102.185 16.068 102.19 15.9653C102.201 15.7515 102.211 15.5377 102.222 15.3174Z" fill="#AD070D"/>
<path d="M65.2383 13.7002C66.039 13.7002 66.8397 13.7002 67.6647 13.7002C67.6647 18.3346 67.6647 22.969 67.6647 27.7438C66.864 27.7438 66.0632 27.7438 65.2383 27.7438C65.2383 23.1094 65.2383 18.475 65.2383 13.7002Z" fill="#AD080F"/>
<path d="M59.5642 19.8574C60.3293 20.3092 60.9274 20.9327 61.1642 21.8118C61.3062 22.8261 61.2079 23.8558 60.5898 24.6972C60.1653 25.2207 59.6462 25.6195 58.9597 25.7074C58.7748 25.7174 58.5921 25.7196 58.407 25.7174C58.3419 25.7167 58.2769 25.7159 58.2099 25.7152C57.4317 25.694 56.9321 25.4729 56.3638 24.9333C55.6344 24.0673 55.5361 23.0969 55.6038 22.0089C55.7167 21.2527 56.1827 20.5663 56.7802 20.0972C57.614 19.6065 58.6601 19.4199 59.5642 19.8574Z" fill="#FDFBFB"/>
<path d="M75.6041 23.2588C75.6502 24.0763 75.5681 24.659 75.0434 25.3037C74.5213 25.853 73.8182 26.1185 73.0674 26.1493C72.618 26.1369 72.2799 26.0173 71.9369 25.7265C71.6677 25.4019 71.6001 25.164 71.6104 24.7474C71.6579 24.4097 71.8572 24.2097 72.0932 23.9803C72.6247 23.6299 73.224 23.5515 73.8421 23.4527C73.9911 23.4288 74.1399 23.4038 74.2888 23.3787C74.7334 23.3059 75.1524 23.2497 75.6041 23.2588Z" fill="#FCF8F7"/>
<path d="M90.3828 30.3183C90.6664 30.3122 90.95 30.3062 91.2422 30.2999C91.3753 30.2959 91.3753 30.2959 91.5112 30.2918C92.0888 30.2858 92.0888 30.2858 92.383 30.4487C92.581 30.6941 92.6191 30.8893 92.5886 31.2006C92.4691 31.4534 92.4691 31.4534 92.2945 31.6418C92.0998 31.6903 92.0998 31.6903 91.9269 31.7153C91.9729 31.7764 92.019 31.8376 92.0665 31.9006C92.1272 31.9813 92.1879 32.062 92.2485 32.1427C92.2789 32.1829 92.3092 32.2232 92.3405 32.2646C92.7357 32.7905 92.7357 32.7905 92.7357 33.0388C92.534 33.0652 92.534 33.0652 92.2945 33.0388C92.1331 32.8561 92.1331 32.8561 91.9912 32.616C91.7133 32.1039 91.7133 32.1039 91.2387 31.8176C91.1807 31.8142 91.1227 31.8107 91.0629 31.8072C90.9598 31.8012 90.8567 31.7951 90.7504 31.7888C90.7504 32.2013 90.7504 32.6138 90.7504 33.0388C90.6291 33.0388 90.5078 33.0388 90.3828 33.0388C90.3828 32.141 90.3828 31.2433 90.3828 30.3183Z" fill="#252525"/>
<path d="M105.455 30.3184C105.625 30.3184 105.795 30.3184 105.97 30.3184C106.074 30.5726 106.178 30.8269 106.282 31.0812C106.311 31.1522 106.341 31.2232 106.371 31.2963C106.429 31.4392 106.487 31.5821 106.546 31.7251C106.602 31.8637 106.659 32.0022 106.716 32.1405C106.743 32.2044 106.769 32.2682 106.796 32.334C106.831 32.4184 106.831 32.4184 106.866 32.5045C106.929 32.6812 106.967 32.8543 106.999 33.0388C106.854 33.0388 106.708 33.0388 106.558 33.0388C106.461 32.7962 106.364 32.5536 106.264 32.3036C105.876 32.2793 105.488 32.255 105.088 32.2301C105.065 32.3499 105.042 32.4697 105.019 32.5931C104.95 32.9561 104.95 32.9561 104.867 33.0388C104.72 33.0418 104.573 33.042 104.426 33.0388C104.469 32.7944 104.529 32.5746 104.622 32.3446C104.647 32.2839 104.671 32.2232 104.696 32.1606C104.735 32.0653 104.735 32.0653 104.775 31.9681C104.801 31.903 104.828 31.8378 104.855 31.7707C105.052 31.2852 105.251 30.8009 105.455 30.3184Z" fill="#323232"/>
<path d="M80.9715 30.3184C81.1413 30.3184 81.3112 30.3184 81.4862 30.3184C81.5566 30.4768 81.627 30.6352 81.6973 30.7937C81.7469 30.9051 81.7968 31.0164 81.8472 31.1274C82.0223 31.5148 82.1869 31.9065 82.3501 32.299C82.3735 32.3548 82.3969 32.4105 82.421 32.468C82.5891 32.8746 82.5891 32.8746 82.5891 33.0388C82.3823 33.0618 82.3823 33.0618 82.1479 33.0388C81.9206 32.7723 81.9139 32.5909 81.8538 32.2301C81.4656 32.2301 81.0773 32.2301 80.6774 32.2301C80.6046 32.497 80.5318 32.7639 80.4568 33.0388C80.3112 33.0388 80.1656 33.0388 80.0156 33.0388C80.0684 32.6882 80.1969 32.3777 80.3281 32.0508C80.5551 31.4774 80.7683 30.9007 80.9715 30.3184Z" fill="#2D2D2D"/>
<path d="M101.219 30.3638C101.433 30.5571 101.56 30.7327 101.706 30.9796C101.682 31.0281 101.658 31.0766 101.633 31.1266C101.463 31.1496 101.463 31.1496 101.265 31.1266C101.141 30.9474 101.141 30.9474 101.044 30.759C100.789 30.6311 100.515 30.6421 100.236 30.6855C99.9725 30.8828 99.8537 31.0286 99.7944 31.3472C99.7549 31.7648 99.7694 32.0943 100.015 32.4501C100.24 32.6439 100.346 32.6713 100.645 32.6661C100.919 32.5913 101.021 32.5262 101.191 32.3031C101.216 32.2303 101.24 32.1575 101.265 32.0825C101.411 32.0825 101.556 32.0825 101.706 32.0825C101.686 32.3735 101.652 32.5015 101.458 32.7258C101.068 33.0604 100.824 33.0708 100.322 33.0607C100.014 33.0311 99.8641 32.9665 99.6474 32.7442C99.3179 32.3305 99.3089 31.8819 99.3248 31.3682C99.3747 30.9446 99.5213 30.7288 99.8358 30.4373C100.254 30.1582 100.772 30.1486 101.219 30.3638Z" fill="#2B2B2B"/>
<path d="M85.457 30.3184C86.0636 30.3184 86.6702 30.3184 87.2952 30.3184C87.2952 30.4154 87.2952 30.5125 87.2952 30.6125C86.8099 30.6125 86.3246 30.6125 85.8247 30.6125C85.8247 30.8794 85.8247 31.1463 85.8247 31.4213C86.2614 31.4213 86.6982 31.4213 87.1481 31.4213C87.1481 31.5426 87.1481 31.6639 87.1481 31.7889C86.7357 31.7889 86.3232 31.7889 85.8982 31.7889C85.8982 32.2014 85.8982 32.6139 85.8982 33.0388C85.7526 33.0388 85.607 33.0388 85.457 33.0388C85.457 32.1411 85.457 31.2433 85.457 30.3184Z" fill="#2C2C2C"/>
<path d="M90.75 30.6128C90.9277 30.6068 91.1053 30.6024 91.2831 30.599C91.3332 30.5971 91.3833 30.5953 91.435 30.5934C91.6758 30.5899 91.8274 30.5973 92.0356 30.7239C92.0723 30.76 92.1091 30.7962 92.147 30.8334C92.1286 31.0815 92.1286 31.0815 92.0735 31.348C91.8214 31.5408 91.5523 31.51 91.2463 31.5043C91.1534 31.503 91.0605 31.5016 90.9648 31.5003C90.8939 31.4986 90.823 31.4969 90.75 31.4951C90.75 31.2039 90.75 30.9128 90.75 30.6128Z" fill="#F0F0F0"/>
<path d="M95.8242 30.3184C95.9455 30.3184 96.0669 30.3184 96.1919 30.3184C96.1919 31.2161 96.1919 32.1139 96.1919 33.0388C96.0705 33.0388 95.9492 33.0388 95.8242 33.0388C95.8242 32.1411 95.8242 31.2433 95.8242 30.3184Z" fill="#252525"/>
<path d="M105.676 30.7578C105.809 30.9564 105.892 31.1304 105.98 31.3506C106.005 31.4152 106.031 31.4797 106.058 31.5462C106.117 31.7137 106.117 31.7137 106.117 31.8607C105.85 31.8607 105.584 31.8607 105.309 31.8607C105.388 31.4556 105.471 31.121 105.676 30.7578Z" fill="#EDEDED"/>
<path d="M81.1925 30.6846C81.4058 30.7912 81.4168 30.9276 81.4958 31.1487C81.5218 31.2197 81.5478 31.2907 81.5745 31.3638C81.6337 31.5669 81.6337 31.5669 81.6337 31.861C81.3911 31.861 81.1484 31.861 80.8984 31.861C80.984 31.4639 81.0766 31.0738 81.1925 30.6846Z" fill="#EBEBEB"/>
<path d="M18.2203 9.69772C18.5529 9.89302 18.8024 10.1715 19.065 10.4504C19.176 10.566 19.2872 10.6813 19.3985 10.7965C19.4526 10.8526 19.5068 10.9087 19.5625 10.9664C19.7554 11.1591 19.9588 11.3358 20.1658 11.513C20.4745 11.7854 20.7575 12.085 21.0457 12.3788C21.2839 12.6198 21.5241 12.8532 21.7809 13.0744C22.1438 13.3869 22.4752 13.7282 22.8103 14.0699C23.0478 14.3101 23.2871 14.5428 23.5433 14.7632C23.9237 15.0909 24.2707 15.4504 24.6223 15.8084C24.9165 16.1058 25.2173 16.3876 25.5344 16.6604C25.8256 16.9184 26.0936 17.2004 26.3657 17.4782C26.5944 17.7098 26.8259 17.9329 27.0725 18.1454C27.436 18.4588 27.7684 18.8008 28.1042 19.1432C28.7097 19.7564 28.7097 19.7564 29.4001 20.2676C29.7111 20.4824 29.9378 20.7005 30.0894 21.052C30.3059 22.2965 30.1602 23.7292 29.8689 24.9489C29.8469 25.0437 29.8469 25.0437 29.8246 25.1404C29.2702 27.4842 28.1436 29.5939 26.4866 31.3458C26.4004 31.4449 26.3146 31.5445 26.2293 31.6445C25.7406 32.2027 25.2114 32.6933 24.63 33.1537C24.5274 33.2365 24.4259 33.3206 24.3248 33.4053C23.8531 33.7984 23.3686 34.1555 22.8563 34.4936C22.7796 34.5443 22.7029 34.595 22.6238 34.6472C18.694 37.2193 18.694 37.2193 17.3314 37.2299C16.9693 37.1231 16.6293 36.9817 16.2848 36.8281C16.2102 36.7951 16.1357 36.7622 16.0588 36.7282C13.5714 35.6145 11.247 34.1207 9.28141 32.2281C9.24291 32.1912 9.2044 32.1543 9.16473 32.1163C8.64889 31.6196 8.17454 31.1056 7.73735 30.537C7.706 30.4965 7.67465 30.4561 7.64236 30.4144C6.86224 29.4026 6.2199 28.3458 5.75213 27.1547C5.71777 27.0726 5.71777 27.0726 5.68272 26.9887C5.16259 25.7323 4.90688 24.3879 4.79629 23.0372C4.7884 22.9537 4.78051 22.8701 4.77238 22.784C4.63671 21.204 4.63671 21.204 4.97379 20.7665C5.16643 20.572 5.38447 20.4215 5.61215 20.2708C5.86592 20.0875 6.07404 19.8576 6.2898 19.632C6.54152 19.3737 6.79621 19.1245 7.06958 18.889C7.38123 18.6198 7.6697 18.3313 7.95793 18.0374C8.29025 17.6986 8.62771 17.375 8.9873 17.0652C9.24389 16.8372 9.4823 16.5913 9.72257 16.3463C10.0081 16.0553 10.2934 15.7691 10.6026 15.5031C10.9263 15.2242 11.2247 14.9232 11.524 14.6185C11.8698 14.2663 12.2195 13.9278 12.5937 13.6059C12.8365 13.3908 13.0616 13.1588 13.2886 12.9273C13.6047 12.6078 13.9212 12.2979 14.2651 12.0083C14.5643 11.7386 14.843 11.4478 15.1263 11.1617C15.4066 10.8798 15.6902 10.6082 15.995 10.3528C16.1328 10.2318 16.2558 10.1014 16.3813 9.9679C16.9289 9.41661 17.5483 9.3878 18.2203 9.69772Z" fill="#AE070D"/>
<path d="M23.2259 1.13171C23.2932 1.15312 23.3605 1.17453 23.4299 1.19658C24.8794 1.65883 26.3096 2.16538 27.732 2.70512C27.9464 2.78646 28.1609 2.86749 28.3755 2.94848C30.5823 3.78295 30.5823 3.78295 31.6396 4.29328C31.7374 4.34052 31.8354 4.38746 31.9335 4.43416C33.1038 4.99228 34.1553 5.58141 34.6521 6.85099C34.8824 7.59747 34.8909 8.29544 34.8876 9.06885C34.8875 9.20407 34.8875 9.33928 34.8876 9.4745C34.8875 9.84253 34.8865 10.2106 34.8852 10.5786C34.8844 10.8102 34.8839 11.0417 34.8835 11.2733C34.8815 12.4499 34.8766 13.6265 34.8706 14.8031C34.8702 14.8927 34.8698 14.9824 34.8693 15.0748C34.863 16.3554 34.8549 17.6359 34.845 18.9165C34.8431 19.1807 34.8414 19.4449 34.8397 19.7091C34.837 20.129 34.8336 20.5489 34.8296 20.9688C34.8283 21.1223 34.8272 21.2758 34.8263 21.4292C34.7935 26.9405 32.7592 31.4536 28.8619 35.3086C28.6118 35.5407 28.3476 35.7535 28.0812 35.9664C27.9098 36.106 27.7484 36.2507 27.5869 36.4015C26.7398 37.1623 25.7522 37.7881 24.7975 38.4051C24.7253 38.4521 24.6531 38.4991 24.5786 38.5476C23.7706 39.0592 22.9217 39.5018 22.077 39.9492C22.0221 39.9784 21.9672 40.0076 21.9106 40.0377C18.0853 42.0611 18.0853 42.0611 16.9428 41.7264C16.7035 41.6399 16.4675 41.5474 16.2317 41.4519C16.1464 41.4181 16.0612 41.3844 15.9734 41.3496C15.3298 41.0931 14.6914 40.8281 14.0626 40.5374C14.004 40.5105 13.9454 40.4836 13.8851 40.4559C12.0361 39.6041 10.2503 38.6022 8.62165 37.3757C8.58076 37.3449 8.53986 37.3141 8.49772 37.2824C8.2183 37.0711 7.9418 36.8562 7.66581 36.6405C7.60496 36.594 7.54411 36.5476 7.48142 36.4997C6.25709 35.5502 5.08358 34.4105 4.13653 33.1847C4.06093 33.0891 3.98529 32.9936 3.90963 32.8981C2.73783 31.4066 1.76784 29.7523 1.12194 27.9643C1.0993 27.9056 1.07666 27.8469 1.05333 27.7864C0.858608 27.2731 0.718691 26.7579 0.598065 26.2227C0.578996 26.1388 0.559928 26.0549 0.540281 25.9685C0.399939 25.3362 0.292578 24.7131 0.239623 24.0674C0.233787 24.0013 0.227952 23.9351 0.221939 23.8669C0.158784 23.0872 0.151089 22.3098 0.145417 21.5279C0.144106 21.3815 0.14276 21.2351 0.141385 21.0888C0.138529 20.7799 0.135849 20.471 0.133316 20.1622C0.12671 19.3594 0.11901 18.5566 0.111238 17.7539C0.110486 17.6752 0.109734 17.5966 0.108959 17.5155C0.0972185 16.2986 0.0785245 15.0822 0.0512109 13.8656C0.0255908 12.6853 0.00956866 11.5053 0.00608477 10.3248C0.00554335 10.158 0.00476771 9.99131 0.00372873 9.82459C-0.0133196 6.85498 -0.0133196 6.85498 0.974889 5.68576C1.44203 5.26072 1.94326 4.94454 2.50516 4.66099C2.61464 4.60488 2.61464 4.60488 2.72633 4.54765C3.68445 4.06323 4.67053 3.64565 5.67854 3.27696C6.07658 3.1313 6.46893 2.97311 6.86161 2.81363C7.37289 2.60705 7.8846 2.41947 8.4094 2.24983C8.74407 2.14164 9.07567 2.02498 9.40747 1.90834C9.46939 1.88664 9.53131 1.86494 9.59511 1.84258C9.91122 1.73169 10.227 1.62003 10.5425 1.50739C11.2595 1.25229 11.9778 1.01778 12.7098 0.810032C12.9093 0.752877 13.1083 0.694231 13.3073 0.635407C17.0267 -0.462839 19.5643 -0.0337691 23.2259 1.13171ZM11.1082 3.33615C10.8675 3.41722 10.6267 3.49789 10.3857 3.57773C9.89453 3.74039 9.40496 3.90526 8.92035 4.08656C8.86261 4.10806 8.80486 4.12957 8.74537 4.15172C8.62135 4.19793 8.49736 4.24421 8.37339 4.29055C8.17563 4.36409 7.97748 4.4365 7.77926 4.50876C6.24469 5.07144 4.70655 5.6676 3.24962 6.41184C3.18847 6.44239 3.12732 6.47295 3.06431 6.50443C2.6176 6.74107 2.30057 7.03327 2.05481 7.47797C1.90571 8.04727 1.91988 8.63959 1.92097 9.22366C1.9209 9.30964 1.92083 9.39563 1.92076 9.48421C1.92071 9.66677 1.92084 9.84932 1.92115 10.0319C1.92153 10.3013 1.92116 10.5707 1.92068 10.8401C1.92043 11.7369 1.93152 12.6324 1.96102 13.5288C2.00054 14.731 2.01457 15.9327 2.02236 17.1355C2.02297 17.2257 2.02358 17.3158 2.02421 17.4087C2.02992 18.2523 2.03512 19.0959 2.03932 19.9395C2.04167 20.4064 2.04471 20.8732 2.04816 21.34C2.04932 21.5152 2.05023 21.6904 2.05087 21.8656C2.05587 23.2155 2.11484 24.5097 2.45461 25.8229C2.47703 25.9106 2.49945 25.9984 2.52255 26.0889C2.84124 27.2938 3.3304 28.4112 3.91595 29.5084C3.96107 29.5942 4.00618 29.6801 4.05267 29.7686C4.43434 30.4673 4.89588 31.0891 5.38648 31.7142C5.44089 31.7844 5.49529 31.8546 5.55134 31.927C7.11561 33.8956 9.06992 35.5144 11.1956 36.8429C11.2873 36.9003 11.3788 36.958 11.4701 37.0162C12.922 37.9421 14.504 38.7083 16.0948 39.3623C16.2507 39.4271 16.4051 39.4946 16.5594 39.5634C16.6408 39.5982 16.7222 39.633 16.8061 39.6688C16.871 39.6972 16.9359 39.7255 17.0028 39.7547C17.733 39.911 18.3703 39.5827 19.0211 39.2874C19.1199 39.2434 19.2188 39.1994 19.3178 39.1554C19.6009 39.0293 19.8831 38.9011 20.1653 38.7727C20.235 38.7415 20.3047 38.7104 20.3764 38.6782C21.9393 37.9785 23.3914 37.0993 24.7975 36.1258C24.8474 36.0916 24.8974 36.0573 24.9488 36.0221C25.5942 35.5792 26.193 35.0959 26.7827 34.5817C26.8379 34.5348 26.893 34.4879 26.9499 34.4395C27.3304 34.1139 27.6818 33.7623 28.0327 33.4053C28.4003 33.0377 28.4003 33.0377 28.5247 32.921C29.2782 32.1994 29.8845 31.3308 30.459 30.4642C30.5063 30.394 30.5536 30.3238 30.6024 30.2514C31.3955 29.0239 31.9632 27.6728 32.3707 26.2732C32.386 26.2216 32.4012 26.1701 32.4169 26.1169C32.8328 24.6792 32.9184 23.2293 32.9205 21.7407C32.9215 21.5684 32.9227 21.3961 32.9239 21.2237C32.927 20.7722 32.9288 20.3206 32.9304 19.8691C32.933 19.1565 32.9375 18.4439 32.9419 17.7313C32.9429 17.5551 32.9439 17.3789 32.9449 17.2027C32.9529 15.741 32.9782 14.2801 33.0114 12.8187C33.0137 12.7163 33.0137 12.7163 33.0161 12.6117C33.0184 12.5123 33.0184 12.5123 33.0207 12.4109C33.0366 11.6986 33.0462 10.9865 33.0461 10.2741C33.0463 10.0832 33.0477 9.89234 33.049 9.70144C33.1033 8.28249 33.1033 8.28249 32.6068 7.01097C30.8431 5.39681 27.4949 4.59047 25.27 3.83525C25.0614 3.76371 24.8539 3.68918 24.6465 3.61422C19.5191 1.76788 16.2908 1.59013 11.1082 3.33615Z" fill="#AD080F"/>
<path d="M19.2806 16.567C19.3881 16.6007 19.3881 16.6007 19.4977 16.6352C20.3956 16.9198 21.2846 17.223 22.1573 17.578C22.2212 17.6038 22.2851 17.6297 22.3509 17.6564C23.1663 17.9964 23.9063 18.3385 24.2759 19.1819C24.4315 19.6858 24.4064 20.2074 24.4027 20.7298C24.403 20.8552 24.4033 20.9806 24.4038 21.106C24.4043 21.3681 24.4036 21.6302 24.4018 21.8924C24.3998 22.2237 24.401 22.555 24.4031 22.8863C24.4175 25.5172 24.0253 27.6144 22.1665 29.595C21.0809 30.6297 19.1006 32.0755 17.5495 32.0501C16.6959 31.9073 15.8214 31.4245 15.0896 30.9782C14.9863 30.9153 14.9863 30.9153 14.881 30.8512C13.4352 29.9291 12.2723 28.7193 11.5695 27.1456C11.5493 27.1009 11.5292 27.0562 11.5084 27.0101C11.1161 26.086 11.0842 25.1935 11.0847 24.206C11.0841 24.0638 11.0836 23.9215 11.083 23.7793C11.082 23.4827 11.0819 23.1862 11.0823 22.8896C11.0827 22.5109 11.0805 22.1322 11.0775 21.7534C11.0756 21.4603 11.0754 21.1672 11.0756 20.8741C11.0755 20.7344 11.0748 20.5948 11.0735 20.4552C11.0615 19.0272 11.0615 19.0272 11.4868 18.5522C13.1962 16.9329 17.096 15.8752 19.2806 16.567Z" fill="#FDFAFA"/>
<path d="M21.2697 5.39187C21.4411 5.44838 21.6125 5.50487 21.7838 5.56133C22.2748 5.72356 22.7651 5.88782 23.2549 6.05361C23.316 6.07426 23.377 6.09491 23.4399 6.11619C24.1812 6.36854 24.9082 6.6514 25.6339 6.94541C25.9073 7.05608 26.182 7.16266 26.4579 7.2668C27.3099 7.59339 28.1534 7.94239 28.9716 8.34672C29.018 8.36941 29.0644 8.39209 29.1122 8.41546C29.3419 8.53146 29.565 8.65723 29.7816 8.79621C29.822 8.82183 29.8624 8.84745 29.904 8.87385C30.3289 9.3188 30.2699 9.88981 30.2641 10.4643C30.264 10.5582 30.2639 10.6521 30.2638 10.7488C30.2634 11.0018 30.2616 11.2549 30.2595 11.5079C30.258 11.717 30.2572 11.9261 30.2565 12.1352C30.2503 13.8338 30.221 15.5319 30.1664 17.2297C29.841 16.9534 29.5198 16.6735 29.206 16.3841C29.1656 16.3469 29.1253 16.3098 29.0837 16.2715C28.7249 15.9382 28.3782 15.5934 28.0357 15.2433C27.8244 15.0287 27.6091 14.8243 27.3808 14.6278C26.9986 14.2977 26.6493 13.9366 26.2957 13.5766C26.0015 13.2792 25.7007 12.9974 25.3836 12.7246C25.0924 12.4666 24.8244 12.1846 24.5523 11.9067C24.3243 11.6759 24.0937 11.4535 23.8477 11.2418C23.4666 10.9132 23.1188 10.5532 22.7664 10.1944C22.4719 9.89668 22.1707 9.61472 21.8534 9.3417C21.6151 9.13025 21.3955 8.90101 21.1732 8.673C20.1242 7.6154 19.0381 6.77734 17.4877 6.76131C16.0524 6.77925 15.0489 7.42448 14.0641 8.40646C14.0043 8.46608 13.9445 8.5257 13.8829 8.58712C13.7791 8.69127 13.6759 8.79599 13.5736 8.90162C13.4287 9.04262 13.2809 9.17424 13.1278 9.30602C12.799 9.59144 12.4941 9.89736 12.1892 10.2079C11.8914 10.511 11.5948 10.8108 11.2724 11.0879C10.9354 11.3778 10.6258 11.6924 10.3143 12.0093C9.95496 12.3747 9.59289 12.7281 9.20418 13.0622C8.97529 13.2643 8.76299 13.4821 8.54962 13.7004C8.29021 13.9657 8.02914 14.2234 7.74772 14.4655C7.42263 14.7461 7.12253 15.0485 6.82175 15.3547C6.47296 15.7099 6.12023 16.0519 5.74279 16.3765C5.55552 16.541 5.38281 16.7158 5.20876 16.8942C5.09829 17.0074 4.98687 17.1196 4.87329 17.2297C4.84903 17.2297 4.82476 17.2297 4.79977 17.2297C4.7321 15.6669 4.71027 14.1059 4.70858 12.5419C4.70816 12.22 4.70637 11.898 4.70431 11.5761C4.70295 11.3249 4.70256 11.0736 4.70245 10.8224C4.70223 10.7035 4.70164 10.5847 4.70067 10.4658C4.69941 10.3011 4.69955 10.1365 4.70003 9.97179C4.69976 9.87863 4.69949 9.78546 4.69922 9.68947C4.73416 9.36149 4.83019 9.10567 5.07176 8.87577C6.65821 7.87216 8.46966 7.25709 10.2141 6.58955C10.4068 6.51566 10.5993 6.44119 10.7916 6.3661C11.7079 6.01323 12.6431 5.71211 13.5759 5.40616C13.7433 5.35124 13.9106 5.29617 14.0779 5.24087C16.8296 4.33249 18.5266 4.47913 21.2697 5.39187Z" fill="#AE070E"/>
<path d="M18.6211 23.9941C19.8828 23.9941 21.1445 23.9941 22.4445 23.9941C22.4445 25.7198 22.1843 26.7542 21.0475 28.0381C21.0077 28.0841 20.9679 28.13 20.9268 28.1774C20.3473 28.8023 19.5237 29.3452 18.7681 29.7292C18.7196 29.7292 18.6711 29.7292 18.6211 29.7292C18.6211 27.8366 18.6211 25.9441 18.6211 23.9941Z" fill="#AE0B12"/>
<path d="M12.9609 23.9941C14.2227 23.9941 15.4844 23.9941 16.7843 23.9941C16.7843 25.8625 16.7843 27.7308 16.7843 29.6557C15.5588 29.4106 14.4221 28.2719 13.7422 27.2707C13.0517 26.2161 12.9609 25.2617 12.9609 23.9941Z" fill="#AD0B11"/>
<path d="M16.7843 18.4053C16.7843 19.6427 16.7843 20.8802 16.7843 22.1551C15.5226 22.1551 14.2609 22.1551 12.9609 22.1551C12.9609 21.3544 12.9609 20.5537 12.9609 19.7288C14.5626 19.0306 14.5626 19.0306 15.1782 18.8395C15.5189 18.731 15.8522 18.6017 16.1866 18.4754C16.4167 18.4053 16.4167 18.4053 16.7843 18.4053Z" fill="#AD0A11"/>
<path d="M18.6211 18.4053C19.2011 18.4881 19.2011 18.4881 19.4799 18.5805C19.5415 18.6008 19.6031 18.6212 19.6667 18.6422C19.7311 18.6641 19.7955 18.686 19.8619 18.7086C19.9292 18.7312 19.9966 18.7539 20.066 18.7773C20.699 18.9938 21.3155 19.2436 21.9298 19.5082C22.0996 19.581 22.2695 19.6538 22.4445 19.7288C22.4445 20.5295 22.4445 21.3302 22.4445 22.1551C21.1828 22.1551 19.921 22.1551 18.6211 22.1551C18.6211 20.9177 18.6211 19.6802 18.6211 18.4053Z" fill="#AD0910"/>
<path d="M21.1948 27.8174C21.2191 27.8902 21.2433 27.963 21.2683 28.038C20.9987 28.3076 20.7292 28.5772 20.4596 28.8468C20.411 28.774 20.3625 28.7012 20.3125 28.6262C20.3639 28.5801 20.4152 28.534 20.4682 28.4866C20.5351 28.4265 20.602 28.3664 20.6709 28.3045C20.7707 28.2149 20.7707 28.2149 20.8726 28.1236C20.9823 28.0239 21.09 27.9222 21.1948 27.8174Z" fill="#FCE7E5"/>
<path d="M28.9138 27.6699C28.9381 27.6699 28.9623 27.6699 28.9873 27.6699C28.9873 27.7912 28.9873 27.9126 28.9873 28.0376C28.9146 28.0618 28.8418 28.0861 28.7668 28.1111C28.7668 28.2567 28.7668 28.4022 28.7668 28.5522C28.6697 28.5765 28.5727 28.6008 28.4727 28.6258C28.5967 28.295 28.7533 27.984 28.9138 27.6699Z" fill="#F9D7D9"/>
</svg>
