<svg width="40" height="40" viewBox="0 0 40 40" fill="none" xmlns="http://www.w3.org/2000/svg">
<rect width="40" height="40" rx="8" fill="#FBFBFB"/>
<path d="M20.1586 19.62C20.1286 19.62 20.1086 19.62 20.0786 19.62C20.0286 19.61 19.9586 19.61 19.8986 19.62C16.9986 19.53 14.8086 17.25 14.8086 14.44C14.8086 11.58 17.1386 9.25 19.9986 9.25C22.8586 9.25 25.1886 11.58 25.1886 14.44C25.1786 17.25 22.9786 19.53 20.1886 19.62C20.1786 19.62 20.1686 19.62 20.1586 19.62ZM19.9986 10.75C17.9686 10.75 16.3086 12.41 16.3086 14.44C16.3086 16.44 17.8686 18.05 19.8586 18.12C19.9086 18.11 20.0486 18.11 20.1786 18.12C22.1386 18.03 23.6786 16.42 23.6886 14.44C23.6886 12.41 22.0286 10.75 19.9986 10.75Z" fill="#685C5C"/>
<path d="M20.1716 30.55C18.2116 30.55 16.2416 30.05 14.7516 29.05C13.3616 28.13 12.6016 26.87 12.6016 25.5C12.6016 24.13 13.3616 22.86 14.7516 21.93C17.7516 19.94 22.6116 19.94 25.5916 21.93C26.9716 22.85 27.7416 24.11 27.7416 25.48C27.7416 26.85 26.9816 28.12 25.5916 29.05C24.0916 30.05 22.1316 30.55 20.1716 30.55ZM15.5816 23.19C14.6216 23.83 14.1016 24.65 14.1016 25.51C14.1016 26.36 14.6316 27.18 15.5816 27.81C18.0716 29.48 22.2716 29.48 24.7616 27.81C25.7216 27.17 26.2416 26.35 26.2416 25.49C26.2416 24.64 25.7116 23.82 24.7616 23.19C22.2716 21.53 18.0716 21.53 15.5816 23.19Z" fill="#685C5C"/>
</svg>
