<svg width="40" height="40" viewBox="0 0 40 40" fill="none" xmlns="http://www.w3.org/2000/svg">
<rect width="40" height="40" rx="8" fill="#FEF0F1"/>
<path d="M20 23.9997C21.6569 23.9997 23 22.6566 23 20.9997C23 19.3429 21.6569 17.9997 20 17.9997C18.3431 17.9997 17 19.3429 17 20.9997C17 22.6566 18.3431 23.9997 20 23.9997Z" stroke="#AF060D" stroke-width="2" stroke-linecap="round" stroke-linejoin="round"/>
<path d="M11 18.5648C11 17.9905 11 17.7033 11.074 17.4388C11.1396 17.2045 11.2474 16.9842 11.392 16.7886C11.5553 16.5678 11.782 16.3915 12.2354 16.0389L19.0177 10.7638C19.369 10.4905 19.5447 10.3539 19.7387 10.3014C19.9098 10.255 20.0902 10.255 20.2613 10.3014C20.4553 10.3539 20.631 10.4905 20.9823 10.7638L27.7646 16.0389C28.218 16.3915 28.4447 16.5678 28.608 16.7886C28.7526 16.9842 28.8604 17.2045 28.926 17.4388C29 17.7033 29 17.9905 29 18.5648V25.7997C29 26.9198 29 27.4799 28.782 27.9077C28.5903 28.284 28.2843 28.59 27.908 28.7818C27.4802 28.9997 26.9201 28.9997 25.8 28.9997H14.2C13.0799 28.9997 12.5198 28.9997 12.092 28.7818C11.7157 28.59 11.4097 28.284 11.218 27.9077C11 27.4799 11 26.9198 11 25.7997V18.5648Z" stroke="#AF060D" stroke-width="2" stroke-linecap="round" stroke-linejoin="round"/>
</svg>
