<svg width="40" height="40" viewBox="0 0 40 40" fill="none" xmlns="http://www.w3.org/2000/svg">
<rect width="40" height="40" rx="8" fill="#FBFBFB"/>
<path d="M20 24.0007C21.6569 24.0007 23 22.6576 23 21.0007C23 19.3439 21.6569 18.0007 20 18.0007C18.3431 18.0007 17 19.3439 17 21.0007C17 22.6576 18.3431 24.0007 20 24.0007Z" stroke="#AF060D" stroke-width="2" stroke-linecap="round" stroke-linejoin="round"/>
<path d="M11 18.5658C11 17.9914 11 17.7043 11.074 17.4398C11.1396 17.2055 11.2474 16.9852 11.392 16.7896C11.5553 16.5688 11.782 16.3925 12.2354 16.0399L19.0177 10.7647C19.369 10.4915 19.5447 10.3549 19.7387 10.3023C19.9098 10.256 20.0902 10.256 20.2613 10.3023C20.4553 10.3549 20.631 10.4915 20.9823 10.7647L27.7646 16.0399C28.218 16.3925 28.4447 16.5688 28.608 16.7896C28.7526 16.9852 28.8604 17.2055 28.926 17.4398C29 17.7043 29 17.9914 29 18.5658V25.8007C29 26.9208 29 27.4809 28.782 27.9087C28.5903 28.285 28.2843 28.591 27.908 28.7827C27.4802 29.0007 26.9201 29.0007 25.8 29.0007H14.2C13.0799 29.0007 12.5198 29.0007 12.092 28.7827C11.7157 28.591 11.4097 28.285 11.218 27.9087C11 27.4809 11 26.9208 11 25.8007V18.5658Z" stroke="#AF060D" stroke-width="2" stroke-linecap="round" stroke-linejoin="round"/>
</svg>
