<svg width="40" height="40" viewBox="0 0 40 40" fill="none" xmlns="http://www.w3.org/2000/svg">
<rect width="40" height="40" rx="8" fill="#630307"/>
<path d="M19.9989 22.1695C17.8689 22.1695 16.1289 20.4395 16.1289 18.2995C16.1289 16.1595 17.8689 14.4395 19.9989 14.4395C22.1289 14.4395 23.8689 16.1695 23.8689 18.3095C23.8689 20.4495 22.1289 22.1695 19.9989 22.1695ZM19.9989 15.9395C18.6989 15.9395 17.6289 16.9995 17.6289 18.3095C17.6289 19.6195 18.6889 20.6795 19.9989 20.6795C21.3089 20.6795 22.3689 19.6195 22.3689 18.3095C22.3689 16.9995 21.2989 15.9395 19.9989 15.9395Z" fill="#CFBFBF"/>
<path d="M20.0016 30.76C18.5216 30.76 17.0316 30.2 15.8716 29.09C12.9216 26.25 9.66164 21.72 10.8916 16.33C12.0016 11.44 16.2716 9.25 20.0016 9.25C20.0016 9.25 20.0016 9.25 20.0116 9.25C23.7416 9.25 28.0116 11.44 29.1216 16.34C30.3416 21.73 27.0816 26.25 24.1316 29.09C22.9716 30.2 21.4816 30.76 20.0016 30.76ZM20.0016 10.75C17.0916 10.75 13.3516 12.3 12.3616 16.66C11.2816 21.37 14.2416 25.43 16.9216 28C18.6516 29.67 21.3616 29.67 23.0916 28C25.7616 25.43 28.7216 21.37 27.6616 16.66C26.6616 12.3 22.9116 10.75 20.0016 10.75Z" fill="#CFBFBF"/>
</svg>
