<svg width="64" height="64" viewBox="0 0 64 64" fill="none" xmlns="http://www.w3.org/2000/svg">
<rect width="64" height="64" rx="32" fill="#FBFBFB"/>
<path d="M32.4991 24.5617H16.9754C16.8112 24.5615 16.65 24.5182 16.5078 24.4361C16.3657 24.354 16.2475 24.2361 16.1653 24.094C16.083 23.952 16.0395 23.7908 16.0391 23.6266C16.0386 23.4625 16.0813 23.3011 16.1629 23.1586L19.8947 16.6242C19.9767 16.481 20.095 16.362 20.2376 16.2791C20.3803 16.1963 20.5423 16.1526 20.7072 16.1523H32.4991C32.7478 16.1523 32.9862 16.2511 33.162 16.4269C33.3378 16.6027 33.4366 16.8412 33.4366 17.0898C33.4366 17.3385 33.3378 17.5769 33.162 17.7528C32.9862 17.9286 32.7478 18.0273 32.4991 18.0273H21.2529L18.591 22.6867H32.4991C32.7478 22.6867 32.9862 22.7855 33.162 22.9613C33.3378 23.1371 33.4366 23.3756 33.4366 23.6242C33.4366 23.8729 33.3378 24.1113 33.162 24.2871C32.9862 24.4629 32.7478 24.5617 32.4991 24.5617Z" fill="#FA6B71"/>
<path d="M48.0241 24.5617H32.5003C32.2517 24.5617 32.0132 24.4629 31.8374 24.2871C31.6616 24.1113 31.5628 23.8729 31.5628 23.6242C31.5628 23.3756 31.6616 23.1371 31.8374 22.9613C32.0132 22.7855 32.2517 22.6867 32.5003 22.6867H46.4084L43.7466 18.0273H32.5003C32.2517 18.0273 32.0132 17.9286 31.8374 17.7528C31.6616 17.5769 31.5628 17.3385 31.5628 17.0898C31.5628 16.8412 31.6616 16.6027 31.8374 16.4269C32.0132 16.2511 32.2517 16.1523 32.5003 16.1523H44.2903C44.4553 16.1526 44.6173 16.1963 44.7599 16.2791C44.9026 16.362 45.0209 16.481 45.1028 16.6242L48.8378 23.158C48.9193 23.3004 48.962 23.4618 48.9616 23.626C48.9612 23.7902 48.9177 23.9513 48.8354 24.0934C48.7532 24.2354 48.635 24.3534 48.4929 24.4355C48.3507 24.5176 48.1895 24.5609 48.0253 24.5611L48.0241 24.5617ZM20.8578 31.5411C19.5803 31.5396 18.3555 31.0314 17.4521 30.1281C16.5487 29.2247 16.0406 27.9999 16.0391 26.7223V23.6242C16.0391 23.3756 16.1378 23.1371 16.3136 22.9613C16.4895 22.7855 16.7279 22.6867 16.9766 22.6867C17.2252 22.6867 17.4637 22.7855 17.6395 22.9613C17.8153 23.1371 17.9141 23.3756 17.9141 23.6242V26.723C17.9084 27.1131 17.9803 27.5005 18.1257 27.8626C18.2711 28.2247 18.487 28.5543 18.7608 28.8322C19.0347 29.1101 19.3611 29.3308 19.7211 29.4814C20.081 29.632 20.4673 29.7096 20.8575 29.7096C21.2477 29.7096 21.634 29.632 21.9939 29.4814C22.3539 29.3308 22.6803 29.1101 22.9542 28.8322C23.228 28.5543 23.4439 28.2247 23.5893 27.8626C23.7347 27.5005 23.8066 27.1131 23.8009 26.723V23.6242C23.8009 23.3756 23.8997 23.1371 24.0755 22.9613C24.2513 22.7855 24.4898 22.6867 24.7384 22.6867C24.9871 22.6867 25.2255 22.7855 25.4014 22.9613C25.5772 23.1371 25.6759 23.3756 25.6759 23.6242V26.723C25.6744 28.0004 25.1663 29.225 24.2631 30.1283C23.3598 31.0315 22.1352 31.5396 20.8578 31.5411Z" fill="#FA6B71"/>
<path d="M28.6156 31.5419C27.3381 31.5404 26.1133 31.0322 25.2099 30.1289C24.3065 29.2255 23.7984 28.0007 23.7969 26.7231V23.625C23.7969 23.3764 23.8956 23.1379 24.0715 22.9621C24.2473 22.7863 24.4857 22.6875 24.7344 22.6875C24.983 22.6875 25.2215 22.7863 25.3973 22.9621C25.5731 23.1379 25.6719 23.3764 25.6719 23.625V26.7238C25.6662 27.1139 25.7381 27.5013 25.8835 27.8634C26.0289 28.2255 26.2448 28.5551 26.5187 28.833C26.7925 29.1109 27.1189 29.3316 27.4789 29.4822C27.8388 29.6328 28.2251 29.7104 28.6153 29.7104C29.0055 29.7104 29.3918 29.6328 29.7517 29.4822C30.1117 29.3316 30.4381 29.1109 30.712 28.833C30.9859 28.5551 31.2018 28.2255 31.3471 27.8634C31.4925 27.5013 31.5644 27.1139 31.5588 26.7238V23.625C31.5588 23.3764 31.6575 23.1379 31.8333 22.9621C32.0092 22.7863 32.2476 22.6875 32.4963 22.6875C32.7449 22.6875 32.9833 22.7863 33.1592 22.9621C33.335 23.1379 33.4338 23.3764 33.4338 23.625V26.7238C33.4323 28.0011 32.9242 29.2258 32.0209 30.129C31.1177 31.0323 29.893 31.5404 28.6156 31.5419Z" fill="#FA6B71"/>
<path d="M36.3806 31.5419C35.1031 31.5404 33.8784 31.0322 32.9751 30.1288C32.0719 29.2254 31.5638 28.0006 31.5625 26.7231V23.625C31.5625 23.3764 31.6613 23.1379 31.8371 22.9621C32.0129 22.7863 32.2514 22.6875 32.5 22.6875C32.7486 22.6875 32.9871 22.7863 33.1629 22.9621C33.3387 23.1379 33.4375 23.3764 33.4375 23.625V26.7238C33.4318 27.1139 33.5037 27.5013 33.6491 27.8634C33.7945 28.2255 34.0104 28.5551 34.2843 28.833C34.5582 29.1109 34.8846 29.3316 35.2445 29.4822C35.6045 29.6328 35.9907 29.7104 36.3809 29.7104C36.7711 29.7104 37.1574 29.6328 37.5174 29.4822C37.8773 29.3316 38.2037 29.1109 38.4776 28.833C38.7515 28.5551 38.9674 28.2255 39.1128 27.8634C39.2581 27.5013 39.3301 27.1139 39.3244 26.7238V23.625C39.3244 23.3764 39.4231 23.1379 39.599 22.9621C39.7748 22.7863 40.0132 22.6875 40.2619 22.6875C40.5105 22.6875 40.749 22.7863 40.9248 22.9621C41.1006 23.1379 41.1994 23.3764 41.1994 23.625V26.7238C41.1977 28.0012 40.6895 29.2258 39.7861 30.1291C38.8828 31.0323 37.6581 31.5404 36.3806 31.5419Z" fill="#FA6B71"/>
<path d="M44.1463 31.5419C42.8688 31.5404 41.644 31.0322 40.7407 30.1288C39.8375 29.2254 39.3294 28.0006 39.3281 26.7231V23.625C39.3281 23.3764 39.4269 23.1379 39.6027 22.9621C39.7785 22.7863 40.017 22.6875 40.2656 22.6875C40.5143 22.6875 40.7527 22.7863 40.9285 22.9621C41.1044 23.1379 41.2031 23.3764 41.2031 23.625V26.7238C41.1974 27.1139 41.2694 27.5013 41.4147 27.8634C41.5601 28.2255 41.776 28.5551 42.0499 28.833C42.3238 29.1109 42.6502 29.3316 43.0101 29.4822C43.3701 29.6328 43.7564 29.7104 44.1466 29.7104C44.5368 29.7104 44.923 29.6328 45.283 29.4822C45.6429 29.3316 45.9693 29.1109 46.2432 28.833C46.5171 28.5551 46.733 28.2255 46.8784 27.8634C47.0238 27.5013 47.0957 27.1139 47.09 26.7238V23.625C47.09 23.3764 47.1888 23.1379 47.3646 22.9621C47.5404 22.7863 47.7789 22.6875 48.0275 22.6875C48.2761 22.6875 48.5146 22.7863 48.6904 22.9621C48.8662 23.1379 48.965 23.3764 48.965 23.625V26.7238C48.9633 28.0012 48.4551 29.2258 47.5518 30.1291C46.6484 31.0323 45.4237 31.5404 44.1463 31.5419Z" fill="#FA6B71"/>
<path d="M40.2595 24.5622C40.0581 24.5621 39.862 24.4971 39.7003 24.3769C39.5387 24.2567 39.42 24.0876 39.362 23.8947L37.397 17.3603C37.3253 17.1222 37.3512 16.8653 37.4689 16.6463C37.5865 16.4272 37.7864 16.2638 38.0245 16.1922C38.2626 16.1205 38.5195 16.1463 38.7386 16.264C38.9576 16.3817 39.121 16.5815 39.1927 16.8197L41.1577 23.354C41.2293 23.5917 41.2037 23.8481 41.0866 24.067C40.9694 24.2859 40.7702 24.4493 40.5327 24.5215C40.4442 24.5487 40.3521 24.5624 40.2595 24.5622ZM24.737 24.5622C24.6453 24.5624 24.5541 24.5489 24.4664 24.5222C24.2289 24.45 24.0297 24.2865 23.9125 24.0676C23.7953 23.8488 23.7698 23.5924 23.8414 23.3547L25.8039 16.8197C25.8756 16.5815 26.0389 16.3817 26.258 16.264C26.3665 16.2057 26.4854 16.1694 26.6079 16.1571C26.7304 16.1447 26.8541 16.1567 26.972 16.1922C27.0899 16.2277 27.1997 16.286 27.295 16.3639C27.3904 16.4419 27.4694 16.5378 27.5277 16.6463C27.586 16.7547 27.6223 16.8736 27.6346 16.9961C27.647 17.1186 27.635 17.2424 27.5995 17.3603L25.6345 23.894C25.5766 24.0871 25.458 24.2563 25.2964 24.3767C25.1347 24.497 24.9386 24.5621 24.737 24.5622ZM32.4983 24.5622C32.2496 24.5622 32.0112 24.4634 31.8354 24.2876C31.6596 24.1118 31.5608 23.8733 31.5608 23.6247V17.0903C31.5608 16.8416 31.6596 16.6032 31.8354 16.4274C32.0112 16.2516 32.2496 16.1528 32.4983 16.1528C32.7469 16.1528 32.9854 16.2516 33.1612 16.4274C33.337 16.6032 33.4358 16.8416 33.4358 17.0903V23.6247C33.4358 23.8733 33.337 24.1118 33.1612 24.2876C32.9854 24.4634 32.7469 24.5622 32.4983 24.5622ZM32.4983 47.8465H18.5508C18.3021 47.8465 18.0637 47.7478 17.8879 47.5719C17.7121 47.3961 17.6133 47.1577 17.6133 46.909V29.8403C17.6133 29.5916 17.7121 29.3532 17.8879 29.1774C18.0637 29.0016 18.3021 28.9028 18.5508 28.9028C18.7994 28.9028 19.0379 29.0016 19.2137 29.1774C19.3895 29.3532 19.4883 29.5916 19.4883 29.8403V45.9715H32.4983C32.7469 45.9715 32.9854 46.0703 33.1612 46.2461C33.337 46.4219 33.4358 46.6604 33.4358 46.909C33.4358 47.1577 33.337 47.3961 33.1612 47.5719C32.9854 47.7478 32.7469 47.8465 32.4983 47.8465Z" fill="#FA6B71"/>
<path d="M46.4475 47.8461H32.5C32.2514 47.8461 32.0129 47.7473 31.8371 47.5715C31.6613 47.3957 31.5625 47.1572 31.5625 46.9086C31.5625 46.66 31.6613 46.4215 31.8371 46.2457C32.0129 46.0699 32.2514 45.9711 32.5 45.9711H45.51V29.8398C45.51 29.5912 45.6088 29.3527 45.7846 29.1769C45.9604 29.0011 46.1989 28.9023 46.4475 28.9023C46.6961 28.9023 46.9346 29.0011 47.1104 29.1769C47.2862 29.3527 47.385 29.5912 47.385 29.8398V46.9086C47.385 47.1572 47.2862 47.3957 47.1104 47.5715C46.9346 47.7473 46.6961 47.8461 46.4475 47.8461Z" fill="#FA6B71"/>
<path d="M39.9255 47.6129C39.6768 47.6129 39.4384 47.5141 39.2626 47.3383C39.0867 47.1625 38.988 46.924 38.988 46.6754V36.7598H26.0117V46.6079C26.0117 46.8565 25.9129 47.095 25.7371 47.2708C25.5613 47.4466 25.3229 47.5454 25.0742 47.5454C24.8256 47.5454 24.5871 47.4466 24.4113 47.2708C24.2355 47.095 24.1367 46.8565 24.1367 46.6079V35.8223C24.1367 35.5736 24.2355 35.3352 24.4113 35.1594C24.5871 34.9835 24.8256 34.8848 25.0742 34.8848H39.9255C40.1741 34.8848 40.4126 34.9835 40.5884 35.1594C40.7642 35.3352 40.863 35.5736 40.863 35.8223V46.6754C40.863 46.924 40.7642 47.1625 40.5884 47.3383C40.4126 47.5141 40.1741 47.6129 39.9255 47.6129Z" fill="#FA6B71"/>
</svg>
