<svg width="100" height="100" viewBox="0 0 100 100" fill="none" xmlns="http://www.w3.org/2000/svg">
<rect width="100" height="100" rx="50" fill="#FAFAFA"/>
<path d="M50.0047 30.7988C39.4127 30.7988 30.8047 39.4068 30.8047 49.9988C30.8047 60.5802 39.4127 69.1988 50.0047 69.1988C60.586 69.1988 69.2047 60.5802 69.2047 49.9988C69.2047 39.4068 60.586 30.7988 50.0047 30.7988ZM61.1087 45.1028L48.3087 57.9028C47.8927 58.3188 47.3487 58.5322 46.8047 58.5322C46.2607 58.5322 45.706 58.3188 45.29 57.9028L38.89 51.5028C38.058 50.6708 38.058 49.3162 38.89 48.4842C39.7327 47.6522 41.0767 47.6522 41.9087 48.4842L42.666 49.2415L46.8047 53.3802L55.082 45.1028L58.09 42.0842C58.9327 41.2522 60.2767 41.2522 61.1087 42.0842C61.9407 42.9162 61.9407 44.2708 61.1087 45.1028Z" fill="#F83A42"/>
</svg>
