<svg width="100" height="100" viewBox="0 0 100 100" fill="none" xmlns="http://www.w3.org/2000/svg">
<rect width="100" height="100" rx="50" fill="#FAFAFA"/>
<path d="M27.8438 47.3046L42.7901 53.8454L68.0126 28.623L27.8438 47.3046Z" fill="#F83A42"/>
<path d="M61.623 47.3486L69.5918 30.207L44.375 55.4294L50.9102 70.3758L52.3718 67.2286C50.7366 65.1398 49.7622 62.5078 49.7622 59.6574C49.7622 53.0158 55.043 47.5894 61.623 47.3486Z" fill="#1D5A78"/>
<path d="M62.08 49.5781C56.5192 49.5781 52 54.0973 52 59.6581C52 65.2133 56.5192 69.7381 62.08 69.7381C67.6352 69.7381 72.16 65.2133 72.16 59.6581C72.16 54.0973 67.6352 49.5781 62.08 49.5781ZM67.9096 57.0877L61.1896 63.8077C60.9712 64.0261 60.6856 64.1381 60.4 64.1381C60.1144 64.1381 59.8232 64.0261 59.6048 63.8077L56.2448 60.4477C55.808 60.0109 55.808 59.2997 56.2448 58.8629C56.6872 58.4261 57.3928 58.4261 57.8296 58.8629L58.2272 59.2605L60.4 61.4333L64.7456 57.0877L66.3248 55.5029C66.7672 55.0661 67.4728 55.0661 67.9096 55.5029C68.3464 55.9397 68.3464 56.6509 67.9096 57.0877Z" fill="#F83A42"/>
</svg>
