<svg width="86" height="86" viewBox="0 0 86 86" fill="none" xmlns="http://www.w3.org/2000/svg">
<path d="M43.0052 7.16675C23.261 7.16675 7.17188 23.2559 7.17188 43.0001C7.17188 62.7442 23.261 78.8334 43.0052 78.8334C62.7494 78.8334 78.8385 62.7442 78.8385 43.0001C78.8385 23.2559 62.7494 7.16675 43.0052 7.16675ZM40.3177 28.6667C40.3177 27.1976 41.536 25.9792 43.0052 25.9792C44.4744 25.9792 45.6927 27.1976 45.6927 28.6667V46.5834C45.6927 48.0526 44.4744 49.2709 43.0052 49.2709C41.536 49.2709 40.3177 48.0526 40.3177 46.5834V28.6667ZM46.3019 58.6951C46.1227 59.1609 45.8719 59.5192 45.5494 59.8776C45.191 60.2001 44.7969 60.4509 44.3669 60.6301C43.9369 60.8092 43.471 60.9167 43.0052 60.9167C42.5394 60.9167 42.0735 60.8092 41.6435 60.6301C41.2135 60.4509 40.8194 60.2001 40.461 59.8776C40.1385 59.5192 39.8877 59.1609 39.7085 58.6951C39.5294 58.2651 39.4219 57.7992 39.4219 57.3334C39.4219 56.8676 39.5294 56.4017 39.7085 55.9717C39.8877 55.5417 40.1385 55.1476 40.461 54.7892C40.8194 54.4667 41.2135 54.2159 41.6435 54.0367C42.5035 53.6784 43.5069 53.6784 44.3669 54.0367C44.7969 54.2159 45.191 54.4667 45.5494 54.7892C45.8719 55.1476 46.1227 55.5417 46.3019 55.9717C46.481 56.4017 46.5885 56.8676 46.5885 57.3334C46.5885 57.7992 46.481 58.2651 46.3019 58.6951Z" fill="#FFC727"/>
</svg>
