<svg width="454" height="435" viewBox="0 0 454 435" fill="none" xmlns="http://www.w3.org/2000/svg">
<path d="M-254 44.0625C-207.847 67.206 -166.957 99.6094 -133.879 139.252C-85.1284 198.406 -87.7801 234.646 -40.9557 268.438C4.55421 301.256 67.017 310.299 117.694 297.902C186.843 280.972 189.971 234.895 278.611 161.916C330.739 119.036 428.49 38.5324 543.783 46.3289C602.03 50.2725 659.937 76.427 713.765 100.723C779.741 130.504 789.215 145.802 824.82 152.851C867.112 161.237 932.498 155.276 1026.53 80.3253" stroke="#4A0305" stroke-width="0.808527" stroke-miterlimit="10"/>
<path d="M-255.297 52.5391C-213.709 72.8709 -176.217 100.682 -144.695 134.584C-141.681 137.87 -138.666 141.247 -135.629 144.714C-86.3799 202.01 -88.3291 236.618 -42.0939 269.572C-21.9401 283.992 0.879395 294.261 25.0377 299.783C42.342 303.722 60.0893 305.368 77.8228 304.679C91.0841 304.156 104.244 302.141 117.055 298.673C131.33 295.003 144.9 289 157.216 280.904C179.88 265.945 195.745 245.752 220.155 220.413C238.541 201.343 258.546 183.902 279.943 168.285C291.275 159.899 304.511 149.791 319.809 139.434C360.741 111.647 413.118 81.4586 475.966 71.0331C497.292 67.3942 518.961 66.1778 540.56 67.4068C543.869 67.5881 547.155 67.8601 550.396 68.1774C582.489 71.2824 613.063 79.5095 644.294 90.4336C667.661 98.5021 689.759 108.565 711.675 118.016C720.854 122.05 729.059 125.722 736.47 129.167C781.232 150.041 792.859 161.237 823.433 166.132C846.664 169.849 876.716 169.192 914.86 155.956C946.137 145.122 983.17 125.609 1026.53 93.3347" stroke="#4A0305" stroke-width="0.808527" stroke-miterlimit="10"/>
<path d="M-256.5 61.0605C-215.343 80.6241 -178.082 107.502 -146.533 140.385C-143.511 143.558 -140.489 146.807 -137.467 150.131C-87.6057 205.59 -88.8069 238.521 -43.2064 270.705C-23.0045 285.313 -0.11235 295.781 24.1519 301.505C41.5582 305.47 59.4218 307.056 77.2543 306.219C90.5356 305.542 103.686 303.259 116.418 299.42C130.622 295.315 144.119 289.071 156.443 280.904C180.014 265.492 196.74 245.955 220.878 222.294C239.351 204.335 259.587 188.283 281.278 174.382C292.61 166.948 305.552 157.837 320.691 148.816C361.034 124.77 410.215 99.5444 472.429 91.3173C493.923 88.3559 515.644 87.3847 537.317 88.4163C540.671 88.5976 543.98 88.8242 547.244 89.1189C579.88 91.9746 609.684 99.0231 641.55 108.746C665.551 116.089 687.445 125.971 709.543 135.286C718.722 139.139 727.017 142.652 734.609 145.938C779.507 165.452 791.542 175.742 822.003 179.368C845.211 182.133 875.037 180.614 913.385 167.22C944.707 156.25 982.217 137.099 1026.53 106.389" stroke="#4A0305" stroke-width="0.808527" stroke-miterlimit="10"/>
<path d="M-257.922 69.4463C-217.101 88.269 -179.992 114.27 -148.363 146.21C-145.348 149.292 -142.311 152.42 -139.297 155.616C-88.7783 209.217 -89.3449 240.516 -44.3563 271.838C-23.0519 286.66 -2.06471 297.335 23.206 303.25C40.729 307.248 58.7252 308.774 76.671 307.783C89.9775 306.947 103.119 304.387 115.767 300.168C129.908 295.63 143.348 289.146 155.701 280.903C180.134 265.039 197.698 246.205 221.587 224.243C240.163 207.385 260.647 192.758 282.621 180.66C294.067 174.178 306.623 166.064 321.581 158.381C361.538 137.847 407.32 117.744 468.899 111.67C490.562 109.395 512.361 108.675 534.127 109.517C537.504 109.675 540.926 109.879 544.099 110.151C576.121 112.774 607.816 118.474 638.745 127.172C663.382 133.767 685.094 143.558 707.464 152.624C716.643 156.341 725.006 159.673 732.802 162.8C777.814 180.932 790.279 190.269 820.604 192.694C843.812 194.553 873.479 192.105 911.963 178.552C943.353 167.582 981.271 148.567 1026.53 119.308" stroke="#4A0305" stroke-width="0.808527" stroke-miterlimit="10"/>
<path d="M-259.242 77.8994C-218.816 95.9904 -181.903 121.08 -150.204 152.011C-147.19 155.003 -144.13 157.995 -141.139 161.077C-90.0759 212.91 -89.8493 242.374 -45.4953 272.993C-23.7149 287.974 -3.43039 298.944 22.2936 304.995C39.9173 309.032 58.0335 310.49 76.076 309.324C89.4431 308.354 102.61 305.524 115.195 300.915C129.24 295.981 142.611 289.303 154.993 281.039C180.286 264.698 198.803 246.635 222.351 226.169C238.964 211.754 258.614 199.153 284.021 186.914C295.557 181.339 307.841 174.2 322.55 167.876C362.349 150.765 404.504 135.92 465.335 131.999C487.136 130.391 509.007 129.914 530.857 130.571C534.28 130.707 537.657 130.888 540.898 131.115C572.978 133.218 604.823 138.04 636.088 145.529C661.404 151.377 682.799 161.1 705.395 169.848C714.461 173.429 723.051 176.647 731.028 179.571C776.13 196.433 789.026 204.706 819.261 205.907C842.469 206.836 871.932 203.505 910.575 189.815C941.965 178.687 980.336 160.012 1026.53 132.248" stroke="#4A0305" stroke-width="0.808527" stroke-miterlimit="10"/>
<path d="M-260.531 86.3535C-220.509 103.725 -183.801 127.903 -152.037 157.814C-149.023 160.692 -145.963 163.548 -142.972 166.494C-91.297 216.355 -90.3678 244.346 -46.671 274.104C-24.4147 289.266 -4.83276 300.53 21.3218 306.718C39.0628 310.789 57.3138 312.18 75.4668 310.843C88.837 309.733 101.967 306.639 114.427 301.664C128.389 296.312 141.701 289.401 154.112 281.062C180.289 264.29 199.78 247.065 222.943 228.096C240.055 214.134 260.135 203.165 285.247 193.147C296.92 188.478 308.932 182.359 323.323 177.282C363.281 163.457 401.561 154.006 461.757 152.193C482.676 151.558 505.816 150.765 527.597 151.513C531.064 151.626 534.396 151.785 537.705 151.966C569.794 153.549 601.723 157.488 633.235 163.752C659.186 168.851 680.422 178.506 703.268 187.073C712.447 190.518 720.991 193.487 729.173 196.298C774.365 212.004 787.76 219.71 817.79 219.234C840.998 218.871 870.281 214.996 909.059 201.102C940.472 189.77 979.319 171.48 1026.44 145.235" stroke="#4A0305" stroke-width="0.808527" stroke-miterlimit="10"/>
<path d="M-261.844 94.7842C-222.218 111.454 -185.708 134.728 -153.871 163.615C-150.857 166.38 -147.774 169.123 -144.805 171.933C-92.4962 219.981 -90.8644 246.249 -47.8249 275.237C-25.1606 290.535 -6.23592 302.117 20.3946 308.462C38.2188 312.544 56.5637 313.866 74.7889 312.383C88.2029 311.119 101.335 307.754 113.703 302.411C127.551 296.62 140.798 289.484 153.253 281.107C180.291 263.859 200.848 247.382 223.512 229.999C241.145 216.4 261.679 207.199 286.451 199.38C298.304 195.617 311.2 193.442 324.073 186.892C365.844 185.146 398.707 168.76 458.065 172.613C479.029 173.996 502.532 172.069 524.222 172.613C527.735 172.726 531.134 172.84 534.398 172.998C569.346 174.653 596.09 176.579 630.359 182.064C656.944 186.393 677.954 196.003 701.048 204.298C710.114 207.607 718.84 210.417 727.226 213.069C772.441 227.393 786.311 233.467 816.296 232.333C839.527 231.404 868.628 226.282 907.543 212.276C939.001 200.943 978.255 182.812 1026.35 158.085" stroke="#4A0305" stroke-width="0.808527" stroke-miterlimit="10"/>
<path d="M-263.156 103.238C-223.931 119.205 -187.622 141.56 -155.705 169.395C-152.668 172.07 -149.585 174.676 -146.639 177.35C-93.582 223.54 -91.2703 248.131 -48.8881 276.37C-25.6572 291.827 -7.52574 303.703 19.5354 310.208C37.5141 314.34 56.0354 315.587 74.4057 313.902C89.3415 312.656 101.603 308.168 113.252 303.137C126.997 296.917 140.196 289.555 152.711 281.13C180.611 263.429 202.323 247.813 224.466 231.903C242.597 218.826 263.675 211.279 287.926 205.59C300.029 202.757 312.63 202.1 325.118 196.388C366.888 199.607 395.899 190.609 454.667 192.898C475.745 193.737 499.52 193.238 521.141 193.714C524.677 193.714 528.122 193.873 531.363 193.986C566.901 195.323 592.874 196.003 627.754 200.558C654.951 204.139 675.757 213.681 699.102 221.727C708.167 224.9 716.961 227.529 725.551 230.022C770.879 243.122 785.18 248.153 815.052 245.728C838.283 243.892 867.18 237.886 906.253 223.721C937.734 212.389 977.442 194.439 1026.49 171.231" stroke="#4A0305" stroke-width="0.808527" stroke-miterlimit="10"/>
<path d="M-264.453 111.669C-225.647 126.957 -189.551 148.383 -157.546 175.129C-154.509 177.712 -151.404 180.206 -148.344 182.721C-94.7429 227.053 -91.6832 249.943 -50.0263 277.412C-26.3194 293.028 -8.89059 305.221 18.6239 311.839C36.6887 316.017 55.3155 317.212 73.7661 315.375C88.9058 313.992 100.963 309.142 112.545 303.816C126.846 297.244 138.609 289.538 151.867 281.152C180.651 263.021 206.692 252.119 225.118 233.806C245.992 224.899 265.506 207.901 289.281 211.822C301.655 213.862 313.985 210.734 326.042 205.884C367.835 214.043 393.151 208.898 451.172 213.205C472.34 214.768 496.5 214.406 517.941 214.746C521.544 214.746 524.989 214.746 528.253 214.95C564.335 215.97 589.56 215.335 625.03 218.916C652.929 221.704 673.463 231.2 697.034 238.997C706.1 242.034 714.984 244.504 723.755 246.816C769.084 258.714 783.952 262.545 813.71 258.986C836.963 256.199 865.679 249.309 904.866 234.985C936.392 223.517 976.439 205.884 1026.53 184.194" stroke="#4A0305" stroke-width="0.808527" stroke-miterlimit="10"/>
<path d="M-265.766 120.101C-227.356 134.742 -191.463 155.28 -159.379 180.977C-156.342 183.447 -153.237 185.714 -150.155 188.184C-95.7608 230.657 -92.2025 251.848 -51.1575 278.569C-26.952 294.32 -10.2484 306.831 17.6966 313.608C35.8754 317.805 54.6284 318.931 73.1788 316.939C88.5226 315.421 100.376 310.14 111.912 304.587C125.941 297.788 137.568 289.72 151.099 281.175C180.744 262.545 208.145 252.936 225.891 235.688C247.49 227.756 268.228 211.845 290.688 218.033C302.972 221.41 315.369 219.393 326.951 215.381C368.766 228.481 390.411 227.234 447.661 233.512C468.92 235.779 493.261 235.597 514.747 235.779H525.105C561.776 236.459 586.298 234.578 622.312 237.139C650.869 239.156 671.153 248.629 694.974 256.154C704.039 259.055 712.992 261.344 721.967 263.474C767.295 274.217 782.707 276.869 812.352 272.132C835.606 268.393 864.14 260.619 903.462 246.159C935.011 234.578 975.603 217.239 1026.55 197.046" stroke="#4A0305" stroke-width="0.808527" stroke-miterlimit="10"/>
<path d="M-267.078 128.51C-229.111 142.529 -193.458 162.154 -161.304 186.734C-158.244 189.001 -155.139 191.267 -152.057 193.533C-97.0733 234.125 -92.7444 253.616 -52.334 279.657C-27.6299 295.522 -11.5383 308.373 16.7468 315.286C35.027 319.537 53.9036 320.602 72.5462 318.436C88.1166 316.781 99.7434 311.206 111.212 305.291C124.969 298.129 136.482 289.856 150.285 281.176C180.814 262.093 209.552 253.73 226.482 237.57C248.829 230.589 269.544 228.096 291.914 224.221C304.742 226.669 316.573 228.006 327.769 224.855C369.584 242.987 387.512 245.57 444.037 253.752C465.386 256.857 490.045 257.016 511.44 256.767C515.112 256.767 518.625 256.767 521.866 256.767C559.126 256.291 582.833 253.934 619.481 255.52C648.718 256.767 668.73 266.195 692.823 273.47C701.888 276.213 710.954 278.366 720.02 280.269C765.348 289.856 781.213 291.284 810.813 285.369C834.089 280.7 862.419 272.042 901.923 257.424C933.495 245.752 974.449 228.686 1026.42 209.988" stroke="#4A0305" stroke-width="0.808527" stroke-miterlimit="10"/>
<path d="M-268.375 136.939C-230.782 150.328 -195.306 169.043 -163.031 192.512C-159.994 194.779 -156.867 196.886 -153.784 199.017C-98.0755 237.705 -93.1121 255.519 -53.4269 280.767C-28.2242 296.813 -12.9711 309.958 15.8578 317.029C34.2949 321.331 53.3498 322.321 72.1333 319.953C87.9983 318.163 99.4438 312.247 110.663 306.037C124.261 298.581 135.593 290.036 149.623 281.107C180.99 261.57 211.111 254.453 227.27 239.382C250.343 233.376 271.375 232.582 293.337 230.316C306.323 233.942 317.973 236.526 328.761 234.214C370.577 257.218 384.81 263.836 440.587 273.922C462.027 277.798 486.98 278.07 508.308 277.684C512.024 277.684 515.537 277.684 518.801 277.684C556.605 276.846 579.587 273.151 616.824 273.809C646.696 274.285 666.482 283.69 690.823 290.694C699.889 293.323 708.954 295.226 718.36 297.062C763.689 305.539 780.188 305.72 809.584 298.626C832.86 293.005 861.009 283.486 900.649 268.709C932.243 256.947 973.741 240.152 1026.57 222.973" stroke="#4A0305" stroke-width="0.808527" stroke-miterlimit="10"/>
<path d="M-269.688 145.349C-232.499 158.14 -197.232 175.953 -164.865 198.292C-161.805 200.559 -158.678 202.417 -155.595 204.434C-99.1387 241.196 -93.5407 257.333 -54.5581 281.878C-28.8568 298.038 -14.329 311.5 14.9533 318.73C33.4581 323.058 52.5956 323.988 71.4327 321.472C87.2977 319.523 98.8112 313.268 109.962 306.741C123.198 298.989 134.439 290.173 148.809 281.221C181.06 261.208 212.518 255.361 227.93 241.354C251.75 236.3 273.009 237.071 294.631 236.663C307.753 241.445 319.244 245.298 329.602 243.825C371.44 271.792 381.956 282.354 437.008 294.343C458.539 299.012 483.787 299.057 505 298.876C508.763 298.876 512.298 298.876 515.562 298.876C553.955 297.675 576.189 293.686 614.016 292.394C644.522 291.352 664.081 301.46 688.672 308.259C697.827 310.728 707.111 312.695 716.481 314.152C761.81 321.54 778.853 320.452 808.135 312.18C831.434 305.607 859.379 295.227 899.155 280.291C930.885 268.438 972.723 251.893 1026.51 236.232" stroke="#4A0305" stroke-width="0.808527" stroke-miterlimit="10"/>
<path d="M-271 148.906C-234.21 161.153 -199.154 178.094 -166.699 199.311C-163.639 201.351 -160.489 203.21 -157.384 205.091C-100.202 239.926 -93.9239 254.386 -55.6892 278.206C-29.4893 294.524 -15.6868 308.304 14.0261 315.67C32.643 320.041 51.9108 320.909 70.8454 318.231C87.0278 316.123 98.2919 309.55 109.375 302.706C122.271 294.501 133.331 285.436 148.04 276.37C181.153 255.972 213.993 251.281 228.634 238.385C253.18 234.282 274.688 236.685 295.97 237.999C309.228 243.96 320.538 249.059 330.488 248.448C372.348 281.356 379.17 296.042 433.451 309.641C455.096 315.103 480.638 315.216 501.807 314.876L512.414 314.672C551.396 313.992 572.859 306.967 611.275 305.607C642.484 304.473 661.749 313.879 686.589 320.338C695.845 322.68 705.229 324.488 714.693 325.755C759.908 332.056 777.609 329.653 806.755 320.225C830.077 312.701 857.84 301.459 897.752 286.365C929.482 274.421 971.796 258.148 1026.53 244.005" stroke="#4A0305" stroke-width="0.808527" stroke-miterlimit="10"/>
<path d="M-272.359 150.335C-235.981 161.959 -201.143 177.94 -168.602 197.93C-165.52 199.879 -162.37 201.601 -159.265 203.347C-101.244 236.3 -94.422 249.174 -56.822 272.2C-30.1008 288.632 -17.0461 302.752 13.12 310.276C31.8564 314.654 51.2552 315.424 70.2793 312.543C86.643 310.276 97.7711 303.477 108.695 296.225C121.365 287.907 132.357 278.524 147.225 269.299C181.221 248.38 215.399 245.003 229.292 233.195C254.585 230.045 277.136 230.544 297.285 237.139C311.722 241.876 321.83 250.737 331.281 250.737C373.142 288.587 376.247 307.398 429.803 322.832C451.515 329.133 477.398 329.292 498.453 328.816C502.306 328.816 505.887 328.634 509.128 328.544C548.7 327.501 569.392 319.183 608.42 316.826C640.264 314.9 659.302 324.306 684.391 330.425C693.736 332.668 703.213 334.318 712.767 335.366C757.959 340.624 776.227 336.884 805.26 326.3C828.581 317.801 856.164 305.698 896.211 290.468C927.941 278.433 970.732 262.432 1026.42 249.672" stroke="#4A0305" stroke-width="0.808527" stroke-miterlimit="10"/>
<path d="M-273.609 151.717C-237.629 162.79 -203.001 177.858 -170.374 196.637C-167.269 198.473 -164.096 200.06 -161.013 201.691C-102.267 232.605 -94.8334 243.756 -57.9586 266.194C-30.7615 282.739 -18.4321 297.198 12.3007 304.859C31.1345 309.367 50.6698 310.137 69.8 307.125C86.3902 304.7 97.3598 297.493 108.148 290.037C120.568 281.447 131.424 271.747 146.677 262.386C181.512 241.014 217.05 238.906 230.218 228.163C256.214 225.897 279.218 228.413 298.8 236.436C313.509 242.464 323.323 252.301 332.434 253.411C374.295 296.224 373.683 319.137 426.536 336.317C448.339 343.456 474.471 343.637 495.503 343.116L506.246 342.754C546.385 341.371 566.329 331.739 605.969 328.43C638.492 325.687 657.258 335.229 682.62 341.008C692.054 343.172 701.626 344.687 711.267 345.541C756.415 349.779 775.271 344.68 804.191 332.94C827.513 323.489 854.891 310.525 895.097 295.136C937.657 278.203 981.641 265.097 1026.53 255.972" stroke="#4A0305" stroke-width="0.808527" stroke-miterlimit="10"/>
<path d="M-274.922 152.17C-239.331 162.747 -204.914 176.933 -172.207 194.507C-169.08 196.229 -165.907 197.702 -162.824 199.198C-103.285 228.14 -95.2621 237.727 -59.0899 259.394C-31.3488 276.053 -19.79 290.852 11.2828 298.671C30.2359 303.2 49.9071 303.863 69.122 300.621C85.8936 298.037 96.7271 290.512 107.402 282.739C119.55 273.877 130.27 263.882 145.75 254.386C181.469 232.56 218.276 231.721 230.764 222.044C257.508 220.82 280.875 225.217 299.981 234.622C314.939 241.988 324.481 252.958 333.161 254.884C375.045 302.638 370.693 329.676 422.821 348.601C444.715 356.579 471.164 356.76 492.106 356.057C496.027 355.921 499.676 355.74 502.917 355.604C543.712 353.859 562.818 342.957 603.025 338.674C636.183 335.138 654.722 344.589 680.333 350.187C689.862 352.223 699.528 353.556 709.252 354.176C754.377 357.417 773.8 350.913 802.606 338.039C825.928 327.614 853.125 313.811 893.468 298.241C936.403 281.217 980.999 268.721 1026.53 260.958" stroke="#4A0305" stroke-width="0.808527" stroke-miterlimit="10"/>
<path d="M-276.234 150.879C-241.026 160.95 -206.818 174.234 -174.041 190.564C-170.913 192.173 -167.718 193.533 -164.635 194.915C-104.28 221.818 -95.5773 229.705 -60.2211 250.783C-31.9587 267.554 -21.1478 282.717 10.3782 290.649C29.4361 295.23 49.2338 295.831 68.5348 292.417C85.5103 289.652 96.2079 281.833 106.747 273.742C118.646 264.676 129.23 254.318 144.981 244.686C181.562 222.407 219.774 222.793 231.468 214.225C258.937 213.953 282.622 220.345 301.32 231.133C316.459 239.881 325.797 251.893 334.07 254.658C375.953 307.375 367.839 338.516 419.287 359.163C441.226 368.002 468.015 368.229 488.889 367.368C492.833 367.209 496.505 367.005 499.745 366.846C541.062 364.761 559.421 352.523 600.216 347.287C634.031 342.936 652.344 352.409 678.159 357.735C687.793 359.65 697.56 360.825 707.373 361.248C752.475 363.515 772.442 355.582 801.135 341.576C824.457 330.244 851.495 315.512 891.974 299.806C935.221 282.609 980.373 270.655 1026.46 264.2" stroke="#4A0305" stroke-width="0.808527" stroke-miterlimit="10"/>
<path d="M-277.531 149.587C-242.709 159.192 -208.716 171.584 -175.882 186.643C-172.732 188.139 -169.536 189.34 -166.454 190.609C-105.26 215.54 -96.1943 221.772 -61.3593 242.17C-32.5983 259.032 -22.5127 274.557 9.44397 282.649C28.6135 287.296 48.5501 287.829 67.9405 284.212C85.12 281.243 95.6816 273.175 106.107 264.744C117.757 255.338 128.182 244.754 144.206 234.986C181.67 212.321 221.264 213.863 232.166 206.383C257.186 206.681 281.612 214.043 302.629 227.62C317.928 237.773 327.107 250.805 334.948 254.432C376.855 312.089 364.956 347.355 415.747 369.725C437.731 379.447 464.86 379.629 485.643 378.677C489.655 378.496 493.327 378.269 496.59 378.065C538.451 375.572 556.129 362.2 597.514 355.899C631.941 350.755 650.073 360.228 676.137 365.282C685.202 367.027 694.767 367.299 705.6 368.297C750.521 372.444 771.213 360.251 799.793 345.089C823.115 332.714 849.972 317.212 890.586 301.347C934.189 283.979 979.926 272.545 1026.57 267.35" stroke="#4A0305" stroke-width="0.808527" stroke-miterlimit="10"/>
<path d="M-278.844 148.295C-244.39 157.447 -210.602 168.942 -177.716 182.699C-174.543 184.059 -171.347 185.17 -168.242 186.303C-106.278 208.967 -96.5095 213.84 -62.4904 233.558C-33.1855 250.533 -23.9611 266.398 8.53948 274.648C27.8527 279.355 47.9569 279.819 67.4666 276.008C84.8275 272.835 95.2531 264.494 105.565 255.746C116.897 246.068 127.232 235.19 143.528 225.285C181.876 202.077 222.853 204.887 232.961 198.564C258.649 199.911 283.361 208.848 303.969 224.243C319.358 235.779 328.423 249.853 335.834 254.318C377.763 316.917 362.057 356.307 412.19 380.422C434.243 391.006 461.689 391.165 482.45 390.1C486.484 389.896 490.201 389.624 493.442 389.42C535.892 386.541 552.8 371.787 594.797 364.625C629.904 358.664 647.695 368.206 674.122 372.943C683.989 374.316 693.923 375.163 703.88 375.481C748.869 378.405 770.014 365.033 798.503 348.737C821.802 335.388 848.501 319.047 889.16 303.024C933.088 285.522 979.378 274.66 1026.51 270.795" stroke="#4A0305" stroke-width="0.808527" stroke-miterlimit="10"/>
<path d="M-280.156 147.003C-246.056 155.725 -212.462 166.318 -179.527 178.733C-176.354 179.979 -173.158 180.999 -170.053 181.974C-107.273 202.644 -96.9155 205.862 -63.531 225.036C-33.7954 241.989 -25.319 258.239 7.61224 266.625C27.0065 271.399 47.2197 271.802 66.7887 267.803C84.3535 264.426 94.6658 255.814 104.819 246.748C115.97 236.821 126.101 225.625 142.691 215.585C181.878 191.923 224.283 196.048 233.575 190.654C260.005 192.999 285.062 203.465 305.308 220.616C320.742 233.58 329.717 248.652 336.72 253.955C378.649 321.517 359.135 365.169 408.657 390.87C430.755 402.338 458.518 402.474 479.188 401.296C483.268 401.069 487.007 400.774 490.248 400.525C533.31 397.261 549.425 381.238 592.034 373.124C627.798 366.325 645.34 375.934 671.971 380.376C681.929 381.674 691.958 382.363 702.001 382.439C747.057 384.139 768.656 369.588 797.032 352.137C820.354 337.836 846.894 320.634 887.689 304.542C931.97 286.884 978.837 276.572 1026.44 274.013" stroke="#4A0305" stroke-width="0.808527" stroke-miterlimit="10"/>
<path d="M-281.43 145.711C-242.606 155.57 -207.771 165.61 -181.344 174.812C-178.126 175.945 -174.93 176.806 -171.848 177.713C-108.229 196.207 -97.305 197.929 -64.7364 216.242C-34.389 233.376 -26.5698 249.989 6.72406 258.533C26.2247 263.366 46.5693 263.699 66.2178 259.508C83.9866 255.904 94.1855 247.065 104.203 237.66C115.082 227.461 125.077 215.97 141.939 205.794C182.01 181.679 225.797 187.05 234.296 182.835C261.451 186.203 286.812 198.181 306.663 217.013C322.12 231.404 332.025 246.589 337.645 253.638C389.773 319.206 356.207 374.008 405.14 401.341C427.26 413.715 455.409 413.806 475.988 412.514C480.113 412.265 483.853 411.925 487.116 411.653C530.7 408.004 546.043 390.711 589.287 381.668C625.708 374.03 643.001 383.685 669.904 387.81C679.931 389.297 690.077 389.836 700.206 389.419C745.285 387.878 767.383 374.144 795.668 355.582C818.967 340.283 845.303 322.243 886.325 305.924C930.985 288.119 978.442 278.352 1026.5 277.073" stroke="#4A0305" stroke-width="0.808527" stroke-miterlimit="10"/>
<path d="M-282.766 144.419C-243.511 153.983 -208.903 163.049 -183.201 170.868C-179.96 171.865 -176.765 172.613 -173.682 173.406C-109.18 189.725 -97.7344 189.974 -65.8911 207.697C-34.9996 224.922 -27.951 241.943 5.77344 250.624C25.3957 255.52 45.888 255.784 65.6298 251.394C83.58 247.541 93.6429 238.475 103.525 228.73C114.177 218.259 123.922 206.474 141.147 196.161C182.079 171.571 227.113 178.211 235 175.061C266.141 179.594 290.618 195.821 307.979 213.59C323.413 229.455 333.182 245.841 338.508 253.479C388.936 325.71 353.24 383.005 401.56 411.993C423.703 425.251 452.237 425.297 472.726 423.891C476.896 423.597 480.681 423.257 483.922 422.962C528.095 418.905 542.69 400.298 586.523 390.348C623.579 381.895 640.623 391.618 667.775 395.425C677.905 396.798 688.146 397.17 698.349 396.536C743.451 394.111 766.07 378.88 794.264 359.162C817.54 342.89 843.718 324.01 884.921 307.533C916.855 294.773 963.272 280.926 1026.53 280.336" stroke="#4A0305" stroke-width="0.808527" stroke-miterlimit="10"/>
<path d="M-284.078 143.128C-244.416 152.466 -210.034 160.443 -185.035 166.948C-181.772 167.787 -178.576 168.421 -175.494 169.214C-110.243 183.198 -98.1403 181.997 -67.0222 199.086C-35.9042 216.175 -29.3088 233.785 4.86891 242.601C24.5945 247.581 45.2233 247.783 65.0426 243.19C83.174 239.066 93.1463 229.819 102.892 219.756C113.295 209.035 122.973 196.933 140.379 186.485C182.194 161.554 228.588 169.328 235.705 167.265C267.593 172.75 292.093 190.881 309.318 210.101C324.707 227.28 334.249 244.981 339.394 253.163C387.873 331.921 350.25 391.868 398.026 422.464C420.169 436.652 449.066 436.63 469.51 435.111C473.702 434.794 477.51 434.409 480.842 434.091C525.581 429.558 539.429 409.795 583.851 398.871C621.564 389.601 638.381 399.392 665.782 402.883C676.016 404.148 686.352 404.361 696.628 403.517C741.753 400.186 764.848 383.459 792.974 362.608C816.228 345.361 842.246 325.643 883.631 309.007C915.611 296.157 962.458 282.558 1026.67 283.533" stroke="#4A0305" stroke-width="0.808527" stroke-miterlimit="10"/>
<path d="M-285.375 141.835C-245.327 150.901 -211.172 157.836 -186.876 163.049C-183.59 163.751 -180.394 164.295 -177.312 164.839C-111.268 176.647 -98.5533 174.018 -68.1605 190.495C-36.1811 207.811 -30.6964 225.625 3.93466 234.6C23.772 239.666 44.5481 239.798 64.4483 234.985C82.7611 230.565 92.6427 221.137 102.252 210.78C112.406 199.765 121.925 187.39 139.626 176.783C182.28 151.286 230.396 157.111 236.402 159.445C267.407 171.434 293.539 185.894 310.65 206.609C325.972 225.171 335.423 244.096 340.295 253.048C386.644 338.152 347.231 400.955 394.486 433.161C416.629 448.255 445.911 448.142 466.263 446.533C470.524 446.193 474.332 445.785 477.596 445.445C522.924 440.595 535.979 419.472 581.013 407.596C619.361 397.487 635.928 407.369 663.601 410.542C673.939 411.697 684.371 411.75 694.72 410.701C739.867 406.485 763.46 388.24 791.473 366.256C814.727 348.125 840.587 327.455 882.131 310.661C914.133 297.72 961.456 284.416 1026.59 286.886" stroke="#4A0305" stroke-width="0.808527" stroke-miterlimit="10"/>
<path d="M-286.688 140.544C-246.232 149.451 -212.326 155.162 -188.71 159.061C-185.401 159.605 -182.205 160.058 -179.1 160.488C-112.286 170.053 -98.9365 166.041 -69.2916 181.861C-36.6551 199.312 -32.1222 217.444 3.0301 226.509C22.9825 231.641 43.9012 231.703 63.8837 226.691C82.3325 221.954 92.1461 212.39 101.597 201.76C111.524 190.428 120.884 177.804 138.857 167.084C182.395 141.133 231.531 150.947 237.107 151.604C271.103 155.661 294.969 180.886 311.899 203.097C323.35 218.592 333.135 235.252 341.091 252.8C385.286 344.091 344.128 409.908 390.952 443.723C413.072 459.724 442.763 459.588 463.047 457.843C467.331 457.48 471.184 457.027 474.379 456.665C520.252 451.338 532.559 428.969 578.227 416.209C617.187 405.239 633.551 415.28 661.473 418.09C671.917 419.134 682.444 419.02 692.863 417.75C738.056 412.651 762.08 392.819 790.048 369.77C813.256 350.528 838.957 329.156 880.705 312.225C912.752 299.194 960.483 286.139 1026.59 290.128" stroke="#4A0305" stroke-width="0.808527" stroke-miterlimit="10"/>
<path d="M-288 139.251C-247.204 147.773 -213.502 152.442 -190.544 155.116C-114.573 163.955 -100.657 157.382 -70.4228 173.247C-37.333 190.631 -33.4121 209.306 2.10287 218.576C22.1671 223.793 43.2323 223.793 63.2964 218.576C101.327 208.15 102.37 178.641 138.089 157.382C182.488 130.956 232.961 142.583 237.811 143.784C302.45 159.649 332.594 230.61 342.067 252.572C384.064 349.847 341.161 418.86 387.396 454.284C414.23 474.84 452.85 470.149 471.254 467.882C517.693 462.216 529.252 438.555 575.509 424.82C627.637 409.318 639.128 431.619 691.097 424.82C774.003 413.873 787.307 351.388 879.211 313.766C911.281 300.643 959.465 287.86 1026.53 293.368" stroke="#4A0305" stroke-width="0.808527" stroke-miterlimit="10"/>
<path d="M-286.773 142.085C-246.703 150.607 -213.568 155.683 -190.609 158.494C-116.655 167.832 -102.218 161.667 -72.1653 177.554C-39.6873 194.779 -35.3585 212.911 -0.727442 222.248C18.9173 227.438 39.5388 227.703 59.3103 223.019C96.8423 214.157 98.2928 185.374 133.468 164.931C176.915 139.501 225.87 150.085 231.536 151.015C284.548 159.604 313.785 211.845 328.177 239.722C331.123 245.411 333.253 250.307 334.976 253.842C378.038 345.927 337.378 412.243 382.934 445.695C410.131 465.617 449.068 460.608 468.242 458.455C485.813 456.526 502.845 451.216 518.398 442.817C534.263 434.861 549.108 425.886 573.518 419.926C580.997 418.113 587.66 417.115 593.644 416.254C629.906 411.019 643.89 423.915 687.587 416.141C704.491 413.173 720.769 407.356 735.726 398.939C776.318 376.274 801.702 335.479 864.55 305.698C868.237 303.945 872.089 302.238 876.109 300.576C908.473 287.113 957.383 273.719 1025.47 278.864" stroke="#4A0305" stroke-width="0.808527" stroke-miterlimit="10"/>
<path d="M-285.555 144.918C-246.3 153.44 -213.641 158.72 -190.659 161.848C-118.768 171.662 -103.878 165.95 -73.9156 181.883C-42.0269 198.745 -37.3127 216.718 -3.65626 225.897C15.5851 231.073 35.779 231.617 55.2709 227.484C92.2364 220.073 94.2082 192.218 128.817 172.455C171.335 148.182 218.998 156.001 225.208 158.245C274.253 175.809 306.074 215.472 320.896 241.74C323.911 247.088 325.996 251.78 327.696 255.089C371.755 342.097 333.498 405.557 378.328 437.105C405.752 456.37 445.119 451.066 465.064 449.004C482.773 447.186 500.033 442.317 516.081 434.612C532.196 427.428 547.267 419.654 571.382 415.053C578.884 413.602 585.593 413.058 591.576 412.197C627.726 406.962 641.097 417.138 683.91 407.438C700.62 403.587 716.62 397.132 731.324 388.309C770.397 365.645 797.05 323.421 861.168 292.643C864.907 290.876 868.806 289.108 872.862 287.385C905.499 273.583 955.134 259.576 1024.26 264.336" stroke="#4A0305" stroke-width="0.808527" stroke-miterlimit="10"/>
<path d="M-284.328 147.751C-245.889 156.25 -213.729 161.848 -190.77 165.316C-120.919 175.537 -105.53 170.347 -75.7034 186.28C-44.4267 202.87 -39.3045 220.503 -6.46397 229.637C12.3637 234.768 32.1128 235.543 51.2846 231.903C87.5475 225.897 90.1539 198.972 124.196 179.98C165.785 156.771 211.929 162.709 218.932 165.429C257.877 181.038 290.985 208.402 313.646 243.711C316.729 248.72 318.791 253.208 320.446 256.313C365.457 338.062 329.647 398.916 373.684 428.561C401.425 447.191 441.156 441.547 461.871 439.621C479.723 437.879 497.207 433.439 513.727 426.453C530.136 420.039 545.457 413.489 569.209 410.203C576.779 409.16 583.51 409.047 589.493 408.186C625.598 402.927 638.244 410.452 680.151 398.78C696.634 394.025 712.356 386.943 726.839 377.747C764.394 354.925 792.429 311.5 857.68 279.634C861.442 277.821 865.386 276.015 869.511 274.217C902.419 260.098 952.802 245.479 1022.95 249.876" stroke="#4A0305" stroke-width="0.808527" stroke-miterlimit="10"/>
<path d="M-283.102 150.562C-245.479 159.083 -213.794 164.976 -190.79 168.693C-122.978 179.322 -107.068 174.654 -77.4685 190.609C-46.8264 206.95 -41.2056 224.198 -9.36228 233.309C9.07048 238.466 28.4051 239.549 47.2984 236.482C83.04 231.949 86.0997 205.885 119.598 187.64C160.257 165.316 204.339 174.2 212.657 172.682C260.592 182.359 290.736 222.543 306.419 245.751C309.57 250.397 311.587 254.658 313.355 257.582C359.363 334.142 326.001 392.23 369.222 419.926C397.326 437.921 437.351 431.961 458.859 430.125C476.869 428.468 494.584 424.46 511.554 418.203C528.28 412.56 543.782 407.257 567.24 405.262C574.855 404.605 581.609 404.945 587.638 404.084C623.697 398.825 635.618 403.608 676.754 390.054C694.183 384.298 708.484 376.048 722.717 367.073C758.798 344.205 788.081 299.33 854.578 266.534C858.355 264.676 862.344 262.825 866.545 260.982C899.748 246.499 950.856 231.269 1022.02 235.303" stroke="#4A0305" stroke-width="0.808527" stroke-miterlimit="10"/>
<path d="M-281.906 153.395C-245.167 161.894 -213.891 168.081 -190.773 171.934C-125.047 182.949 -108.728 178.914 -79.1288 194.779C-49.1213 210.916 -43.1606 227.756 -12.1105 236.822C5.89321 241.976 24.7742 243.319 43.3263 240.765C78.388 237.411 82.0596 212.503 114.991 195.029C154.699 173.974 197.172 182.065 206.419 179.866C252.926 188.66 283.046 226.056 299.206 247.723C302.424 252.029 304.419 256.086 306.232 258.806C353.215 330.13 322.369 385.476 364.729 411.291C393.195 428.652 433.537 422.351 455.794 420.651C478.458 418.929 494.436 414.237 509.349 409.976C526.393 405.103 542.258 398.032 565.217 400.321C572.004 401.053 578.856 400.939 585.615 399.981C621.651 394.723 632.802 396.876 673.144 381.306C690.029 374.801 704.081 365.849 718.473 356.375C753.081 333.53 783.61 287.272 851.331 253.412C855.154 251.508 859.188 249.604 863.434 247.7C896.909 232.901 948.742 217.058 1020.95 220.707" stroke="#4A0305" stroke-width="0.808527" stroke-miterlimit="10"/>
<path d="M-280.68 156.25C-244.666 164.749 -213.956 171.231 -190.929 175.333C-127.174 186.665 -110.335 183.22 -80.8713 199.131C-51.4077 215.041 -45.0844 231.45 -14.9636 240.538C11.2817 248.448 33.1527 246.748 39.4307 245.275C72.9059 237.343 78.0734 219.325 110.461 202.621C149.217 182.631 190.126 189.997 200.234 187.141C245.29 195.074 275.366 229.591 292.07 249.763C295.333 253.729 297.305 257.582 299.141 260.12C347.098 326.209 318.836 378.745 360.334 402.769C389.209 419.495 429.801 412.854 452.85 411.268C475.9 409.681 492.059 405.421 507.244 401.817C524.583 397.715 540.991 391.573 563.293 395.494C570.024 396.738 576.91 396.899 583.691 395.97C619.682 390.711 630.085 390.235 669.611 372.671C685.975 365.418 699.71 355.741 714.124 345.859C747.282 323.195 779.08 275.373 848.002 240.448C851.855 238.498 855.934 236.549 860.241 234.6C894.01 219.461 946.569 203.006 1019.8 206.27" stroke="#4A0305" stroke-width="0.808527" stroke-miterlimit="10"/>
<path d="M-279.453 159.016C-244.255 167.583 -214.044 174.382 -190.994 178.643C-129.28 190.247 -111.941 187.459 -82.6138 203.37C-53.8301 219.008 -47.0308 235.099 -17.7939 244.165C7.72608 252.075 28.9852 251.1 35.3539 249.695C68.1718 242.397 73.8832 226.079 105.749 210.146C143.553 191.199 182.808 197.885 193.868 194.281C237.497 201.33 267.459 232.81 284.729 251.69C287.278 254.761 289.669 257.961 291.891 261.277C340.778 322.13 315.167 371.833 355.668 394.089C384.973 410.158 425.814 403.155 449.634 401.727C472.548 400.322 489.388 396.446 504.867 393.522C522.523 390.191 539.476 385.137 561.097 390.508C567.791 392.281 574.766 392.727 581.631 391.823C617.599 386.542 627.232 383.482 665.965 363.878C681.83 355.877 695.202 345.52 709.73 335.139C741.46 312.475 774.504 263.294 844.628 227.303C848.511 225.308 852.636 223.314 857.002 221.32C890.999 205.84 944.328 188.774 1018.6 191.675" stroke="#4A0305" stroke-width="0.808527" stroke-miterlimit="10"/>
<path d="M-278.234 161.803C-243.853 170.324 -214.14 177.35 -191.045 181.974C-131.392 193.895 -113.556 191.742 -84.2507 207.652C-56.079 223.041 -48.8717 238.725 -20.5414 247.745C4.38934 255.655 24.9232 255.406 31.4732 254.069C63.6565 247.474 70.0025 232.787 101.234 217.602C138.086 199.72 175.822 205.703 187.698 201.488C229.876 207.652 259.68 236.323 277.607 253.616C280.18 256.433 282.594 259.392 284.837 262.477C334.699 318.073 311.74 364.897 351.244 385.431C380.979 400.865 422.047 393.544 446.638 392.23C469.755 390.961 486.98 387.493 502.732 385.249C521.455 382.674 540.448 382.774 559.143 385.544C567.121 386.564 573.83 388.558 579.745 387.81C615.668 382.507 624.53 376.909 662.47 355.242C677.745 346.516 690.868 335.411 705.532 324.577C735.879 302.094 770.102 251.349 841.518 214.293C845.416 212.276 849.609 210.214 854.051 208.151C888.365 192.286 942.442 174.653 1017.66 177.192" stroke="#4A0305" stroke-width="0.808527" stroke-miterlimit="10"/>
<path d="M-276.891 165.701C-243.325 174.2 -214.088 181.566 -190.993 186.394C-133.471 198.565 -115.136 197.046 -86.1026 213.024C-58.5202 228.164 -50.9277 243.462 -23.4812 252.46C0.633595 260.37 20.6235 260.823 27.3548 259.577C58.9488 253.752 65.7708 240.607 96.5262 226.192C132.404 209.375 168.576 214.656 181.313 209.783C222.109 215.064 251.573 240.743 270.248 256.744C272.844 259.303 275.289 262.012 277.569 264.857C328.223 315.195 308.143 359.118 346.604 377.952C376.815 392.752 418.064 385.114 443.448 383.913C466.725 382.802 484.358 379.742 500.381 378.179C518.649 376.388 535.67 377.907 557.042 381.782C565.133 383.255 571.819 385.635 577.712 384.774C613.589 379.47 621.703 371.334 658.85 347.559C673.582 338.108 686.387 326.3 701.164 314.968C730.152 292.712 765.553 240.403 838.079 202.259C842.023 200.174 846.238 198.089 850.748 195.958C885.334 179.821 940.068 161.531 1016.4 163.684" stroke="#4A0305" stroke-width="0.808527" stroke-miterlimit="10"/>
<path d="M-275.781 175.515C-243.031 184.014 -214.293 191.606 -191.175 196.751C-135.58 209.148 -116.746 208.378 -87.8489 224.243C-60.8784 239.133 -52.878 254.069 -26.3154 263.021C-2.92587 270.931 16.4294 272.087 23.3647 270.931C54.3694 265.922 61.69 254.273 91.9015 240.629C126.805 224.764 161.413 229.478 175.034 223.903C214.334 228.436 241.327 254.635 263.017 265.673C265.895 268.755 268.388 271.248 270.383 273.016C321.899 318.073 304.697 359.14 342.07 376.274C372.78 390.394 414.21 382.439 440.365 381.374C463.8 380.422 481.841 377.77 498.136 376.841C516.721 375.821 534.059 378.835 554.91 383.754C563.115 385.68 569.778 388.445 575.648 387.561C611.503 382.258 618.846 371.696 655.177 345.723C669.388 335.592 681.876 323.059 696.766 311.205C724.417 289.198 760.974 235.28 834.701 196.071C838.675 193.971 842.943 191.825 847.506 189.634C882.387 173.271 937.914 154.369 1015.2 156.25" stroke="#4A0305" stroke-width="0.808527" stroke-miterlimit="10"/>
<path d="M-274.625 184.354C-242.623 192.853 -214.383 200.694 -191.243 206.111C-137.665 218.713 -118.241 218.712 -89.5937 234.668C-63.2352 249.287 -54.8267 263.86 -29.1707 272.789C-6.50645 280.676 12.2143 282.444 19.3762 281.47C49.8143 277.322 57.6108 267.146 87.369 254.273C121.365 239.541 154.342 243.462 168.847 237.229C206.697 240.765 233.418 264.585 255.855 273.764C258.207 276.109 260.697 278.312 263.312 280.359C315.621 320.18 301.365 358.165 337.628 373.781C368.86 387.221 410.426 378.949 437.351 378.042C460.967 377.226 479.416 374.982 495.961 374.778C514.863 374.529 532.541 379.085 552.939 385C561.234 387.402 567.897 390.53 573.767 389.533C609.554 384.207 616.172 371.129 651.687 343.048C665.286 332.238 677.547 319.002 692.483 306.627C718.796 284.915 756.487 229.342 831.415 189.045C835.404 186.779 839.733 184.693 844.356 182.472C879.509 165.633 935.693 146.21 1014.09 147.547" stroke="#4A0305" stroke-width="0.808527" stroke-miterlimit="10"/>
<path d="M-273.359 193.193C-242.196 201.692 -214.432 209.783 -191.315 215.517C-139.753 228.254 -119.967 229.002 -91.3424 244.981C-65.5958 259.35 -56.7794 273.56 -32.0073 282.445C-10.023 290.332 8.01783 290.989 15.3837 291.918C45.1873 295.726 53.5277 279.906 82.6513 267.826C115.628 254.228 147.086 257.378 162.475 250.465C198.896 253.117 225.3 274.467 248.599 281.787C250.974 283.903 253.488 285.856 256.124 287.635C309.204 322.198 297.939 357.123 333.182 371.198C364.912 383.935 406.637 375.391 434.356 374.597C458.153 373.94 476.987 372.127 493.804 372.58C513.024 373.102 530.996 379.244 550.964 386.179C559.372 389.057 565.99 392.525 571.86 391.664C607.624 386.315 613.517 370.79 648.171 340.533C661.339 329.042 673.215 315.081 688.309 302.185C713.24 280.79 752.132 223.54 828.261 182.065C832.295 179.889 836.655 177.623 841.339 175.266C876.763 158.086 933.695 137.96 1013.11 139.003" stroke="#4A0305" stroke-width="0.808527" stroke-miterlimit="10"/>
<path d="M-272.133 202.055C-241.785 210.645 -214.543 218.872 -191.38 224.9C-141.836 237.774 -121.574 239.315 -93.0849 255.316C-67.9502 269.413 -58.7259 283.17 -34.8604 292.236C-13.5786 300.123 3.85025 301.301 11.3748 302.503C40.4304 307.035 49.4281 292.802 78.0305 281.493C110.032 268.824 139.949 271.407 156.2 263.815C191.171 265.605 217.393 284.439 241.281 289.924C243.679 291.815 246.217 293.519 248.874 295.023C302.679 324.351 294.542 356.217 328.471 368.75C360.813 380.74 402.606 371.923 431.072 371.289C455.051 370.767 474.293 369.385 491.382 370.518C510.918 371.81 529.186 379.584 548.722 387.357C557.222 390.757 563.839 394.565 569.687 393.681C605.406 388.332 610.619 370.382 644.479 337.927C657.126 325.756 668.685 311.092 683.87 297.652C707.622 276.597 747.511 217.648 824.841 175.266C828.906 173.014 833.31 170.748 838.055 168.466C873.774 150.97 931.409 130.232 1011.87 130.912" stroke="#4A0305" stroke-width="0.808527" stroke-miterlimit="10"/>
<path d="M-270.914 210.894C-241.45 219.37 -214.639 227.937 -191.453 234.283C-143.858 247.247 -123.188 249.649 -94.8352 265.628C-70.2898 279.476 -60.6801 292.983 -37.6985 301.89C-17.142 309.778 -0.325126 311.477 7.38073 312.951C35.6658 318.322 45.3434 305.539 73.4018 295.023C104.429 283.396 132.782 285.3 149.916 277.028C183.46 277.934 209.297 294.298 234.046 297.924C236.473 299.581 239.035 301.03 241.707 302.253C296.101 326.436 291.206 354.993 323.933 366.144C356.66 377.294 398.725 368.41 427.985 367.843C452.122 367.458 471.772 366.483 489.178 368.297C509.009 370.359 527.572 379.629 546.7 388.468C555.29 392.389 561.908 396.491 567.733 395.63C603.406 390.258 607.962 369.928 640.848 335.23C653.018 322.402 664.26 307.035 679.536 293.029C702.019 272.382 742.996 211.687 821.505 168.126C825.584 165.86 830.049 163.593 834.854 161.123C870.799 143.196 929.183 121.846 1010.66 122.254" stroke="#4A0305" stroke-width="0.808527" stroke-miterlimit="10"/>
<path d="M-269.688 219.71C-240.972 228.186 -214.704 236.98 -191.496 243.621C-145.986 256.675 -124.795 259.916 -96.5777 275.917C-72.6442 289.516 -62.5812 302.638 -40.5515 311.432C-20.675 319.319 -4.46999 321.54 3.39452 323.285C30.9316 329.382 41.2439 318.186 68.8037 308.44C98.8339 297.834 125.623 299.103 143.596 290.15C175.688 290.15 201.231 304.044 226.751 305.811C229.225 307.235 231.819 308.441 234.502 309.415C289.712 328.498 287.899 353.701 319.403 363.492C352.923 373.895 394.852 364.67 424.905 364.353C449.201 364.081 469.259 363.537 486.892 366.03C507.04 368.863 525.852 379.878 544.595 389.51C553.276 394.043 559.871 398.372 565.696 397.488C601.346 392.139 605.245 369.407 637.224 332.464C648.896 318.979 659.888 303.001 675.164 288.337C696.423 268.098 738.443 205.658 818.153 161.01C822.278 158.698 826.773 156.311 831.638 153.848C867.901 135.716 927.01 113.732 1009.53 113.664" stroke="#4A0305" stroke-width="0.808527" stroke-miterlimit="10"/>
<path d="M-268.461 228.593C-240.561 237.07 -214.792 246.068 -191.561 253.048C-148.046 266.148 -126.379 270.273 -98.3201 286.319C-74.9986 299.623 -64.573 312.406 -43.3819 321.154C-29.5093 326.594 -15.1926 330.825 -0.591695 333.801C26.1975 340.6 37.1444 330.99 64.1828 322.038C93.2158 312.451 118.577 312.972 137.366 303.431C168.008 302.592 193.279 313.97 219.569 313.902C222.083 315.085 224.7 316.033 227.388 316.735C283.097 330.696 284.638 352.476 314.873 360.93C349.028 370.471 391.002 361.655 421.803 360.93C446.28 360.363 466.723 360.703 484.651 363.854C505.049 367.457 524.177 380.149 542.535 390.643C551.284 395.629 557.902 400.343 563.704 399.459C599.309 394.088 602.596 368.998 633.646 329.789C644.819 315.669 655.472 298.943 670.861 283.735C690.873 263.927 733.935 199.719 814.847 153.983C818.994 151.716 823.527 149.201 828.445 146.685C865.003 128.168 924.837 105.595 1008.38 105.164" stroke="#4A0305" stroke-width="0.808527" stroke-miterlimit="10"/>
<path d="M-267.242 237.455C-240.045 245.932 -214.865 255.111 -191.634 262.386C-150.113 275.486 -127.993 280.517 -100.048 296.586C-77.3834 309.618 -66.5273 322.061 -46.2427 330.764C-32.7232 336.35 -18.7971 340.896 -4.58574 344.363C21.5009 351.819 33.037 343.819 59.5542 335.705C87.5899 327.092 111.319 327.07 131.083 316.78C160.297 315.035 185.273 323.942 212.312 322.016C214.871 322.95 217.511 323.648 220.199 324.101C276.542 333.053 281.392 351.298 310.335 358.46C345.147 367.072 387.121 358.142 418.715 357.598C443.374 357.19 464.202 357.938 482.402 361.769C503.162 366.143 522.45 380.512 540.49 391.867C549.261 397.397 555.925 402.406 561.704 401.522C597.287 396.128 599.962 368.681 630.037 327.206C640.757 312.429 651.115 295.045 666.527 279.248C685.383 259.893 729.443 193.895 811.578 147.048C815.748 144.668 820.349 142.175 825.335 139.591C862.187 120.757 922.792 97.5718 1007.31 96.7559" stroke="#4A0305" stroke-width="0.808527" stroke-miterlimit="10"/>
<path d="M-266.039 246.318C-239.748 254.772 -214.931 264.155 -191.7 271.838C-152.242 284.961 -129.577 290.899 -101.791 306.99C-79.6933 319.773 -68.4745 331.921 -49.0738 340.511C-35.9081 346.138 -22.386 350.893 -8.59541 354.744C16.8113 362.835 28.9367 356.489 54.8646 349.168C81.9258 341.576 104.091 340.919 124.739 329.926C152.502 327.32 177.184 333.734 205.016 329.926C207.62 330.62 210.283 331.068 212.971 331.264C269.949 335.253 278.04 349.803 305.736 355.764C341.205 363.424 383.179 354.404 415.567 354.086C440.384 353.815 461.621 354.97 480.092 359.481C501.17 364.625 520.661 380.672 538.362 392.888C547.178 398.984 553.864 404.22 559.644 403.381C595.181 397.987 597.312 368.161 626.39 324.419C636.634 309.007 646.788 290.989 662.132 274.558C679.9 255.678 724.866 187.98 808.226 139.932C812.418 137.507 817.065 134.969 822.119 132.34C859.243 113.188 920.527 89.3684 1006.13 88.2578" stroke="#4A0305" stroke-width="0.808527" stroke-miterlimit="10"/>
<path d="M-264.812 255.179C-239.338 263.656 -214.951 273.175 -191.765 281.266C-154.188 294.343 -131.184 301.255 -103.533 317.347C-82.025 329.858 -70.4209 341.62 -51.9268 350.21C-39.1093 355.966 -25.9727 360.983 -12.5816 365.237C12.1451 373.962 24.8144 369.248 50.3118 362.744C76.3757 356.126 97.0002 354.856 118.531 343.207C144.867 339.717 169.254 343.638 197.856 338.017C200.516 338.372 203.196 338.561 205.879 338.583C263.447 341.145 274.87 348.442 301.273 353.247C337.4 359.82 379.397 350.392 412.532 350.709C437.463 350.958 459.176 352.159 477.919 357.349C499.314 363.265 518.964 381.011 536.37 394.065C545.232 400.729 551.963 406.259 557.72 405.398C593.235 400.003 594.821 367.843 622.857 321.835C632.648 305.766 642.507 287.113 657.896 270.002C674.441 251.598 720.472 181.996 804.919 132.951C809.165 130.473 813.842 127.897 818.949 125.222C856.345 105.686 918.377 81.2765 1005 79.7354" stroke="#4A0305" stroke-width="0.808527" stroke-miterlimit="10"/>
<path d="M-263.586 264.018C-238.927 272.472 -215.016 282.15 -191.831 290.626C-156.203 303.635 -132.79 311.522 -105.276 327.659C-84.3794 339.898 -72.39 351.321 -54.7572 359.865C-38.4389 367.798 -25.2936 372.331 -16.5679 375.73C7.5016 385.045 20.7149 381.986 45.6909 376.342C68.2835 371.155 90.518 364.515 112.256 356.466C136.099 348.08 160.984 339.739 190.606 346.063C193.296 346.437 196.028 346.376 198.698 345.881C257.035 340.125 271.609 347.015 296.743 350.709C333.55 356.103 375.524 346.811 409.453 347.309C434.633 347.672 456.662 349.326 475.678 355.174C497.367 361.973 517.199 381.328 534.31 395.221C543.195 402.451 549.994 408.253 555.751 407.369C591.198 401.953 592.286 367.435 619.211 319.16C628.548 302.434 638.181 283.192 653.502 265.423C668.823 247.655 715.987 176.217 801.545 125.902C805.806 123.432 810.611 120.78 815.71 118.038C853.401 98.1841 916.136 73.1628 1003.82 71.2363" stroke="#4A0305" stroke-width="0.808527" stroke-miterlimit="10"/>
<path d="M-262.367 272.881C-238.524 281.335 -215.067 291.012 -191.881 300.078C-158.225 313.019 -134.382 321.903 -107.026 338.063C-86.6283 350.03 -74.3443 361.113 -57.618 369.612C-42.0023 377.567 -29.3103 382.53 -20.5619 386.225C2.873 396.129 16.5849 394.701 41.0623 389.919C65.1091 385.227 81.0648 379.244 105.973 369.748C128.41 361.181 152.299 359.526 183.371 354.109C186.227 353.611 188.969 353.656 191.531 353.203C250.594 342.596 268.34 345.542 292.205 348.171C329.669 352.274 371.666 343.253 406.343 343.91C431.704 344.409 454.142 346.494 473.429 352.976C495.436 360.455 515.403 381.578 532.243 396.333C541.15 404.129 548.108 410.203 553.751 409.319C589.153 403.903 589.765 367.005 615.67 316.396C624.577 299.013 634.005 279.227 649.236 260.733C663.582 243.327 711.563 170.189 798.299 118.787C802.605 116.271 807.365 113.574 812.6 110.764C850.563 90.5924 914.045 64.9592 1002.73 62.6475" stroke="#4A0305" stroke-width="0.808527" stroke-miterlimit="10"/>
<path d="M-261.031 281.72C-238.004 290.174 -214.977 300.033 -191.837 309.393C-160.107 322.243 -135.879 332.057 -108.659 348.33C-88.964 360.025 -76.1813 370.768 -60.339 379.244C-45.4485 387.176 -33.3005 392.548 -24.4387 396.627C-1.61579 407.121 12.5947 407.325 36.5735 403.427C59.6004 399.664 74.1736 393.568 99.8069 383.029C120.907 374.281 144.365 370.178 176.231 362.178C179.064 361.475 181.874 361.181 184.481 360.523C244.314 345.089 265.256 348.217 287.785 345.633C326.162 341.418 364.774 339.722 403.372 340.556C428.915 341.168 451.738 343.684 471.365 350.891C493.69 359.141 513.77 381.964 530.292 397.557C539.199 405.92 546.157 412.243 551.869 411.382C587.248 405.942 587.361 366.688 612.201 313.926C620.678 295.908 629.947 275.578 645.042 256.336C658.3 239.451 707.165 164.432 795.102 111.965C799.431 109.404 804.168 106.661 809.539 103.806C847.796 83.2719 911.982 57.0267 1001.71 54.375" stroke="#4A0305" stroke-width="0.808527" stroke-miterlimit="10"/>
<path d="M-259.922 288.087C-237.711 296.541 -215.115 306.468 -191.929 316.304C-162.103 329.019 -137.535 339.966 -110.338 356.171C-91.2316 367.503 -78.0636 378.019 -63.1052 386.427C-48.94 394.383 -37.3132 400.162 -28.3835 404.559C-6.10449 415.619 8.53663 417.455 32.0168 414.44C54.0465 411.607 67.3051 405.511 93.5957 393.635C113.404 384.682 136.522 378.223 169.068 367.571C171.901 366.642 174.711 366.03 177.386 365.146C238.035 344.929 262.082 343.025 283.318 340.442C322.139 335.665 361.252 333.673 400.357 334.481C426.058 335.229 449.289 338.175 469.098 346.062C491.762 355.128 511.933 379.583 528.297 395.924C537.181 404.853 544.162 411.471 549.941 410.588C585.275 405.125 584.958 363.514 608.664 308.463C616.71 289.765 625.889 268.936 640.78 248.946C652.996 232.56 702.721 155.683 791.86 102.127C796.211 99.521 801.084 96.7333 806.433 93.8323C844.962 72.9586 909.895 46.1015 1000.64 43.0645" stroke="#4A0305" stroke-width="0.808527" stroke-miterlimit="10"/>
<path d="M-258.766 291.511C-237.371 299.965 -215.16 309.892 -192.155 320.249C-164.233 332.828 -139.211 344.772 -112.332 361.045C-93.8149 372.173 -80.2843 382.304 -66.2098 390.644C-52.7472 398.622 -41.6417 404.764 -32.6213 409.614C-10.8863 421.241 4.18545 424.686 27.1444 422.578C48.1768 420.652 60.2116 414.714 87.0688 401.455C105.608 392.39 128.454 383.505 161.566 370.179C164.422 369.045 167.255 368.116 169.952 367.006C231.508 341.962 258.479 334.958 278.537 332.443C317.587 327.57 359.992 324.442 397.003 325.643C422.886 326.482 446.502 329.882 466.605 338.449C489.564 348.24 509.826 374.417 525.985 391.732C534.87 401.251 542.009 408.096 547.698 407.212C583.009 401.772 582.238 357.759 604.834 300.463C612.45 281.108 621.583 259.804 636.202 239.021C647.398 223.156 697.962 144.42 788.302 89.7768C792.699 87.1477 797.594 84.292 803.011 81.323C841.835 60.132 907.471 32.6629 999.261 29.1953" stroke="#4A0305" stroke-width="0.808527" stroke-miterlimit="10"/>
<path d="M-257.492 294.774C-236.89 303.205 -215.042 313.132 -192.151 324.056C-165.39 336.596 -139.305 350.531 -114.005 365.804C-96.0771 376.683 -82.2745 386.496 -68.9706 394.746C-56.2559 402.792 -45.649 409.274 -36.538 414.509C-15.3242 426.725 0.155487 431.757 22.5931 430.578C42.651 429.536 53.5299 423.892 80.863 409.138C98.2239 399.778 120.82 388.627 154.409 372.648C157.264 371.289 160.12 370.042 162.862 368.728C225.303 338.856 254.993 325.552 274.076 324.306C313.943 321.767 356.189 315.24 393.993 316.668C420.057 317.597 444.058 321.495 464.433 330.72C487.71 341.281 508.04 369.249 523.995 387.38C532.834 397.466 540.087 404.582 545.776 403.721C581.041 398.236 579.772 351.843 601.303 292.304C608.906 270.001 619.196 248.706 631.945 228.889C642.144 213.5 693.524 132.929 785.043 77.1976C789.462 74.5232 794.403 71.6222 799.888 68.6079C838.984 47.0768 905.367 18.9959 998.178 15.2109" stroke="#4A0305" stroke-width="0.808527" stroke-miterlimit="10"/>
<path d="M-256.266 297.901C-207.713 318.603 -160.747 342.843 -115.747 370.427C-43.3573 414.826 -23.5713 438.805 17.9723 438.42C48.2291 438.125 55.3684 425.252 147.159 374.96C216.194 337.133 250.712 318.299 269.546 316.033C337.221 308.123 411.198 298.332 462.192 322.832C498.954 340.487 527.919 402.338 543.784 399.89C590.812 392.592 572.25 308.1 627.642 218.577C636.866 203.664 689.039 121.279 781.759 64.4598C817.75 42.4075 890.003 5.73682 997.07 1" stroke="#4A0305" stroke-width="0.808527" stroke-miterlimit="10"/>
</svg>
